<svg width="20" height="20" viewBox="0 0 20 20" fill="none" xmlns="http://www.w3.org/2000/svg">
<path opacity="0.3" d="M2.5 8.68051C2.5 6.01585 2.5 4.68352 2.8146 4.2353C3.12919 3.78708 4.38194 3.35826 6.88743 2.50062L7.36477 2.33722C8.67082 1.89016 9.32384 1.66663 10 1.66663C10.6762 1.66663 11.3292 1.89016 12.6352 2.33722L13.1126 2.50062C15.6181 3.35826 16.8708 3.78708 17.1854 4.2353C17.5 4.68352 17.5 6.01585 17.5 8.68051V9.99276C17.5 14.6912 13.9675 16.9712 11.7512 17.9394C11.15 18.202 10.8494 18.3333 10 18.3333C9.15062 18.3333 8.85001 18.202 8.2488 17.9394C6.03247 16.9712 2.5 14.6912 2.5 9.99276V8.68051Z" fill="#374151"/>
<path d="M9.99996 6.04163C10.3451 6.04163 10.625 6.32145 10.625 6.66663V9.99996C10.625 10.3451 10.3451 10.625 9.99996 10.625C9.65478 10.625 9.37496 10.3451 9.37496 9.99996V6.66663C9.37496 6.32145 9.65478 6.04163 9.99996 6.04163Z" fill="#374151"/>
<path d="M9.99996 13.3333C10.4602 13.3333 10.8333 12.9602 10.8333 12.5C10.8333 12.0397 10.4602 11.6666 9.99996 11.6666C9.53972 11.6666 9.16663 12.0397 9.16663 12.5C9.16663 12.9602 9.53972 13.3333 9.99996 13.3333Z" fill="#374151"/>
</svg>
