<svg width="26" height="26" viewBox="0 0 26 26" fill="none" xmlns="http://www.w3.org/2000/svg">
<path fill-rule="evenodd" clip-rule="evenodd" d="M14.5018 14.541L10.4802 10.5193L2.93123 18.0682C2.84152 18.1579 2.81209 18.2919 2.85602 18.4105C2.90035 18.5294 3.00939 18.6118 3.13549 18.6224L4.70305 18.744L6.74512 18.2848L6.28157 20.3136L6.40005 21.8834C6.41028 22.0091 6.49219 22.1195 6.61203 22.1629C6.73097 22.2073 6.86496 22.1778 6.95467 22.0881L14.5018 14.541Z" fill="url(#paint0_linear_3065_215874)"/>
<path fill-rule="evenodd" clip-rule="evenodd" d="M11.4948 14.5451L15.5165 10.5234L23.0654 18.0724C23.1551 18.1621 23.1846 18.2961 23.1406 18.4146C23.0963 18.5336 22.9873 18.616 22.8612 18.6266L21.2936 18.7481L19.4283 18.4658L19.7151 20.3178L19.5966 21.8876C19.5864 22.0133 19.5044 22.1236 19.3846 22.1671C19.2657 22.2114 19.1317 22.182 19.042 22.0923L11.4948 14.5451Z" fill="url(#paint1_linear_3065_215874)"/>
<path fill-rule="evenodd" clip-rule="evenodd" d="M4.57091 19.3036L11.5647 12.3L13.1377 13.8708L6.14391 20.8744L6.0476 19.4069L4.57091 19.3036Z" fill="url(#paint2_linear_3065_215874)"/>
<path fill-rule="evenodd" clip-rule="evenodd" d="M21.3105 18.7122L14.3168 11.7185L12.7438 13.2915L19.7375 20.2852L19.8338 18.8175L21.3105 18.7122Z" fill="url(#paint3_linear_3065_215874)"/>
<path fill-rule="evenodd" clip-rule="evenodd" d="M9.90374 4.97047C10.0526 5.0107 10.2106 5.00043 10.353 4.94127C10.4955 4.8821 10.6142 4.77738 10.6908 4.6435C11.1581 3.93183 12.026 3.43286 13.0008 3.43286C13.9757 3.43286 14.8435 3.93182 15.3103 4.6441C15.4683 4.91881 15.7916 5.05252 16.0979 4.96987C16.9318 4.79666 17.8981 5.05738 18.5873 5.74717C19.2771 6.43636 19.5378 7.40269 19.364 8.23652C19.3237 8.3854 19.334 8.54341 19.3932 8.68582C19.4523 8.82824 19.5571 8.94702 19.6909 9.02356C20.4026 9.49092 20.9016 10.3588 20.9016 11.3336C20.9016 12.3084 20.4026 13.1763 19.6903 13.6431C19.5568 13.72 19.4524 13.839 19.3935 13.9815C19.3346 14.1239 19.3244 14.2819 19.3646 14.4307C19.5378 15.2645 19.2771 16.2309 18.5873 16.92C17.8981 17.6098 16.9318 17.8706 16.0979 17.6968C15.9491 17.6565 15.791 17.6668 15.6486 17.726C15.5062 17.7851 15.3874 17.8898 15.3109 18.0237C14.8435 18.7354 13.9757 19.2344 13.0008 19.2344C12.026 19.2344 11.1581 18.7354 10.6914 18.0231C10.6144 17.8896 10.4954 17.7852 10.353 17.7263C10.2105 17.6674 10.0526 17.6572 9.90374 17.6974C9.06991 17.8706 8.10358 17.6098 7.41439 16.92C6.7246 16.2309 6.46387 15.2645 6.63769 14.4307C6.67792 14.2818 6.66765 14.1238 6.60849 13.9814C6.54932 13.839 6.4446 13.7202 6.31072 13.6437C5.59904 13.1763 5.10008 12.3084 5.10008 11.3336C5.10008 10.3588 5.59904 9.49091 6.31133 9.02416C6.44489 8.94718 6.54925 8.8282 6.60817 8.68574C6.66708 8.54328 6.67725 8.38535 6.63708 8.23652C6.46387 7.40269 6.7246 6.43636 7.41439 5.74717C8.10358 5.05738 9.06991 4.79665 9.90374 4.97047Z" fill="url(#paint4_linear_3065_215874)"/>
<path d="M12.9886 17.4475C16.3741 17.4475 19.1185 14.7031 19.1185 11.3176C19.1185 7.93218 16.3741 5.18774 12.9886 5.18774C9.6032 5.18774 6.85876 7.93218 6.85876 11.3176C6.85876 14.7031 9.6032 17.4475 12.9886 17.4475Z" fill="url(#paint5_linear_3065_215874)"/>
<path d="M13.0244 16.595C15.9126 16.595 18.2539 14.2537 18.2539 11.3655C18.2539 8.47732 15.9126 6.13599 13.0244 6.13599C10.1362 6.13599 7.79489 8.47732 7.79489 11.3655C7.79489 14.2537 10.1362 16.595 13.0244 16.595Z" fill="url(#paint6_linear_3065_215874)"/>
<path fill-rule="evenodd" clip-rule="evenodd" d="M12.7075 8.29026C12.7327 8.23237 12.7743 8.1831 12.8271 8.14849C12.88 8.11389 12.9417 8.09546 13.0049 8.09546C13.068 8.09546 13.1298 8.11389 13.1827 8.14849C13.2355 8.1831 13.2771 8.23237 13.3023 8.29026L14.0049 9.88042L15.7339 10.0567C15.7966 10.063 15.8562 10.0874 15.9053 10.127C15.9544 10.1665 15.991 10.2195 16.0105 10.2795C16.03 10.3395 16.0316 10.4039 16.0152 10.4648C15.9988 10.5256 15.965 10.5804 15.9179 10.6225L14.6226 11.7821L14.9892 13.4814C15.0026 13.5431 14.9977 13.6073 14.9752 13.6662C14.9527 13.7251 14.9135 13.7762 14.8625 13.8132C14.8114 13.8503 14.7507 13.8717 14.6877 13.8748C14.6247 13.8779 14.5622 13.8627 14.5077 13.8309L13.0049 12.9573L11.5021 13.8309C11.4477 13.8629 11.385 13.8784 11.3219 13.8754C11.2588 13.8723 11.198 13.851 11.1469 13.8139C11.0957 13.7768 11.0566 13.7255 11.0341 13.6665C11.0117 13.6074 11.007 13.5431 11.0206 13.4814L11.3872 11.7821L10.0919 10.6225C10.0453 10.5802 10.0119 10.5254 9.99571 10.4647C9.97955 10.4039 9.9813 10.3398 10.0008 10.28C10.0202 10.2202 10.0565 10.1673 10.1054 10.1277C10.1542 10.0881 10.2134 10.0634 10.2759 10.0567L12.0049 9.88042L12.7075 8.29026Z" fill="url(#paint7_linear_3065_215874)"/>
<defs>
<linearGradient id="paint0_linear_3065_215874" x1="11.6943" y1="13.3269" x2="5.761" y2="19.2601" gradientUnits="userSpaceOnUse">
<stop stop-color="#5C2F00"/>
<stop offset="1" stop-color="#A55400"/>
</linearGradient>
<linearGradient id="paint1_linear_3065_215874" x1="14.3024" y1="13.331" x2="20.2356" y2="19.2643" gradientUnits="userSpaceOnUse">
<stop stop-color="#5C2F00"/>
<stop offset="1" stop-color="#A55400"/>
</linearGradient>
<linearGradient id="paint2_linear_3065_215874" x1="9.42115" y1="16.0219" x2="5.34145" y2="20.1073" gradientUnits="userSpaceOnUse">
<stop stop-color="#BAD3E8"/>
<stop offset="1" stop-color="#E4EAEF"/>
</linearGradient>
<linearGradient id="paint3_linear_3065_215874" x1="16.4603" y1="15.4373" x2="20.5399" y2="19.517" gradientUnits="userSpaceOnUse">
<stop stop-color="#BAD3E8"/>
<stop offset="1" stop-color="#E4EAEF"/>
</linearGradient>
<linearGradient id="paint4_linear_3065_215874" x1="16.2898" y1="4.36308" x2="10.0378" y2="18.6685" gradientUnits="userSpaceOnUse">
<stop stop-color="#965B31"/>
<stop offset="0.5" stop-color="#F9AA57"/>
<stop offset="1" stop-color="#965B31"/>
</linearGradient>
<linearGradient id="paint5_linear_3065_215874" x1="8.36038" y1="5.5507" x2="17.0836" y2="17.4533" gradientUnits="userSpaceOnUse">
<stop stop-color="#965B31"/>
<stop offset="0.5" stop-color="#F9AA57"/>
<stop offset="1" stop-color="#965B31"/>
</linearGradient>
<linearGradient id="paint6_linear_3065_215874" x1="17.1468" y1="17.9834" x2="11.8621" y2="8.74203" gradientUnits="userSpaceOnUse">
<stop stop-color="#3D1F00"/>
<stop offset="1" stop-color="#A55400"/>
</linearGradient>
<linearGradient id="paint7_linear_3065_215874" x1="15.3699" y1="8.14934" x2="11.6415" y2="14.6374" gradientUnits="userSpaceOnUse">
<stop stop-color="#965B31"/>
<stop offset="0.5" stop-color="#F9AA57"/>
<stop offset="1" stop-color="#965B31"/>
</linearGradient>
</defs>
</svg>
