<svg width="20" height="20" viewBox="0 0 20 20" fill="none" xmlns="http://www.w3.org/2000/svg">
<path fill-rule="evenodd" clip-rule="evenodd" d="M1.51507 4.39369C1.84994 4.30997 2.18927 4.51357 2.27299 4.84844L2.5913 6.12166C3.09948 8.15439 4.70088 9.73039 6.73709 10.2084H13.3333C15.0758 10.2084 16.5425 11.5126 16.7461 13.2432L17.2874 17.8437C17.3277 18.1865 17.0825 18.4971 16.7397 18.5374C16.3969 18.5777 16.0863 18.3325 16.0459 17.9897L15.5047 13.3893C15.3752 12.2882 14.442 11.4584 13.3333 11.4584H6.59804L6.53107 11.4435C4.00173 10.8814 2.00704 8.93851 1.37862 6.42483L1.06031 5.15161C0.976595 4.81674 1.1802 4.4774 1.51507 4.39369Z" fill="#374151"/>
<path opacity="0.3" d="M6.66663 11.4584V15C6.66663 16.5714 6.66663 17.3571 7.15478 17.8452C7.64294 18.3334 8.42861 18.3334 9.99996 18.3334C11.5713 18.3334 12.357 18.3334 12.8451 17.8452C13.3333 17.3571 13.3333 16.5714 13.3333 15V11.4584H6.66663Z" fill="#374151"/>
<circle cx="9.99996" cy="4.99996" r="3.33333" fill="#374151"/>
</svg>
