<svg width="20" height="20" viewBox="0 0 20 20" fill="none" xmlns="http://www.w3.org/2000/svg">
<path fill-rule="evenodd" clip-rule="evenodd" d="M1.51507 4.39356C1.84994 4.30985 2.18927 4.51345 2.27299 4.84832L2.5913 6.12154C3.09948 8.15426 4.70088 9.73027 6.73709 10.2082H13.3333C15.0758 10.2082 16.5425 11.5125 16.7461 13.2431L17.2874 17.8435C17.3277 18.1864 17.0825 18.497 16.7397 18.5373C16.3969 18.5776 16.0863 18.3324 16.0459 17.9896L15.5047 13.3891C15.3752 12.2881 14.442 11.4582 13.3333 11.4582H6.59804L6.53107 11.4434C4.00173 10.8813 2.00704 8.93839 1.37862 6.42471L1.06031 5.15149C0.976595 4.81662 1.1802 4.47728 1.51507 4.39356Z" fill="#1F6FEB"/>
<path opacity="0.3" d="M6.66669 11.4583V14.9999C6.66669 16.5713 6.66669 17.3569 7.15484 17.8451C7.643 18.3333 8.42867 18.3333 10 18.3333C11.5714 18.3333 12.357 18.3333 12.8452 17.8451C13.3334 17.3569 13.3334 16.5713 13.3334 14.9999V11.4583H6.66669Z" fill="#1F6FEB"/>
<circle cx="10" cy="5.00008" r="3.33333" fill="#1F6FEB"/>
</svg>
