<svg width="36" height="36" viewBox="0 0 36 36" fill="none" xmlns="http://www.w3.org/2000/svg">
<rect x="0.5" y="0.5" width="35" height="35" rx="17.5" fill="#F9F9F9"/>
<rect x="0.5" y="0.5" width="35" height="35" rx="17.5" stroke="#DBDFE9"/>
<path opacity="0.1" d="M24.79 16.367C25.1205 16.3651 25.4369 16.2301 25.6705 15.9912C25.9042 15.7523 26.0363 15.4289 26.0382 15.0911V13.633C26.0363 13.2952 25.9042 12.9718 25.6705 12.7329C25.4369 12.4941 25.1205 12.359 24.79 12.3571H23.8556C23.7501 11.7449 23.4371 11.1902 22.9715 10.7903C22.5059 10.3904 21.9175 10.1708 21.3093 10.1699H12.5791C11.893 10.1718 11.2355 10.4513 10.7504 10.9472C10.2653 11.4431 9.99187 12.1151 9.98999 12.8164V23.1984C9.99187 23.8997 10.2653 24.5717 10.7504 25.0676C11.2355 25.5635 11.893 25.843 12.5791 25.8449H21.3093C21.9954 25.843 22.6529 25.5635 23.138 25.0676C23.6232 24.5717 23.8966 23.8997 23.8984 23.1984V20.7414H24.79C25.1205 20.7395 25.4369 20.6045 25.6705 20.3656C25.9042 20.1268 26.0363 19.8034 26.0382 19.4656V18.0074C26.0363 17.6696 25.9042 17.3462 25.6705 17.1074C25.4369 16.8685 25.1205 16.7335 24.79 16.7315H23.8984V16.367H24.79Z" fill="#78829D"/>
<path d="M24.8083 16.3517C25.1404 16.3498 25.4583 16.2141 25.6931 15.9741C25.9279 15.7341 26.0606 15.4092 26.0625 15.0698V13.6047C26.0606 13.2652 25.9279 12.9403 25.6931 12.7003C25.4583 12.4603 25.1404 12.3246 24.8083 12.3227H23.8695C23.7634 11.7075 23.4489 11.1502 22.9811 10.7484C22.5133 10.3465 21.9221 10.1258 21.311 10.125H12.539C11.8496 10.1269 11.189 10.4077 10.7016 10.906C10.2141 11.4043 9.93939 12.0795 9.9375 12.7842V23.2158C9.93939 23.9205 10.2141 24.5957 10.7016 25.094C11.189 25.5923 11.8496 25.8731 12.539 25.875H21.311C22.0004 25.8731 22.661 25.5923 23.1484 25.094C23.6359 24.5957 23.9106 23.9205 23.9125 23.2158V20.7471H24.8083C25.1404 20.7452 25.4583 20.6095 25.6931 20.3695C25.9279 20.1295 26.0606 19.8045 26.0625 19.4651V18C26.0606 17.6606 25.9279 17.3356 25.6931 17.0956C25.4583 16.8556 25.1404 16.7199 24.8083 16.718H23.9125V16.3517H24.8083ZM24.9875 13.6047V15.0698C24.9875 15.1183 24.9686 15.1649 24.935 15.1993C24.9014 15.2336 24.8559 15.2529 24.8083 15.2529H23.9125V13.4215H24.8083C24.8559 13.4215 24.9014 13.4408 24.935 13.4752C24.9686 13.5095 24.9875 13.5561 24.9875 13.6047ZM24.8083 17.8169C24.8559 17.8169 24.9014 17.8362 24.935 17.8705C24.9686 17.9048 24.9875 17.9514 24.9875 18V19.4651C24.9875 19.5137 24.9686 19.5603 24.935 19.5946C24.9014 19.629 24.8559 19.6483 24.8083 19.6483H23.9125V17.8169H24.8083ZM22.8375 16.718V23.2158C22.8375 23.6296 22.6767 24.0265 22.3904 24.3191C22.1041 24.6118 21.7159 24.7762 21.311 24.7762H12.539C12.1341 24.7762 11.7459 24.6118 11.4596 24.3191C11.1733 24.0265 11.0125 23.6296 11.0125 23.2158V12.7842C11.0125 12.3704 11.1733 11.9735 11.4596 11.6809C11.7459 11.3882 12.1341 11.2238 12.539 11.2238H21.311C21.7153 11.2258 22.1024 11.3908 22.3883 11.683C22.6742 11.9752 22.8356 12.3709 22.8375 12.7842V16.718ZM16.925 17.641C17.3148 17.641 17.6958 17.5229 18.0199 17.3015C18.344 17.0802 18.5966 16.7655 18.7458 16.3974C18.895 16.0293 18.934 15.6243 18.858 15.2335C18.7819 14.8427 18.5942 14.4838 18.3186 14.202C18.043 13.9203 17.6918 13.7284 17.3095 13.6507C16.9272 13.573 16.5309 13.6128 16.1708 13.7653C15.8107 13.9178 15.5029 14.176 15.2863 14.5073C15.0698 14.8386 14.9542 15.2281 14.9542 15.6265C14.9542 16.1608 15.1618 16.6732 15.5314 17.051C15.901 17.4288 16.4023 17.641 16.925 17.641ZM16.925 14.7108C17.1022 14.7108 17.2754 14.7645 17.4227 14.8651C17.57 14.9658 17.6848 15.1088 17.7526 15.2761C17.8204 15.4434 17.8382 15.6275 17.8036 15.8052C17.7691 15.9828 17.6837 16.1459 17.5584 16.274C17.4332 16.4021 17.2735 16.4893 17.0998 16.5246C16.926 16.5599 16.7459 16.5418 16.5822 16.4725C16.4185 16.4032 16.2786 16.2858 16.1801 16.1352C16.0817 15.9847 16.0292 15.8076 16.0292 15.6265C16.0292 15.3837 16.1235 15.1507 16.2916 14.979C16.4596 14.8073 16.6874 14.7108 16.925 14.7108ZM16.925 18.1831C16.1811 18.1652 15.4487 18.3726 14.82 18.7793C14.1913 19.186 13.6943 19.7739 13.3918 20.4687C13.32 20.6443 13.2922 20.8354 13.311 21.0248C13.3298 21.2141 13.3945 21.3956 13.4993 21.5529C13.6743 21.7792 13.9013 21.9578 14.1601 22.0729C14.419 22.1879 14.7016 22.2357 14.9828 22.2122H19.2828C19.4885 22.2125 19.6912 22.1629 19.8744 22.0674C20.0576 21.9718 20.2159 21.8332 20.3363 21.6628C20.4474 21.4947 20.5171 21.3017 20.5396 21.1002C20.562 20.8987 20.5365 20.6946 20.4653 20.5053C20.1662 19.8036 19.6702 19.2084 19.0399 18.795C18.4097 18.3817 17.6737 18.1687 16.925 18.1831ZM19.4333 21.0181C19.4119 21.0462 19.3848 21.0692 19.3539 21.0856C19.3229 21.102 19.289 21.1115 19.2542 21.1134H14.9542C14.5743 21.1134 14.4023 21.0035 14.3593 20.879C14.5817 20.3873 14.941 19.9735 15.3923 19.6895C15.8435 19.4054 16.3667 19.2637 16.8963 19.282C17.426 19.2637 17.9492 19.4054 18.4004 19.6895C18.8517 19.9735 19.2109 20.3873 19.4333 20.879C19.4453 20.9001 19.4516 20.9241 19.4516 20.9485C19.4516 20.973 19.4453 20.997 19.4333 21.0181Z" fill="#78829D"/>
</svg>
