<svg width="20" height="20" viewBox="0 0 20 20" fill="none" xmlns="http://www.w3.org/2000/svg">
<path d="M12.9166 6.25016C12.9166 7.86099 11.6108 9.16683 9.99998 9.16683C8.38915 9.16683 7.08331 7.86099 7.08331 6.25016C7.08331 4.63933 8.38915 3.3335 9.99998 3.3335C11.6108 3.3335 12.9166 4.63933 12.9166 6.25016Z" fill="#1F6FEB"/>
<path opacity="0.3" d="M16.25 6.24984C16.25 7.40043 15.3172 8.33317 14.1666 8.33317C13.0161 8.33317 12.0833 7.40043 12.0833 6.24984C12.0833 5.09924 13.0161 4.1665 14.1666 4.1665C15.3172 4.1665 16.25 5.09924 16.25 6.24984Z" fill="#1F6FEB"/>
<path opacity="0.3" d="M3.75002 6.24984C3.75002 7.40043 4.68276 8.33317 5.83335 8.33317C6.98395 8.33317 7.91669 7.40043 7.91669 6.24984C7.91669 5.09924 6.98395 4.1665 5.83335 4.1665C4.68276 4.1665 3.75002 5.09924 3.75002 6.24984Z" fill="#1F6FEB"/>
<path d="M15 13.7502C15 15.361 12.7614 16.6668 10 16.6668C7.23858 16.6668 5 15.361 5 13.7502C5 12.1393 7.23858 10.8335 10 10.8335C12.7614 10.8335 15 12.1393 15 13.7502Z" fill="#1F6FEB"/>
<path opacity="0.3" d="M18.3334 13.7498C18.3334 14.9004 16.841 15.8332 15 15.8332C13.1591 15.8332 11.6667 14.9004 11.6667 13.7498C11.6667 12.5992 13.1591 11.6665 15 11.6665C16.841 11.6665 18.3334 12.5992 18.3334 13.7498Z" fill="#1F6FEB"/>
<path opacity="0.3" d="M1.66665 13.7498C1.66665 14.9004 3.15903 15.8332 4.99998 15.8332C6.84093 15.8332 8.33331 14.9004 8.33331 13.7498C8.33331 12.5992 6.84093 11.6665 4.99998 11.6665C3.15903 11.6665 1.66665 12.5992 1.66665 13.7498Z" fill="#1F6FEB"/>
</svg>
