<svg width="20" height="20" viewBox="0 0 20 20" fill="none" xmlns="http://www.w3.org/2000/svg">
<path d="M12.9166 6.24992C12.9166 7.86075 11.6108 9.16659 9.99998 9.16659C8.38915 9.16659 7.08331 7.86075 7.08331 6.24992C7.08331 4.63909 8.38915 3.33325 9.99998 3.33325C11.6108 3.33325 12.9166 4.63909 12.9166 6.24992Z" fill="#374151"/>
<path opacity="0.3" d="M16.25 6.25008C16.25 7.40067 15.3172 8.33341 14.1666 8.33341C13.0161 8.33341 12.0833 7.40067 12.0833 6.25008C12.0833 5.09949 13.0161 4.16675 14.1666 4.16675C15.3172 4.16675 16.25 5.09949 16.25 6.25008Z" fill="#374151"/>
<path opacity="0.3" d="M3.75002 6.25008C3.75002 7.40067 4.68276 8.33341 5.83335 8.33341C6.98395 8.33341 7.91669 7.40067 7.91669 6.25008C7.91669 5.09949 6.98395 4.16675 5.83335 4.16675C4.68276 4.16675 3.75002 5.09949 3.75002 6.25008Z" fill="#374151"/>
<path d="M15 13.7499C15 15.3607 12.7614 16.6666 10 16.6666C7.23858 16.6666 5 15.3607 5 13.7499C5 12.1391 7.23858 10.8333 10 10.8333C12.7614 10.8333 15 12.1391 15 13.7499Z" fill="#374151"/>
<path opacity="0.3" d="M18.3334 13.7501C18.3334 14.9007 16.841 15.8334 15 15.8334C13.1591 15.8334 11.6667 14.9007 11.6667 13.7501C11.6667 12.5995 13.1591 11.6667 15 11.6667C16.841 11.6667 18.3334 12.5995 18.3334 13.7501Z" fill="#374151"/>
<path opacity="0.3" d="M1.66665 13.7501C1.66665 14.9007 3.15903 15.8334 4.99998 15.8334C6.84093 15.8334 8.33331 14.9007 8.33331 13.7501C8.33331 12.5995 6.84093 11.6667 4.99998 11.6667C3.15903 11.6667 1.66665 12.5995 1.66665 13.7501Z" fill="#374151"/>
</svg>
