<svg width="58" height="58" viewBox="0 0 58 58" fill="none" xmlns="http://www.w3.org/2000/svg">
<rect x="0.5" y="0.5" width="57" height="57" rx="11.5" fill="#FFF2EA"/>
<rect x="0.5" y="0.5" width="57" height="57" rx="11.5" stroke="#FFEADE"/>
<path opacity="0.3" d="M13.6001 29C13.6001 21.9289 13.6001 18.3934 15.7968 16.1967C17.9935 14 21.529 14 28.6001 14C35.6712 14 39.2067 14 41.4034 16.1967C43.6001 18.3934 43.6001 21.9289 43.6001 29C43.6001 36.0711 43.6001 39.6066 41.4034 41.8033C39.2067 44 35.6712 44 28.6001 44C21.529 44 17.9935 44 15.7968 41.8033C13.6001 39.6066 13.6001 36.0711 13.6001 29Z" fill="#FF6F1E"/>
<path d="M36.9644 26.7202C37.3621 26.2429 37.2976 25.5335 36.8203 25.1358C36.343 24.738 35.6336 24.8025 35.2359 25.2798L32.5405 28.5142C31.9844 29.1817 31.6428 29.5873 31.3614 29.8414C31.2309 29.9592 31.1535 30.0062 31.1164 30.0241C31.1089 30.0278 31.1035 30.03 31.1001 30.0312C31.1001 30.0312 31.0937 30.0287 31.0886 30.0264L31.0838 30.0241C31.0467 30.0062 30.9693 29.9592 30.8388 29.8414C30.5575 29.5873 30.2159 29.1817 29.6597 28.5142L29.2211 27.9879C28.7284 27.3965 28.2843 26.8634 27.8694 26.4888C27.418 26.0811 26.8494 25.7181 26.1001 25.7181C25.3509 25.7181 24.7823 26.0811 24.3309 26.4888C23.916 26.8634 23.4718 27.3965 22.9791 27.9879L20.2359 31.2798C19.8381 31.7571 19.9026 32.4665 20.3799 32.8643C20.8572 33.262 21.5666 33.1975 21.9644 32.7202L24.6597 29.4858C25.2159 28.8184 25.5575 28.4128 25.8388 28.1587C25.9693 28.0409 26.0467 27.9939 26.0838 27.9759L26.094 27.9713L26.1001 27.9688C26.1035 27.9701 26.1089 27.9723 26.1164 27.9759C26.1535 27.9939 26.2309 28.0409 26.3614 28.1587C26.6428 28.4128 26.9844 28.8184 27.5405 29.4858L27.9791 30.0122L27.9792 30.0122C28.4718 30.6035 28.916 31.1366 29.3309 31.5113C29.7823 31.9189 30.3509 32.282 31.1001 32.282C31.8494 32.282 32.418 31.9189 32.8694 31.5113C33.2843 31.1366 33.7284 30.6035 34.2211 30.0122L36.9644 26.7202Z" fill="#FF6F1E"/>
</svg>
