<svg width="20" height="20" viewBox="0 0 20 20" fill="none" xmlns="http://www.w3.org/2000/svg">
<path opacity="0.5" d="M1.66663 5.41663C1.66663 3.64886 1.66663 2.76498 2.2158 2.2158C2.76498 1.66663 3.64886 1.66663 5.41663 1.66663C7.18439 1.66663 8.06828 1.66663 8.61745 2.2158C9.16663 2.76498 9.16663 3.64886 9.16663 5.41663C9.16663 7.18439 9.16663 8.06828 8.61745 8.61745C8.06828 9.16663 7.18439 9.16663 5.41663 9.16663C3.64886 9.16663 2.76498 9.16663 2.2158 8.61745C1.66663 8.06828 1.66663 7.18439 1.66663 5.41663Z" fill="#1F6FEB"/>
<path opacity="0.5" d="M10.8334 14.5834C10.8334 12.8156 10.8334 11.9317 11.3825 11.3825C11.9317 10.8334 12.8156 10.8334 14.5834 10.8334C16.3511 10.8334 17.235 10.8334 17.7842 11.3825C18.3334 11.9317 18.3334 12.8156 18.3334 14.5834C18.3334 16.3511 18.3334 17.235 17.7842 17.7842C17.235 18.3334 16.3511 18.3334 14.5834 18.3334C12.8156 18.3334 11.9317 18.3334 11.3825 17.7842C10.8334 17.235 10.8334 16.3511 10.8334 14.5834Z" fill="#1F6FEB"/>
<path d="M1.66663 14.5834C1.66663 12.8156 1.66663 11.9317 2.2158 11.3825C2.76498 10.8334 3.64886 10.8334 5.41663 10.8334C7.18439 10.8334 8.06828 10.8334 8.61745 11.3825C9.16663 11.9317 9.16663 12.8156 9.16663 14.5834C9.16663 16.3511 9.16663 17.235 8.61745 17.7842C8.06828 18.3334 7.18439 18.3334 5.41663 18.3334C3.64886 18.3334 2.76498 18.3334 2.2158 17.7842C1.66663 17.235 1.66663 16.3511 1.66663 14.5834Z" fill="#1F6FEB"/>
<path d="M10.8334 5.41663C10.8334 3.64886 10.8334 2.76498 11.3825 2.2158C11.9317 1.66663 12.8156 1.66663 14.5834 1.66663C16.3511 1.66663 17.235 1.66663 17.7842 2.2158C18.3334 2.76498 18.3334 3.64886 18.3334 5.41663C18.3334 7.18439 18.3334 8.06828 17.7842 8.61745C17.235 9.16663 16.3511 9.16663 14.5834 9.16663C12.8156 9.16663 11.9317 9.16663 11.3825 8.61745C10.8334 8.06828 10.8334 7.18439 10.8334 5.41663Z" fill="#1F6FEB"/>
</svg>
