<svg width="58" height="58" viewBox="0 0 58 58" fill="none" xmlns="http://www.w3.org/2000/svg">
<rect x="0.5" y="0.5" width="57" height="57" rx="11.5" fill="#FFF7E2"/>
<rect x="0.5" y="0.5" width="57" height="57" rx="11.5" stroke="#FFF3D4"/>
<path d="M32.2002 20C37.8569 20 40.685 20.0005 42.4424 21.7578C42.8094 22.1248 43.1004 22.5382 43.3301 23.0146C43.2439 23.0441 43.1599 23.0848 43.0801 23.1367C39.9294 25.1846 37.9494 26.4654 36.3047 27.2871C36.2051 26.7677 35.7486 26.3751 35.2002 26.375C34.5789 26.375 34.0752 26.8787 34.0752 27.5V28.1875C30.896 29.1468 27.5043 29.1459 24.3252 28.1865V27.5C24.3252 26.8787 23.8214 26.3751 23.2002 26.375C22.6518 26.375 22.1944 26.7678 22.0947 27.2871C20.4502 26.4655 18.4712 25.1842 15.3213 23.1367C15.2413 23.0847 15.1567 23.0441 15.0703 23.0146C15.2999 22.5384 15.5902 22.1247 15.957 21.7578C17.7144 20.0005 20.5433 20 26.2002 20H32.2002ZM29.2002 12.875C31.651 12.8751 33.7333 14.4419 34.5049 16.625C34.7119 17.2108 34.4042 17.8535 33.8184 18.0605C33.2326 18.2674 32.5898 17.9607 32.3828 17.375C31.919 16.0627 30.6678 15.1251 29.2002 15.125C27.7325 15.125 26.4805 16.0626 26.0166 17.375C25.8095 17.9607 25.1668 18.2676 24.5811 18.0605C23.9953 17.8535 23.6885 17.2108 23.8955 16.625C24.6672 14.4419 26.7493 12.875 29.2002 12.875Z" fill="#F6B100"/>
<path opacity="0.5" d="M14.2 31.9997C14.2 29.074 14.2 26.9049 14.4431 25.2493C17.8581 27.469 20.0469 28.8847 22.075 29.7566V30.4997C22.075 31.1211 22.5786 31.6247 23.2 31.6247C23.813 31.6247 24.3116 31.1343 24.3247 30.5244C27.5201 31.3669 30.8798 31.3669 34.0752 30.5245C34.0884 31.1344 34.5869 31.6247 35.2 31.6247C35.8213 31.6247 36.325 31.1211 36.325 30.4997V29.7568C38.353 28.885 40.5418 27.4694 43.9569 25.2496C44.2 26.9052 44.2 29.0742 44.2 31.9997C44.2 37.6566 44.2 40.485 42.4426 42.2424C40.6852 43.9997 37.8568 43.9997 32.2 43.9997H26.2C20.5431 43.9997 17.7147 43.9997 15.9573 42.2424C14.2 40.485 14.2 37.6566 14.2 31.9997Z" fill="#F6B100"/>
</svg>
