<svg width="20" height="20" viewBox="0 0 20 20" fill="none" xmlns="http://www.w3.org/2000/svg">
<path opacity="0.3" d="M1.66669 5.41699C1.66669 3.64923 1.66669 2.76534 2.21586 2.21617C2.76504 1.66699 3.64892 1.66699 5.41669 1.66699C7.18445 1.66699 8.06834 1.66699 8.61751 2.21617C9.16669 2.76534 9.16669 3.64923 9.16669 5.41699C9.16669 7.18476 9.16669 8.06864 8.61751 8.61782C8.06834 9.16699 7.18445 9.16699 5.41669 9.16699C3.64892 9.16699 2.76504 9.16699 2.21586 8.61782C1.66669 8.06864 1.66669 7.18476 1.66669 5.41699Z" fill="#374151"/>
<path opacity="0.3" d="M10.8333 14.583C10.8333 12.8152 10.8333 11.9314 11.3825 11.3822C11.9317 10.833 12.8155 10.833 14.5833 10.833C16.3511 10.833 17.235 10.833 17.7841 11.3822C18.3333 11.9314 18.3333 12.8152 18.3333 14.583C18.3333 16.3508 18.3333 17.2347 17.7841 17.7838C17.235 18.333 16.3511 18.333 14.5833 18.333C12.8155 18.333 11.9317 18.333 11.3825 17.7838C10.8333 17.2347 10.8333 16.3508 10.8333 14.583Z" fill="#374151"/>
<path d="M1.66669 14.583C1.66669 12.8152 1.66669 11.9314 2.21586 11.3822C2.76504 10.833 3.64892 10.833 5.41669 10.833C7.18445 10.833 8.06834 10.833 8.61751 11.3822C9.16669 11.9314 9.16669 12.8152 9.16669 14.583C9.16669 16.3508 9.16669 17.2347 8.61751 17.7838C8.06834 18.333 7.18445 18.333 5.41669 18.333C3.64892 18.333 2.76504 18.333 2.21586 17.7838C1.66669 17.2347 1.66669 16.3508 1.66669 14.583Z" fill="#374151"/>
<path d="M10.8333 5.41699C10.8333 3.64923 10.8333 2.76534 11.3825 2.21617C11.9317 1.66699 12.8155 1.66699 14.5833 1.66699C16.3511 1.66699 17.235 1.66699 17.7841 2.21617C18.3333 2.76534 18.3333 3.64923 18.3333 5.41699C18.3333 7.18476 18.3333 8.06864 17.7841 8.61782C17.235 9.16699 16.3511 9.16699 14.5833 9.16699C12.8155 9.16699 11.9317 9.16699 11.3825 8.61782C10.8333 8.06864 10.8333 7.18476 10.8333 5.41699Z" fill="#374151"/>
</svg>
