<svg width="58" height="58" viewBox="0 0 58 58" fill="none" xmlns="http://www.w3.org/2000/svg">
<rect x="0.5" y="0.5" width="57" height="57" rx="11.5" fill="#F2FFF6"/>
<rect x="0.5" y="0.5" width="57" height="57" rx="11.5" stroke="#DAFFE7"/>
<path opacity="0.3" d="M16.1967 16.1967C14 18.3934 14 21.9289 14 29C14 36.0711 14 39.6066 16.1967 41.8033C18.3934 44 21.9289 44 29 44C36.0711 44 39.6066 44 41.8033 41.8033C44 39.6066 44 36.0711 44 29C44 21.9289 44 18.3934 41.8033 16.1967C39.6066 14 36.0711 14 29 14C21.9289 14 18.3934 14 16.1967 16.1967Z" fill="#17C653"/>
<path d="M26.006 19.6275C26.6273 19.6243 27.1283 19.1179 27.125 18.4966C27.1217 17.8753 26.6153 17.3743 25.994 17.3776C24.3714 17.3862 23.0237 17.4232 21.9239 17.6156C20.7961 17.8129 19.8318 18.1887 19.0422 18.9407C18.3595 19.5908 17.9029 20.2492 17.6544 21.1951C17.4292 22.0525 17.3891 23.1073 17.3785 24.4914C17.3737 25.1127 17.8735 25.6202 18.4948 25.625C19.1161 25.6297 19.6236 25.1299 19.6284 24.5086C19.6393 23.0855 19.6881 22.3093 19.8306 21.7668C19.9498 21.3128 20.1397 21.0025 20.5939 20.57C20.9568 20.2243 21.4522 19.9823 22.3116 19.832C23.199 19.6767 24.3661 19.6362 26.006 19.6275Z" fill="#17C653"/>
<path d="M32.0061 17.3776C31.3848 17.3743 30.8784 17.8753 30.8751 18.4966C30.8719 19.1179 31.3729 19.6243 31.9942 19.6275C33.634 19.6362 34.801 19.6767 35.6884 19.832C36.5478 19.9823 37.0432 20.2243 37.4061 20.57C37.8603 21.0025 38.0502 21.3128 38.1694 21.7668C38.3119 22.3093 38.3607 23.0855 38.3716 24.5086C38.3764 25.1299 38.8839 25.6297 39.5052 25.625C40.1265 25.6202 40.6263 25.1127 40.6215 24.4914C40.6109 23.1073 40.5708 22.0525 40.3456 21.1951C40.0971 20.2492 39.6405 19.5908 38.9578 18.9407C38.1682 18.1887 37.2039 17.8129 36.0761 17.6156C34.9763 17.4232 33.6287 17.3862 32.0061 17.3776Z" fill="#17C653"/>
<path d="M18.5 27.8751C17.8787 27.8751 17.375 28.3788 17.375 29.0001C17.375 29.6214 17.8787 30.1251 18.5 30.1251H39.5C40.1213 30.1251 40.625 29.6214 40.625 29.0001C40.625 28.3788 40.1213 27.8751 39.5 27.8751H18.5Z" fill="#17C653"/>
<path d="M19.6284 33.4915C19.6236 32.8702 19.1161 32.3704 18.4948 32.3752C17.8735 32.3799 17.3737 32.8875 17.3785 33.5088C17.3891 34.8928 17.4292 35.9477 17.6544 36.805C17.9029 37.7509 18.3595 38.4093 19.0422 39.0595C19.8318 39.8115 20.7961 40.1872 21.9239 40.3845C23.0237 40.5769 24.3713 40.614 25.9939 40.6226C26.6152 40.6259 27.1216 40.1249 27.1249 39.5036C27.1281 38.8823 26.6271 38.3759 26.0058 38.3726C24.366 38.3639 23.199 38.3234 22.3116 38.1682C21.4522 38.0178 20.9568 37.7758 20.5939 37.4302C20.1397 36.9976 19.9498 36.6873 19.8306 36.2334C19.6881 35.6909 19.6393 34.9147 19.6284 33.4915Z" fill="#17C653"/>
<path d="M40.6215 33.5088C40.6263 32.8875 40.1265 32.3799 39.5052 32.3752C38.8839 32.3704 38.3764 32.8702 38.3716 33.4915C38.3607 34.9147 38.3119 35.6909 38.1694 36.2334C38.0502 36.6873 37.8603 36.9976 37.4061 37.4302C37.0432 37.7758 36.5478 38.0178 35.6884 38.1682C34.801 38.3234 33.634 38.3639 31.9942 38.3726C31.3729 38.3759 30.8719 38.8823 30.8751 39.5036C30.8784 40.1249 31.3848 40.6259 32.0061 40.6226C33.6287 40.614 34.9763 40.5769 36.0761 40.3845C37.2039 40.1872 38.1682 39.8115 38.9578 39.0595C39.6405 38.4093 40.0971 37.7509 40.3456 36.805C40.5708 35.9477 40.6109 34.8928 40.6215 33.5088Z" fill="#17C653"/>
</svg>
