<svg width="58" height="58" viewBox="0 0 58 58" fill="none" xmlns="http://www.w3.org/2000/svg">
<rect x="0.5" y="0.5" width="57" height="57" rx="11.5" fill="#F3EDFF"/>
<rect x="0.5" y="0.5" width="57" height="57" rx="11.5" stroke="#EDE4FF"/>
<path opacity="0.3" fill-rule="evenodd" clip-rule="evenodd" d="M44.3999 29C44.3999 37.2843 37.6842 44 29.3999 44C21.1156 44 14.3999 37.2843 14.3999 29C14.3999 20.7157 21.1156 14 29.3999 14C37.6842 14 44.3999 20.7157 44.3999 29Z" fill="#7239EA"/>
<path fill-rule="evenodd" clip-rule="evenodd" d="M29.3999 18.875C30.0212 18.875 30.5249 19.3787 30.5249 20V20.4751C32.9705 20.913 35.0249 22.7504 35.0249 25.25C35.0249 25.8713 34.5212 26.375 33.8999 26.375C33.2786 26.375 32.7749 25.8713 32.7749 25.25C32.7749 24.2323 31.9288 23.1551 30.5249 22.7712V27.9751C32.9705 28.413 35.0249 30.2504 35.0249 32.75C35.0249 35.2496 32.9705 37.087 30.5249 37.5249V38C30.5249 38.6213 30.0212 39.125 29.3999 39.125C28.7786 39.125 28.2749 38.6213 28.2749 38V37.5249C25.8293 37.087 23.7749 35.2496 23.7749 32.75C23.7749 32.1287 24.2786 31.625 24.8999 31.625C25.5212 31.625 26.0249 32.1287 26.0249 32.75C26.0249 33.7677 26.871 34.8449 28.2749 35.2288V30.0249C25.8293 29.587 23.7749 27.7496 23.7749 25.25C23.7749 22.7504 25.8293 20.913 28.2749 20.4751V20C28.2749 19.3787 28.7786 18.875 29.3999 18.875ZM28.2749 22.7712C26.871 23.1551 26.0249 24.2323 26.0249 25.25C26.0249 26.2677 26.871 27.3449 28.2749 27.7288V22.7712ZM32.7749 32.75C32.7749 31.7323 31.9288 30.6551 30.5249 30.2712V35.2288C31.9288 34.8449 32.7749 33.7677 32.7749 32.75Z" fill="#7239EA"/>
</svg>
