<svg width="36" height="36" viewBox="0 0 36 36" fill="none" xmlns="http://www.w3.org/2000/svg">
<rect x="0.5" y="0.5" width="35" height="35" rx="17.5" fill="#F9F9F9"/>
<rect x="0.5" y="0.5" width="35" height="35" rx="17.5" stroke="#DBDFE9"/>
<g clip-path="url(#clip0_1200_55104)">
<path opacity="0.1" d="M18 25.9877C16.4202 25.9877 14.8759 25.5192 13.5623 24.6416C12.2488 23.7639 11.225 22.5164 10.6205 21.0569C10.0159 19.5974 9.85773 17.9913 10.1659 16.4419C10.4741 14.8925 11.2349 13.4693 12.3519 12.3522C13.469 11.2351 14.8922 10.4744 16.4417 10.1662C17.9911 9.85798 19.5971 10.0162 21.0566 10.6207C22.5162 11.2253 23.7636 12.249 24.6413 13.5626C25.519 14.8761 25.9875 16.4204 25.9875 18.0002C25.9855 20.118 25.1433 22.1485 23.6458 23.646C22.1483 25.1436 20.1178 25.9857 18 25.9877Z" fill="#78829D"/>
<path d="M20.3625 17.8875C20.0767 17.6882 19.7634 17.5316 19.4325 17.4225C19.17 17.3325 18.8775 17.25 18.57 17.1675V15.1275C18.6673 15.1597 18.7585 15.2078 18.84 15.27C19.0609 15.4671 19.2394 15.7069 19.365 15.975C19.4466 16.1406 19.55 16.2944 19.6725 16.4325C19.7926 16.5304 19.9455 16.5786 20.1 16.5675C20.1963 16.5695 20.2918 16.5504 20.3799 16.5115C20.468 16.4726 20.5466 16.4149 20.61 16.3425C20.7431 16.2004 20.8157 16.0121 20.8125 15.8175C20.8104 15.5923 20.7538 15.371 20.6475 15.1725C20.5234 14.9249 20.3468 14.7074 20.13 14.535C19.8675 14.3154 19.5642 14.1497 19.2375 14.0475C19.0289 13.9683 18.8128 13.9105 18.5925 13.875V13.5C18.5935 13.4255 18.5797 13.3516 18.5519 13.2824C18.524 13.2133 18.4828 13.1504 18.4304 13.0974C18.3781 13.0444 18.3157 13.0023 18.247 12.9735C18.1783 12.9448 18.1045 12.93 18.03 12.93C17.9565 12.929 17.8835 12.9426 17.8153 12.9701C17.7471 12.9975 17.685 13.0382 17.6327 13.0899C17.5804 13.1415 17.5388 13.203 17.5105 13.2709C17.4821 13.3387 17.4675 13.4115 17.4675 13.485V13.875C17.0958 13.9006 16.7297 13.9788 16.38 14.1075C15.9573 14.2712 15.594 14.5588 15.3375 14.9325C15.0993 15.2832 14.9809 15.7015 15 16.125C14.9853 16.5363 15.1037 16.9413 15.3375 17.28C15.5722 17.6082 15.8908 17.8672 16.26 18.03C16.6468 18.1994 17.0485 18.3325 17.46 18.4275V20.91C17.357 20.8877 17.2565 20.855 17.16 20.8125C16.9597 20.7138 16.7871 20.5669 16.6575 20.385C16.5278 20.1833 16.4174 19.9698 16.3275 19.7475C16.2662 19.5641 16.1636 19.3973 16.0275 19.26C15.9077 19.1542 15.7522 19.0979 15.5925 19.1025C15.4963 19.0986 15.4003 19.1152 15.311 19.1515C15.2218 19.1877 15.1413 19.2426 15.075 19.3125C15.0066 19.3768 14.9526 19.4548 14.9164 19.5414C14.8802 19.6279 14.8627 19.7212 14.865 19.815C14.8794 20.1881 14.999 20.5495 15.21 20.8575C15.4232 21.1951 15.7105 21.4798 16.05 21.69C16.4694 21.9193 16.9315 22.0597 17.4075 22.1025V22.47C17.4065 22.5445 17.4203 22.6184 17.4481 22.6876C17.476 22.7567 17.5172 22.8196 17.5696 22.8726C17.6219 22.9256 17.6843 22.9677 17.753 22.9965C17.8217 23.0252 17.8955 23.04 17.97 23.04C18.0435 23.041 18.1165 23.0274 18.1847 22.9999C18.2529 22.9725 18.315 22.9318 18.3673 22.8801C18.4196 22.8285 18.4612 22.767 18.4896 22.6991C18.5179 22.6313 18.5325 22.5585 18.5325 22.485V22.125C18.9368 22.0929 19.3339 21.9993 19.71 21.8475C20.1552 21.6575 20.5357 21.3422 20.805 20.94C21.0546 20.5509 21.185 20.0973 21.18 19.635C21.208 19.2731 21.1461 18.9098 21 18.5775C20.8487 18.2977 20.6295 18.0604 20.3625 17.8875ZM17.43 16.875C17.2699 16.8229 17.1144 16.7577 16.965 16.68C16.8281 16.6023 16.7062 16.5007 16.605 16.38C16.528 16.2512 16.4915 16.1023 16.5 15.9525C16.5033 15.8192 16.5401 15.689 16.6069 15.5736C16.6738 15.4583 16.7685 15.3616 16.8825 15.2925C17.064 15.1752 17.2686 15.0984 17.4825 15.0675V16.8675L17.43 16.875ZM19.1325 20.625C18.9536 20.7496 18.7525 20.8387 18.54 20.8875V18.72L18.6975 18.765C18.9326 18.8371 19.1464 18.9659 19.32 19.14C19.4028 19.2252 19.4674 19.3263 19.5099 19.4371C19.5524 19.548 19.572 19.6663 19.5675 19.785C19.5689 19.9498 19.5299 20.1125 19.4541 20.2589C19.3783 20.4053 19.2679 20.531 19.1325 20.625ZM18 9.9375C16.4054 9.9375 14.8466 10.4104 13.5207 11.2963C12.1948 12.1822 11.1615 13.4414 10.5512 14.9146C9.94099 16.3878 9.78133 18.0089 10.0924 19.5729C10.4035 21.1369 11.1714 22.5735 12.299 23.701C13.4265 24.8286 14.8631 25.5965 16.4271 25.9076C17.9911 26.2187 19.6122 26.059 21.0854 25.4488C22.5586 24.8385 23.8178 23.8052 24.7037 22.4793C25.5896 21.1534 26.0625 19.5946 26.0625 18C26.0605 15.8623 25.2104 13.8127 23.6989 12.3011C22.1873 10.7896 20.1377 9.93949 18 9.9375ZM18 24.9375C16.6279 24.9375 15.2866 24.5306 14.1457 23.7683C13.0049 23.006 12.1157 21.9225 11.5906 20.6549C11.0655 19.3872 10.9281 17.9923 11.1958 16.6466C11.4635 15.3008 12.1242 14.0647 13.0945 13.0944C14.0647 12.1242 15.3008 11.4635 16.6466 11.1958C17.9923 10.9281 19.3872 11.0655 20.6549 11.5906C21.9225 12.1157 23.006 13.0049 23.7683 14.1457C24.5306 15.2866 24.9375 16.6279 24.9375 18C24.9355 19.8393 24.204 21.6028 22.9034 22.9034C21.6028 24.204 19.8393 24.9355 18 24.9375Z" fill="#78829D"/>
</g>
<defs>
<clipPath id="clip0_1200_55104">
<rect width="18" height="18" fill="white" transform="translate(9 9)"/>
</clipPath>
</defs>
</svg>
