<svg width="17" height="19" viewBox="0 0 17 19" fill="none" xmlns="http://www.w3.org/2000/svg">
<path d="M16.8037 15.4144L13.0391 14.9853L11.5282 18.4614L8.00159 12.3529L13.2771 9.30591L16.8037 15.4144Z" fill="url(#paint0_linear_3353_29432)"/>
<path d="M8.78419 11.9021L12.4947 9.75659L15.1271 14.3145L12.4767 14.0116L11.4129 16.4601L8.78419 11.9021Z" fill="url(#paint1_linear_3353_29432)"/>
<path d="M6.10352e-05 15.4144L3.76467 14.9853L5.27557 18.4614L8.80218 12.3529L3.52668 9.30591L6.10352e-05 15.4144Z" fill="url(#paint2_linear_3353_29432)"/>
<path d="M8.0197 11.9021L4.30918 9.75659L1.67683 14.3145L4.32721 14.0116L5.38736 16.4601L8.0197 11.9021Z" fill="url(#paint3_linear_3353_29432)"/>
<path d="M9.15553 0.348876C9.43679 0.684229 9.90917 0.792408 10.313 0.61211C10.8684 0.363299 11.5174 0.673411 11.6689 1.26479C11.7771 1.69029 12.1557 1.99319 12.5956 2.00401C13.205 2.01843 13.6558 2.58096 13.5332 3.17955C13.4466 3.60865 13.6558 4.04858 14.0488 4.24691C14.5933 4.52457 14.752 5.22773 14.3842 5.71453C14.1173 6.06431 14.1173 6.5475 14.3842 6.90089C14.752 7.38769 14.5933 8.08724 14.0488 8.36851C13.6558 8.57044 13.4466 9.00676 13.5332 9.43587C13.6521 10.0345 13.205 10.597 12.5956 10.6114C12.1557 10.6222 11.7771 10.9251 11.6689 11.3506C11.5174 11.942 10.8684 12.2521 10.313 12.0033C9.91278 11.823 9.4404 11.9312 9.15553 12.2665C8.76248 12.7353 8.0449 12.7353 7.65185 12.2665C7.37059 11.9312 6.89821 11.823 6.49434 12.0033C5.93902 12.2557 5.28995 11.942 5.1385 11.3506C5.03032 10.9251 4.6517 10.6222 4.21177 10.6114C3.60237 10.597 3.15163 10.0345 3.27423 9.43587C3.36077 9.00676 3.15163 8.56684 2.75858 8.36851C2.21408 8.09085 2.05542 7.38769 2.42322 6.90089C2.68646 6.55111 2.68646 6.06791 2.42322 5.71453C2.05542 5.22773 2.21408 4.52817 2.75858 4.24691C3.14802 4.04497 3.36077 3.60865 3.27423 3.17955C3.15523 2.58096 3.60237 2.01843 4.21177 2.00401C4.6517 1.99319 5.03032 1.69029 5.1385 1.26479C5.28995 0.673411 5.93902 0.363299 6.49434 0.61211C6.8946 0.792408 7.36698 0.684229 7.65185 0.348876C8.04129 -0.116292 8.76248 -0.116292 9.15553 0.348876Z" fill="url(#paint4_linear_3353_29432)"/>
<path d="M8.40188 10.9068C10.9411 10.9068 12.9995 8.84843 12.9995 6.30926C12.9995 3.77008 10.9411 1.71167 8.40188 1.71167C5.8627 1.71167 3.80429 3.77008 3.80429 6.30926C3.80429 8.84843 5.8627 10.9068 8.40188 10.9068Z" fill="url(#paint5_linear_3353_29432)"/>
<path d="M8.98252 3.96535L9.5162 4.98583L10.6521 5.18055C11.1749 5.2707 11.3805 5.90896 11.0127 6.28758L10.2085 7.10974L10.3744 8.24922C10.4501 8.77208 9.90925 9.16873 9.43327 8.93435L8.40196 8.4223L7.37066 8.93435C6.89468 9.16873 6.35379 8.77569 6.42951 8.24922L6.59538 7.10974L5.79126 6.28758C5.41984 5.90896 5.62899 5.2707 6.15185 5.18055L7.28773 4.98583L7.82141 3.96535C8.06661 3.49658 8.73732 3.49658 8.98252 3.96535Z" fill="url(#paint6_linear_3353_29432)"/>
<defs>
<linearGradient id="paint0_linear_3353_29432" x1="10.9062" y1="11.2961" x2="14.6494" y2="17.7769" gradientUnits="userSpaceOnUse">
<stop stop-color="#DE5709"/>
<stop offset="0.8" stop-color="#FDAC33"/>
</linearGradient>
<linearGradient id="paint1_linear_3353_29432" x1="10.8488" y1="11.1966" x2="13.642" y2="16.0325" gradientUnits="userSpaceOnUse">
<stop stop-color="#FF9900"/>
<stop offset="1" stop-color="#FCD34F"/>
</linearGradient>
<linearGradient id="paint2_linear_3353_29432" x1="5.97454" y1="11.163" x2="2.2717" y2="17.573" gradientUnits="userSpaceOnUse">
<stop stop-color="#DE5709"/>
<stop offset="0.8" stop-color="#FDAC33"/>
</linearGradient>
<linearGradient id="paint3_linear_3353_29432" x1="6.03141" y1="11.0646" x2="3.26837" y2="15.8477" gradientUnits="userSpaceOnUse">
<stop stop-color="#FF9900"/>
<stop offset="1" stop-color="#FCD34F"/>
</linearGradient>
<linearGradient id="paint4_linear_3353_29432" x1="8.40171" y1="11.8144" x2="8.40171" y2="-1.49016" gradientUnits="userSpaceOnUse">
<stop stop-color="#FF9900"/>
<stop offset="0.11" stop-color="#FFA200"/>
<stop offset="0.37" stop-color="#FFB300"/>
<stop offset="0.65" stop-color="#FFBD00"/>
<stop offset="1" stop-color="#FFC100"/>
</linearGradient>
<linearGradient id="paint5_linear_3353_29432" x1="8.40188" y1="10.9068" x2="8.40188" y2="1.71167" gradientUnits="userSpaceOnUse">
<stop stop-color="#FFE187"/>
<stop offset="1" stop-color="#FFF8E0"/>
</linearGradient>
<linearGradient id="paint6_linear_3353_29432" x1="8.40128" y1="9.00383" x2="8.40128" y2="3.61467" gradientUnits="userSpaceOnUse">
<stop stop-color="#FD7600"/>
<stop offset="0.71" stop-color="#FDBF30"/>
</linearGradient>
</defs>
</svg>
