<svg width="20" height="20" viewBox="0 0 20 20" fill="none" xmlns="http://www.w3.org/2000/svg">
<path d="M11.6667 5C14.8094 5 16.3809 5.00026 17.3572 5.97656C17.561 6.18044 17.7227 6.41014 17.8503 6.6748C17.8024 6.69117 17.7551 6.71432 17.7107 6.74316C15.9605 7.88077 14.8607 8.59237 13.947 9.04883C13.8917 8.76038 13.6383 8.54219 13.3337 8.54199C12.9886 8.54199 12.7087 8.82181 12.7087 9.16699V9.54883C10.9426 10.0818 9.0579 10.0818 7.29175 9.54883V9.16699C7.29175 8.82185 7.01188 8.54204 6.66675 8.54199C6.36208 8.54199 6.10786 8.76031 6.05249 9.04883C5.1389 8.59238 4.03959 7.88053 2.28979 6.74316C2.24535 6.71427 2.19813 6.69118 2.15015 6.6748C2.27775 6.4102 2.43947 6.1804 2.64331 5.97656C3.61964 5.00045 5.19126 5 8.33374 5H11.6667ZM9.99976 1.04199C11.3613 1.04199 12.5182 1.91225 12.947 3.125C13.062 3.45037 12.8915 3.80774 12.5662 3.92285C12.2407 4.03788 11.8834 3.86741 11.7683 3.54199C11.5106 2.8129 10.8152 2.29199 9.99976 2.29199C9.18441 2.29206 8.48888 2.81295 8.2312 3.54199C8.11616 3.86722 7.75963 4.0376 7.43433 3.92285C7.10888 3.80782 6.93746 3.45045 7.05249 3.125C7.48123 1.91225 8.63827 1.04206 9.99976 1.04199Z" fill="#1F6FEB"/>
<path opacity="0.3" d="M1.66669 11.6663C1.66669 10.0409 1.66669 8.83583 1.80175 7.91602C3.69899 9.14923 4.915 9.93571 6.04169 10.4201V10.8329C6.04169 11.1781 6.32151 11.4579 6.66669 11.4579C7.00729 11.4579 7.28426 11.1855 7.29154 10.8466C9.06677 11.3147 10.9333 11.3147 12.7085 10.8467C12.7158 11.1855 12.9928 11.4579 13.3334 11.4579C13.6785 11.4579 13.9584 11.1781 13.9584 10.8329V10.4202C15.0851 9.93586 16.3011 9.1494 18.1983 7.91618C18.3334 8.83597 18.3334 10.041 18.3334 11.6663C18.3334 14.809 18.3334 16.3803 17.357 17.3566C16.3807 18.3329 14.8094 18.3329 11.6667 18.3329H8.33335C5.19066 18.3329 3.61931 18.3329 2.643 17.3566C1.66669 16.3803 1.66669 14.809 1.66669 11.6663Z" fill="#1F6FEB"/>
</svg>
