<svg width="36" height="36" viewBox="0 0 36 36" fill="none" xmlns="http://www.w3.org/2000/svg">
<rect x="0.5" y="0.5" width="35" height="35" rx="17.5" fill="#F9F9F9"/>
<rect x="0.5" y="0.5" width="35" height="35" rx="17.5" stroke="#DBDFE9"/>
<path opacity="0.1" d="M15.9924 17.9999C19.1124 17.9999 21.5881 19.7106 21.5881 21.9003C21.5879 24.0899 19.1123 25.7997 15.9924 25.7997C12.8726 25.7997 10.4252 24.0899 10.425 21.9003C10.425 19.7105 12.8724 17.9999 15.9924 17.9999ZM21.4641 18.3749C23.8267 18.375 25.679 19.6895 25.679 21.37C25.6788 22.7919 24.3289 23.9909 22.3899 24.2997H22.304C22.1762 24.2996 22.0526 24.2545 21.9553 24.1718C21.7651 24.0098 21.8132 23.7242 21.8674 23.4803C22.1934 22.0164 21.9246 20.476 21.1106 19.204L20.925 18.9139C20.925 18.7711 20.9822 18.6341 21.0833 18.5331C21.1843 18.4321 21.3213 18.3749 21.4641 18.3749ZM21.2346 11.6405C22.0151 11.6233 22.7712 11.9172 23.3352 12.4569C23.8991 12.9966 24.2252 13.7381 24.2424 14.5184C24.2596 15.2987 23.9665 16.054 23.427 16.618C22.8873 17.1821 22.145 17.509 21.3645 17.5262L21.2786 17.5194C21.1418 17.5306 21.0042 17.5306 20.8674 17.5194C20.7969 17.5097 20.7286 17.4861 20.6672 17.4501C20.6057 17.414 20.5519 17.3654 20.509 17.3085C20.4662 17.2516 20.435 17.187 20.4172 17.118C20.3995 17.049 20.3954 16.9767 20.4055 16.9061L20.4475 16.7841C20.9152 15.4378 21.0288 13.996 20.7795 12.5975C20.73 12.3197 20.6532 11.9983 20.8528 11.7987C20.9541 11.6976 21.0915 11.6406 21.2346 11.6405ZM15.9377 10.2001C16.4055 10.2001 16.8689 10.2925 17.301 10.4716C17.733 10.6505 18.1256 10.9125 18.4563 11.243C18.7871 11.5738 19.0497 11.9671 19.2288 12.3993C19.4078 12.8315 19.5002 13.2947 19.5002 13.7626C19.5002 14.4672 19.2911 15.1562 18.8997 15.7421C18.5083 16.3277 17.9518 16.784 17.301 17.0536C16.6501 17.3232 15.9335 17.3942 15.2424 17.2567C14.5515 17.1192 13.9164 16.7803 13.4182 16.2821C12.9201 15.784 12.5811 15.1488 12.4436 14.4579C12.3061 13.7668 12.3771 13.0503 12.6467 12.3993C12.9163 11.7485 13.3725 11.1921 13.9583 10.8007C14.5441 10.4092 15.2331 10.2001 15.9377 10.2001Z" fill="#78829D"/>
<path d="M15.9622 17.9492C19.1325 17.9492 21.6487 19.687 21.6487 21.9121C21.6486 24.1371 19.1325 25.875 15.9622 25.875C12.7918 25.875 10.305 24.1371 10.3049 21.9121C10.3049 19.687 12.7918 17.9492 15.9622 17.9492ZM15.9622 19.04C13.4826 19.04 11.3958 20.356 11.3958 21.9121C11.3958 23.4682 13.4826 24.7842 15.9622 24.7842C18.4344 24.7842 20.5217 23.4682 20.5217 21.9121C20.5217 20.356 18.4417 19.04 15.9622 19.04ZM21.4377 18.3496C23.83 18.3497 25.7063 19.6804 25.7063 21.3818C25.706 22.8214 24.3383 24.035 22.3752 24.3477H22.2883C22.1589 24.3476 22.0334 24.3017 21.9348 24.2178C21.8364 24.1339 21.7709 24.0173 21.7502 23.8896C21.7292 23.7473 21.7648 23.602 21.8489 23.4854C21.9331 23.3688 22.0598 23.2896 22.2014 23.2646C23.6044 23.0465 24.6151 22.2542 24.6155 21.3818C24.6155 20.3275 23.161 19.4395 21.4377 19.4395C21.2932 19.4395 21.1543 19.3825 21.052 19.2803C20.9497 19.178 20.8918 19.0392 20.8918 18.8945C20.8918 18.7499 20.9497 18.6111 21.052 18.5088C21.1543 18.4066 21.2932 18.3496 21.4377 18.3496ZM21.2483 11.6162C22.0351 11.5989 22.7968 11.8944 23.3655 12.4385C23.9341 12.9826 24.2632 13.7307 24.2805 14.5176C24.2978 15.3041 24.0021 16.0653 23.4583 16.6338C22.9141 17.2024 22.166 17.5324 21.3792 17.5498L21.2922 17.542C21.1543 17.5533 21.0151 17.5533 20.8772 17.542C20.8061 17.5321 20.7379 17.508 20.676 17.4717C20.6142 17.4353 20.56 17.3874 20.5168 17.3301C20.4737 17.2727 20.442 17.2072 20.4241 17.1377C20.4062 17.068 20.4021 16.995 20.4124 16.9238C20.4357 16.7817 20.5131 16.654 20.6282 16.5674C20.7433 16.4808 20.8874 16.4421 21.0305 16.459C21.1321 16.4665 21.2346 16.4665 21.3362 16.459C21.5823 16.4532 21.8248 16.3983 22.05 16.2988C22.2755 16.1993 22.4795 16.0562 22.6497 15.8779C22.8197 15.6997 22.9533 15.4895 23.0422 15.2598C23.1311 15.0301 23.1739 14.7852 23.1682 14.5391C23.1625 14.2927 23.1086 14.0496 23.009 13.8242C22.9095 13.5989 22.7662 13.3957 22.5881 13.2256C22.41 13.0555 22.1997 12.922 21.97 12.833C21.7402 12.744 21.4947 12.7013 21.2483 12.707C21.1037 12.707 20.9648 12.6491 20.8625 12.5469C20.7604 12.4446 20.7034 12.3057 20.7034 12.1611C20.7034 12.0166 20.7603 11.8776 20.8625 11.7754C20.9648 11.6732 21.1037 11.6163 21.2483 11.6162ZM15.9622 10.125C16.4396 10.125 16.9127 10.2187 17.3538 10.4014C17.7948 10.5841 18.1959 10.8519 18.5334 11.1895C18.871 11.527 19.1388 11.9281 19.3215 12.3691C19.5042 12.8102 19.5979 13.2833 19.5979 13.7607C19.5979 14.4796 19.3849 15.1825 18.9856 15.7803C18.5861 16.3781 18.0181 16.8449 17.3538 17.1201C16.6895 17.3953 15.9584 17.4664 15.2532 17.3262C14.5479 17.1859 13.8993 16.8405 13.3909 16.332C12.8824 15.8236 12.537 15.175 12.3967 14.4697C12.2565 13.7645 12.3276 13.0334 12.6028 12.3691C12.878 11.7048 13.3448 11.1368 13.9426 10.7373C14.5404 10.338 15.2433 10.125 15.9622 10.125ZM16.9817 11.3145C16.5042 11.1159 15.9783 11.0633 15.4709 11.1631C14.9637 11.263 14.4977 11.5114 14.1311 11.876C13.7645 12.2406 13.514 12.7052 13.4114 13.2119C13.3087 13.7187 13.3581 14.2451 13.554 14.7236C13.7499 15.2021 14.0835 15.612 14.512 15.9014C14.9405 16.1907 15.4451 16.3467 15.9622 16.3496C16.6577 16.3496 17.3254 16.0744 17.8186 15.584C18.3118 15.0935 18.5902 14.427 18.594 13.7314C18.5939 13.2146 18.4413 12.7093 18.1545 12.2793C17.8675 11.8491 17.4592 11.513 16.9817 11.3145Z" fill="#78829D"/>
</svg>
