<svg width="26" height="26" viewBox="0 0 26 26" fill="none" xmlns="http://www.w3.org/2000/svg">
<path fill-rule="evenodd" clip-rule="evenodd" d="M14.5049 14.541L10.4832 10.5193L2.93431 18.0682C2.8446 18.1579 2.81517 18.2919 2.8591 18.4105C2.90343 18.5294 3.01247 18.6118 3.13857 18.6224L4.70613 18.744L6.7482 18.2848L6.28466 20.3136L6.40313 21.8834C6.41337 22.0091 6.49528 22.1195 6.61511 22.1629C6.73405 22.2073 6.86805 22.1778 6.95776 22.0881L14.5049 14.541Z" fill="url(#paint0_linear_3065_215899)"/>
<path fill-rule="evenodd" clip-rule="evenodd" d="M11.4973 14.5439L15.519 10.5222L23.5671 18.5703L21.2961 18.7469L19.4308 18.4645L19.7176 20.3166L19.5991 21.8864C19.5888 22.0121 19.5069 22.1224 19.3871 22.1659C19.2682 22.2102 19.1342 22.1808 19.0445 22.091L11.4973 14.5439Z" fill="url(#paint1_linear_3065_215899)"/>
<path fill-rule="evenodd" clip-rule="evenodd" d="M4.57537 19.3033L11.5691 12.2998L13.1421 13.8706L6.14836 20.8741L6.05205 19.4066L4.57537 19.3033Z" fill="url(#paint2_linear_3065_215899)"/>
<path fill-rule="evenodd" clip-rule="evenodd" d="M21.3134 18.7119L14.3198 11.7183L12.7468 13.2913L19.7404 20.2849L19.8368 18.8173L21.3134 18.7119Z" fill="url(#paint3_linear_3065_215899)"/>
<path fill-rule="evenodd" clip-rule="evenodd" d="M9.90671 4.97047C10.0556 5.0107 10.2136 5.00043 10.356 4.94127C10.4984 4.8821 10.6172 4.77738 10.6937 4.6435C11.1611 3.93183 12.029 3.43286 13.0038 3.43286C13.9786 3.43286 14.8465 3.93182 15.3133 4.6441C15.4713 4.91881 15.7946 5.05252 16.1009 4.96987C16.9347 4.79666 17.9011 5.05738 18.5902 5.74717C19.28 6.43636 19.5408 7.40269 19.367 8.23652C19.3267 8.3854 19.337 8.54341 19.3962 8.68582C19.4553 8.82824 19.56 8.94702 19.6939 9.02356C20.4056 9.49092 20.9046 10.3588 20.9046 11.3336C20.9046 12.3084 20.4056 13.1763 19.6933 13.6431C19.5598 13.72 19.4554 13.839 19.3965 13.9815C19.3376 14.1239 19.3274 14.2819 19.3676 14.4307C19.5408 15.2645 19.28 16.2309 18.5902 16.9201C17.9011 17.6098 16.9347 17.8706 16.1009 17.6968C15.952 17.6565 15.794 17.6668 15.6516 17.726C15.5092 17.7851 15.3904 17.8898 15.3139 18.0237C14.8465 18.7354 13.9786 19.2344 13.0038 19.2344C12.029 19.2344 11.1611 18.7354 10.6944 18.0231C10.6174 17.8896 10.4984 17.7852 10.3559 17.7263C10.2135 17.6674 10.0555 17.6572 9.90671 17.6974C9.07288 17.8706 8.10656 17.6098 7.41737 16.9201C6.72757 16.2309 6.46685 15.2645 6.64066 14.4307C6.6809 14.2818 6.67063 14.1238 6.61146 13.9814C6.5523 13.839 6.44758 13.7202 6.31369 13.6437C5.60202 13.1763 5.10306 12.3084 5.10306 11.3336C5.10306 10.3588 5.60202 9.49091 6.3143 9.02416C6.44786 8.94718 6.55223 8.8282 6.61114 8.68574C6.67006 8.54329 6.68023 8.38535 6.64006 8.23652C6.46685 7.40269 6.72757 6.43636 7.41737 5.74717C8.10656 5.05738 9.07288 4.79665 9.90671 4.97047Z" fill="url(#paint4_linear_3065_215899)"/>
<path d="M12.9916 17.4477C16.3771 17.4477 19.1215 14.7033 19.1215 11.3179C19.1215 7.93242 16.3771 5.18799 12.9916 5.18799C9.60619 5.18799 6.86176 7.93242 6.86176 11.3179C6.86176 14.7033 9.60619 17.4477 12.9916 17.4477Z" fill="url(#paint5_linear_3065_215899)"/>
<path d="M13.0274 16.595C15.9155 16.595 18.2569 14.2537 18.2569 11.3655C18.2569 8.47732 15.9155 6.13599 13.0274 6.13599C10.1392 6.13599 7.79785 8.47732 7.79785 11.3655C7.79785 14.2537 10.1392 16.595 13.0274 16.595Z" fill="url(#paint6_radial_3065_215899)"/>
<path fill-rule="evenodd" clip-rule="evenodd" d="M12.7104 8.29026C12.7357 8.23237 12.7773 8.1831 12.8301 8.14849C12.8829 8.11389 12.9447 8.09546 13.0079 8.09546C13.071 8.09546 13.1328 8.11389 13.1856 8.14849C13.2385 8.1831 13.2801 8.23237 13.3053 8.29026L14.0078 9.88042L15.7368 10.0567C15.7996 10.063 15.8592 10.0874 15.9083 10.127C15.9574 10.1665 15.9939 10.2195 16.0135 10.2795C16.033 10.3395 16.0346 10.4039 16.0182 10.4648C16.0017 10.5256 15.9679 10.5804 15.9209 10.6225L14.6256 11.7821L14.9922 13.4814C15.0055 13.5431 15.0007 13.6073 14.9782 13.6662C14.9556 13.7251 14.9165 13.7762 14.8654 13.8132C14.8144 13.8503 14.7537 13.8717 14.6907 13.8748C14.6277 13.8779 14.5651 13.8627 14.5107 13.8309L13.0079 12.9573L11.5051 13.8309C11.4506 13.8629 11.388 13.8784 11.3249 13.8754C11.2618 13.8723 11.201 13.851 11.1498 13.8139C11.0987 13.7768 11.0595 13.7255 11.0371 13.6665C11.0147 13.6074 11.01 13.5431 11.0235 13.4814L11.3901 11.7821L10.0948 10.6225C10.0482 10.5802 10.0149 10.5254 9.99869 10.4647C9.98253 10.4039 9.98428 10.3398 10.0037 10.28C10.0232 10.2202 10.0595 10.1673 10.1083 10.1277C10.1572 10.0881 10.2164 10.0634 10.2789 10.0567L12.0079 9.88042L12.7104 8.29026Z" fill="url(#paint7_linear_3065_215899)"/>
<defs>
<linearGradient id="paint0_linear_3065_215899" x1="10.1465" y1="14.8777" x2="5.75076" y2="19.2734" gradientUnits="userSpaceOnUse">
<stop stop-color="#0053C0"/>
<stop offset="1" stop-color="#318AFF"/>
</linearGradient>
<linearGradient id="paint1_linear_3065_215899" x1="15.8557" y1="14.8806" x2="20.2515" y2="19.2764" gradientUnits="userSpaceOnUse">
<stop stop-color="#0053C0"/>
<stop offset="1" stop-color="#318AFF"/>
</linearGradient>
<linearGradient id="paint2_linear_3065_215899" x1="9.4256" y1="16.0217" x2="5.3459" y2="20.1071" gradientUnits="userSpaceOnUse">
<stop stop-color="#BAD3E8"/>
<stop offset="1" stop-color="#E4EAEF"/>
</linearGradient>
<linearGradient id="paint3_linear_3065_215899" x1="16.4633" y1="15.4371" x2="20.5429" y2="19.5167" gradientUnits="userSpaceOnUse">
<stop stop-color="#BAD3E8"/>
<stop offset="1" stop-color="#E4EAEF"/>
</linearGradient>
<linearGradient id="paint4_linear_3065_215899" x1="16.0557" y1="3.93763" x2="9.90524" y2="18.2697" gradientUnits="userSpaceOnUse">
<stop stop-color="#636363"/>
<stop offset="0.5" stop-color="#DFDFDF"/>
<stop offset="1" stop-color="#636363"/>
</linearGradient>
<linearGradient id="paint5_linear_3065_215899" x1="8.68985" y1="6.08487" x2="15.6725" y2="16.5534" gradientUnits="userSpaceOnUse">
<stop stop-color="#636363"/>
<stop offset="0.5" stop-color="#DFDFDF"/>
<stop offset="1" stop-color="#636363"/>
</linearGradient>
<radialGradient id="paint6_radial_3065_215899" cx="0" cy="0" r="1" gradientUnits="userSpaceOnUse" gradientTransform="translate(10.6906 6.18156) rotate(64.475) scale(12.3455)">
<stop stop-color="#A1A1A1"/>
<stop offset="1" stop-color="#454545"/>
</radialGradient>
<linearGradient id="paint7_linear_3065_215899" x1="17.4367" y1="6.04777" x2="9.5779" y2="16.7525" gradientUnits="userSpaceOnUse">
<stop stop-color="#636363"/>
<stop offset="0.5" stop-color="#DFDFDF"/>
<stop offset="1" stop-color="#636363"/>
</linearGradient>
</defs>
</svg>
