<svg width="36" height="36" viewBox="0 0 36 36" fill="none" xmlns="http://www.w3.org/2000/svg">
<rect x="0.5" y="0.5" width="35" height="35" rx="17.5" fill="#F9F9F9"/>
<rect x="0.5" y="0.5" width="35" height="35" rx="17.5" stroke="#DBDFE9"/>
<path opacity="0.1" d="M23.9198 17.4206V12.9256C23.9178 12.1537 23.6104 11.414 23.0646 10.8683C22.5188 10.3225 21.7791 10.015 21.0073 10.013H15.0039C14.6168 10.0061 14.2321 10.0763 13.8723 10.2195C13.5125 10.3627 13.1847 10.576 12.9082 10.8471C12.6316 11.1181 12.4117 11.4414 12.2613 11.7983C12.1108 12.1551 12.0329 12.5383 12.032 12.9256V17.3835C11.6083 17.6567 11.2598 18.0317 11.0184 18.4743C10.7769 18.9169 10.6503 19.4129 10.65 19.9171V22.4581C10.6549 22.9271 10.7522 23.3905 10.9364 23.8218C11.1206 24.2531 11.388 24.6439 11.7234 24.9717C12.0588 25.2995 12.4556 25.558 12.891 25.7322C13.3265 25.9065 13.792 25.9932 14.2609 25.9873H21.6908C22.6329 25.9913 23.5382 25.6224 24.2092 24.9611C24.8801 24.2999 25.2622 23.4001 25.272 22.4581V19.9468C25.2737 19.4466 25.1511 18.9539 24.915 18.5129C24.679 18.0719 24.337 17.6966 23.9198 17.4206Z" fill="#78829D"/>
<path d="M24 17.415V12.8775C23.998 12.0984 23.6876 11.3517 23.1367 10.8008C22.5858 10.2498 21.8391 9.93946 21.06 9.93748H15C14.6091 9.93052 14.2208 10.0014 13.8576 10.1459C13.4944 10.2904 13.1636 10.5058 12.8844 10.7794C12.6052 11.053 12.3833 11.3794 12.2314 11.7396C12.0796 12.0998 12.0009 12.4866 12 12.8775V17.3775C11.5723 17.6532 11.2205 18.0318 10.9768 18.4786C10.7331 18.9253 10.6053 19.4261 10.605 19.935V22.5C10.6099 22.9734 10.7081 23.4412 10.894 23.8766C11.08 24.312 11.3499 24.7064 11.6885 25.0373C12.0271 25.3682 12.4276 25.6291 12.8671 25.805C13.3067 25.9809 13.7766 26.0684 14.25 26.0625H21.75C22.7009 26.0665 23.6148 25.6941 24.2921 25.0266C24.9694 24.3592 25.3551 23.4508 25.365 22.5V19.965C25.3667 19.4601 25.2429 18.9627 25.0046 18.5176C24.7663 18.0724 24.4211 17.6935 24 17.415ZM13.155 12.8775C13.156 12.6369 13.2046 12.3988 13.298 12.1771C13.3914 11.9554 13.5278 11.7544 13.6994 11.5856C13.8709 11.4169 14.0741 11.2838 14.2974 11.194C14.5206 11.1042 14.7594 11.0595 15 11.0625H21.075C21.5557 11.0645 22.0162 11.2563 22.3562 11.5963C22.6961 11.9362 22.888 12.3967 22.89 12.8775V16.965C22.7093 16.9323 22.5261 16.9147 22.3425 16.9125H21.72C21.2657 16.9062 20.8156 17.0005 20.402 17.1885C19.9884 17.3765 19.6215 17.6536 19.3275 18L19.11 18.2625C18.9732 18.4256 18.8022 18.5565 18.609 18.646C18.4159 18.7354 18.2053 18.7812 17.9925 18.78C17.7809 18.7801 17.5718 18.7338 17.3801 18.6444C17.1883 18.555 17.0184 18.4246 16.8825 18.2625L16.6575 17.9925C16.3674 17.6486 16.0057 17.3724 15.5975 17.1833C15.1894 16.9941 14.7448 16.8966 14.295 16.8975H13.6875C13.5088 16.8997 13.3307 16.9173 13.155 16.95V12.8775ZM24.24 22.5C24.2321 23.1531 23.9655 23.7764 23.4988 24.2334C23.032 24.6903 22.4031 24.9435 21.75 24.9375H14.25C13.5968 24.9435 12.968 24.6903 12.5012 24.2334C12.0344 23.7764 11.7679 23.1531 11.76 22.5V19.965C11.76 19.7119 11.8098 19.4612 11.9067 19.2274C12.0036 18.9935 12.1455 18.781 12.3245 18.602C12.5035 18.423 12.716 18.2811 12.9499 18.1842C13.1837 18.0873 13.4344 18.0375 13.6875 18.0375H14.295C14.5807 18.0377 14.8629 18.1002 15.122 18.2207C15.381 18.3412 15.6107 18.5167 15.795 18.735L16.02 19.005C16.2638 19.2921 16.5673 19.5226 16.9092 19.6806C17.2511 19.8386 17.6233 19.9203 18 19.92C18.3773 19.9199 18.7501 19.8373 19.0921 19.6779C19.4341 19.5186 19.7372 19.2863 19.98 18.9975L20.1975 18.735C20.3818 18.5167 20.6114 18.3412 20.8705 18.2207C21.1296 18.1002 21.4118 18.0377 21.6975 18.0375H22.32C22.8312 18.0375 23.3215 18.2406 23.6829 18.602C24.0444 18.9635 24.2475 19.4538 24.2475 19.965L24.24 22.5ZM15.75 13.815C15.7519 13.6664 15.8118 13.5245 15.9169 13.4194C16.022 13.3143 16.1639 13.2544 16.3125 13.2525H19.6875C19.8367 13.2525 19.9797 13.3117 20.0852 13.4172C20.1907 13.5227 20.25 13.6658 20.25 13.815C20.25 13.9642 20.1907 14.1072 20.0852 14.2127C19.9797 14.3182 19.8367 14.3775 19.6875 14.3775H16.3125C16.1639 14.3755 16.022 14.3156 15.9169 14.2106C15.8118 14.1055 15.7519 13.9636 15.75 13.815ZM19.5 15.9075C19.5 16.0567 19.4407 16.1997 19.3352 16.3052C19.2297 16.4107 19.0867 16.47 18.9375 16.47H16.9875C16.8383 16.47 16.6952 16.4107 16.5897 16.3052C16.4842 16.1997 16.425 16.0567 16.425 15.9075C16.425 15.7583 16.4842 15.6152 16.5897 15.5097C16.6952 15.4042 16.8383 15.345 16.9875 15.345H18.9225C18.9976 15.343 19.0724 15.356 19.1423 15.3834C19.2123 15.4108 19.2761 15.4519 19.33 15.5043C19.3838 15.5568 19.4266 15.6195 19.4558 15.6887C19.485 15.7579 19.5 15.8323 19.5 15.9075Z" fill="#78829D"/>
</svg>
