<svg width="1230" height="308" viewBox="0 0 1230 308" fill="none" xmlns="http://www.w3.org/2000/svg">
<mask id="mask0_1219_90944" style="mask-type:luminance" maskUnits="userSpaceOnUse" x="0" y="0" width="1230" height="308">
<path d="M0 0H1229.65V307.413H0V0Z" fill="url(#paint0_radial_1219_90944)"/>
</mask>
<g mask="url(#mask0_1219_90944)">
<path d="M151.08 0L168.915 10.2967V30.8917L151.08 41.1875L133.245 30.8917V10.2967L151.08 0ZM186.913 0L204.748 10.2967V30.8917L186.913 41.1875L169.078 30.8917V10.2967L186.913 0Z" stroke="#DDDDDD" stroke-width="0.296556"/>
<path d="M222.747 0L240.582 10.2967V30.8917L222.747 41.1883L204.912 30.8917V10.2967L222.747 0Z" fill="#DDDDDD" fill-opacity="0.74902" stroke="#DDDDDD" stroke-width="0.296556"/>
<path d="M258.58 0L276.415 10.2967V30.8917L258.58 41.1883L240.745 30.8917V10.2967L258.58 0ZM294.413 0L312.248 10.2967V30.8917L294.413 41.1883L276.578 30.8917V10.2967L294.413 0ZM437.746 0L455.581 10.2967V30.8917L437.746 41.1883L419.911 30.8917V10.2967L437.746 0ZM545.246 0L563.081 10.2967V30.8917L545.246 41.1883L527.411 30.8917V10.2967L545.246 0ZM581.08 0L598.915 10.2967V30.8917L581.08 41.1883L563.245 30.8917V10.2967L581.08 0Z" stroke="#DDDDDD" stroke-width="0.296556"/>
<path d="M652.747 0L670.582 10.2967V30.8917L652.747 41.1883L634.912 30.8917V10.2967L652.747 0Z" fill="#DDDDDD" fill-opacity="0.0196078" stroke="#DDDDDD" stroke-width="0.296556"/>
<path d="M688.58 0L706.415 10.2967V30.8917L688.58 41.1883L670.745 30.8917V10.2967L688.58 0ZM796.08 0L813.915 10.2967V30.8917L796.08 41.1883L778.245 30.8917V10.2967L796.08 0Z" stroke="#DDDDDD" stroke-width="0.296556"/>
<path d="M867.747 0L885.582 10.2967V30.8917L867.747 41.1883L849.912 30.8917V10.2967L867.747 0Z" fill="#DDDDDD" fill-opacity="0.494118" stroke="#DDDDDD" stroke-width="0.296556"/>
<path d="M939.413 0L957.248 10.2967V30.8917L939.413 41.1883L921.578 30.8917V10.2967L939.413 0ZM1082.75 0L1100.58 10.2967V30.8917L1082.75 41.1883L1064.91 30.8917V10.2967L1082.75 0ZM1118.58 0L1136.41 10.2967V30.8917L1118.58 41.1883L1100.74 30.8917V10.2967L1118.58 0ZM168.997 30.8908L186.832 41.1875V61.7817L168.997 72.0783L151.162 61.7817V41.1875L168.997 30.8908ZM240.663 30.8908L258.498 41.1875V61.7817L240.663 72.0783L222.828 61.7817V41.1875L240.663 30.8908ZM276.497 30.8908L294.332 41.1875V61.7817L276.497 72.0783L258.662 61.7817V41.1875L276.497 30.8908ZM419.83 30.8908L437.665 41.1875V61.7817L419.83 72.0783L401.995 61.7817V41.1875L419.83 30.8908ZM455.663 30.8908L473.498 41.1875V61.7817L455.663 72.0783L437.828 61.7817V41.1875L455.663 30.8908Z" stroke="#DDDDDD" stroke-width="0.296556"/>
<path d="M491.497 30.8909L509.332 41.1875V61.7817L491.497 72.0784L473.662 61.7817V41.1875L491.497 30.8909Z" fill="#DDDDDD" stroke="#DDDDDD" stroke-width="0.296556"/>
<path d="M527.33 30.8909L545.165 41.1875V61.7817L527.33 72.0784L509.495 61.7817V41.1875L527.33 30.8909Z" fill="#DDDDDD" fill-opacity="0.211765" stroke="#DDDDDD" stroke-width="0.296556"/>
<path d="M563.163 30.8909L580.998 41.1875V61.7817L563.163 72.0784L545.328 61.7817V41.1875L563.163 30.8909Z" fill="#DDDDDD" fill-opacity="0.576471" stroke="#DDDDDD" stroke-width="0.296556"/>
<path d="M742.33 30.8909L760.165 41.1875V61.7817L742.33 72.0784L724.495 61.7817V41.1875L742.33 30.8909ZM778.163 30.8909L795.998 41.1875V61.7817L778.163 72.0784L760.328 61.7817V41.1875L778.163 30.8909ZM813.996 30.8909L831.831 41.1875V61.7817L813.996 72.0784L796.161 61.7817V41.1875L813.996 30.8909ZM849.83 30.8909L867.665 41.1875V61.7817L849.83 72.0784L831.995 61.7817V41.1875L849.83 30.8909ZM885.663 30.8909L903.498 41.1875V61.7817L885.663 72.0784L867.828 61.7817V41.1875L885.663 30.8909Z" stroke="#DDDDDD" stroke-width="0.296556"/>
<path d="M957.33 30.8909L975.165 41.1875V61.7817L957.33 72.0784L939.495 61.7817V41.1875L957.33 30.8909Z" fill="#DDDDDD" fill-opacity="0.905882" stroke="#DDDDDD" stroke-width="0.296556"/>
<path d="M1064.83 30.8909L1082.66 41.1875V61.7817L1064.83 72.0784L1046.99 61.7817V41.1875L1064.83 30.8909ZM186.913 61.7817L204.748 72.0784V92.6725L186.913 102.969L169.078 92.6725V72.0784L186.913 61.7817ZM222.746 61.7817L240.581 72.0784V92.6725L222.746 102.969L204.911 92.6725V72.0784L222.746 61.7817ZM258.58 61.7817L276.415 72.0784V92.6725L258.58 102.969L240.745 92.6725V72.0784L258.58 61.7817Z" stroke="#DDDDDD" stroke-width="0.296556"/>
<path d="M294.413 61.7812L312.248 72.0779V92.6721L294.413 102.969L276.578 92.6721V72.0779L294.413 61.7812Z" fill="#DDDDDD" fill-opacity="0.0470588" stroke="#DDDDDD" stroke-width="0.296556"/>
<path d="M330.247 61.7812L348.082 72.0779V92.6721L330.247 102.969L312.412 92.6721V72.0779L330.247 61.7812Z" fill="#DDDDDD" fill-opacity="0.811765" stroke="#DDDDDD" stroke-width="0.296556"/>
<path d="M366.08 61.7812L383.915 72.0779V92.6721L366.08 102.969L348.245 92.6721V72.0779L366.08 61.7812ZM401.913 61.7812L419.748 72.0779V92.6721L401.913 102.969L384.078 92.6721V72.0779L401.913 61.7812Z" stroke="#DDDDDD" stroke-width="0.296556"/>
<path d="M473.58 61.7812L491.415 72.0779V92.6721L473.58 102.969L455.745 92.6721V72.0779L473.58 61.7812Z" fill="#DDDDDD" fill-opacity="0.737255" stroke="#DDDDDD" stroke-width="0.296556"/>
<path d="M581.08 61.7812L598.915 72.0779V92.6721L581.08 102.969L563.245 92.6721V72.0779L581.08 61.7812ZM652.746 61.7812L670.581 72.0779V92.6721L652.746 102.969L634.911 92.6721V72.0779L652.746 61.7812Z" stroke="#DDDDDD" stroke-width="0.296556"/>
<path d="M688.58 61.7812L706.415 72.0779V92.6721L688.58 102.969L670.745 92.6721V72.0779L688.58 61.7812Z" fill="#DDDDDD" fill-opacity="0.839216" stroke="#DDDDDD" stroke-width="0.296556"/>
<path d="M724.413 61.7812L742.248 72.0779V92.6721L724.413 102.969L706.578 92.6721V72.0779L724.413 61.7812ZM760.246 61.7812L778.081 72.0779V92.6721L760.246 102.969L742.411 92.6721V72.0779L760.246 61.7812Z" stroke="#DDDDDD" stroke-width="0.296556"/>
<path d="M831.913 61.7812L849.748 72.0779V92.6721L831.913 102.969L814.078 92.6721V72.0779L831.913 61.7812Z" fill="#DDDDDD" fill-opacity="0.760784" stroke="#DDDDDD" stroke-width="0.296556"/>
<path d="M867.747 61.7812L885.582 72.0779V92.6721L867.747 102.969L849.912 92.6721V72.0779L867.747 61.7812ZM939.413 61.7812L957.248 72.0779V92.6721L939.413 102.969L921.578 92.6721V72.0779L939.413 61.7812Z" stroke="#DDDDDD" stroke-width="0.296556"/>
<path d="M1011.08 61.7812L1028.91 72.0779V92.6721L1011.08 102.969L993.245 92.6721V72.0779L1011.08 61.7812Z" fill="#DDDDDD" fill-opacity="0.968627" stroke="#DDDDDD" stroke-width="0.296556"/>
<path d="M1046.91 61.7812L1064.75 72.0779V92.6721L1046.91 102.969L1029.08 92.6721V72.0779L1046.91 61.7812Z" stroke="#DDDDDD" stroke-width="0.296556"/>
<path d="M1082.75 61.7812L1100.58 72.0779V92.6721L1082.75 102.969L1064.91 92.6721V72.0779L1082.75 61.7812Z" fill="#DDDDDD" fill-opacity="0.443137" stroke="#DDDDDD" stroke-width="0.296556"/>
<path d="M1118.58 61.7812L1136.42 72.0779V92.6721L1118.58 102.969L1100.75 92.6721V72.0779L1118.58 61.7812Z" stroke="#DDDDDD" stroke-width="0.296556"/>
<path d="M204.83 92.6729L222.665 102.97V123.564L204.83 133.86L186.995 123.564V102.97L204.83 92.6729Z" fill="#DDDDDD" fill-opacity="0.898039" stroke="#DDDDDD" stroke-width="0.296556"/>
<path d="M276.497 92.6729L294.332 102.97V123.564L276.497 133.86L258.662 123.564V102.97L276.497 92.6729ZM348.163 92.6729L365.998 102.97V123.564L348.163 133.86L330.328 123.564V102.97L348.163 92.6729ZM455.663 92.6729L473.498 102.97V123.564L455.663 133.86L437.828 123.564V102.97L455.663 92.6729Z" stroke="#DDDDDD" stroke-width="0.296556"/>
<path d="M491.497 92.6729L509.332 102.97V123.564L491.497 133.86L473.662 123.564V102.97L491.497 92.6729Z" fill="#DDDDDD" fill-opacity="0.886275" stroke="#DDDDDD" stroke-width="0.296556"/>
<path d="M563.163 92.6729L580.998 102.97V123.564L563.163 133.86L545.328 123.564V102.97L563.163 92.6729Z" fill="#DDDDDD" fill-opacity="0.309804" stroke="#DDDDDD" stroke-width="0.296556"/>
<path d="M598.996 92.6729L616.831 102.97V123.564L598.996 133.86L581.161 123.564V102.97L598.996 92.6729ZM634.83 92.6729L652.665 102.97V123.564L634.83 133.86L616.995 123.564V102.97L634.83 92.6729ZM778.163 92.6729L795.998 102.97V123.564L778.163 133.86L760.328 123.564V102.97L778.163 92.6729ZM813.996 92.6729L831.831 102.97V123.564L813.996 133.86L796.161 123.564V102.97L813.996 92.6729ZM849.83 92.6729L867.665 102.97V123.564L849.83 133.86L831.995 123.564V102.97L849.83 92.6729ZM885.663 92.6729L903.498 102.97V123.564L885.663 133.86L867.828 123.564V102.97L885.663 92.6729ZM921.496 92.6729L939.331 102.97V123.564L921.496 133.86L903.661 123.564V102.97L921.496 92.6729ZM957.33 92.6729L975.165 102.97V123.564L957.33 133.86L939.495 123.564V102.97L957.33 92.6729ZM1064.83 92.6729L1082.66 102.97V123.564L1064.83 133.86L1046.99 123.564V102.97L1064.83 92.6729ZM1100.66 92.6729L1118.5 102.97V123.564L1100.66 133.86L1082.83 123.564V102.97L1100.66 92.6729ZM151.08 123.564L168.915 133.86V154.455L151.08 164.75L133.245 154.455V133.86L151.08 123.564ZM222.746 123.564L240.581 133.86V154.455L222.746 164.75L204.911 154.455V133.86L222.746 123.564ZM258.58 123.564L276.415 133.86V154.455L258.58 164.75L240.745 154.455V133.86L258.58 123.564Z" stroke="#DDDDDD" stroke-width="0.296556"/>
<path d="M294.413 123.563L312.248 133.86V154.454L294.413 164.75L276.578 154.454V133.86L294.413 123.563Z" fill="#DDDDDD" fill-opacity="0.184314" stroke="#DDDDDD" stroke-width="0.296556"/>
<path d="M401.913 123.563L419.748 133.86V154.454L401.913 164.75L384.078 154.454V133.86L401.913 123.563Z" fill="#DDDDDD" fill-opacity="0.0470588" stroke="#DDDDDD" stroke-width="0.296556"/>
<path d="M437.747 123.563L455.582 133.86V154.454L437.747 164.75L419.912 154.454V133.86L437.747 123.563ZM509.413 123.563L527.248 133.86V154.454L509.413 164.75L491.578 154.454V133.86L509.413 123.563ZM545.247 123.563L563.082 133.86V154.454L545.247 164.75L527.412 154.454V133.86L545.247 123.563Z" stroke="#DDDDDD" stroke-width="0.296556"/>
<path d="M616.913 123.563L634.748 133.86V154.454L616.913 164.75L599.078 154.454V133.86L616.913 123.563Z" fill="#DDDDDD" fill-opacity="0.403922" stroke="#DDDDDD" stroke-width="0.296556"/>
<path d="M652.747 123.563L670.582 133.86V154.454L652.747 164.75L634.912 154.454V133.86L652.747 123.563ZM688.58 123.563L706.415 133.86V154.454L688.58 164.75L670.745 154.454V133.86L688.58 123.563Z" stroke="#DDDDDD" stroke-width="0.296556"/>
<path d="M724.413 123.563L742.248 133.86V154.454L724.413 164.75L706.578 154.454V133.86L724.413 123.563Z" fill="#DDDDDD" fill-opacity="0.427451" stroke="#DDDDDD" stroke-width="0.296556"/>
<path d="M796.08 123.563L813.915 133.86V154.454L796.08 164.75L778.245 154.454V133.86L796.08 123.563Z" fill="#DDDDDD" fill-opacity="0.403922" stroke="#DDDDDD" stroke-width="0.296556"/>
<path d="M831.913 123.563L849.748 133.86V154.454L831.913 164.75L814.078 154.454V133.86L831.913 123.563ZM939.413 123.563L957.248 133.86V154.454L939.413 164.75L921.578 154.454V133.86L939.413 123.563ZM1046.91 123.563L1064.75 133.86V154.454L1046.91 164.751L1029.08 154.454V133.86L1046.91 123.563ZM1082.75 123.563L1100.58 133.86V154.454L1082.75 164.751L1064.91 154.454V133.86L1082.75 123.563Z" stroke="#DDDDDD" stroke-width="0.296556"/>
<path d="M133.163 154.454L150.998 164.75V185.344L133.163 195.642L115.328 185.345V164.75L133.163 154.454Z" fill="#DDDDDD" fill-opacity="0.223529" stroke="#DDDDDD" stroke-width="0.296556"/>
<path d="M168.997 154.454L186.832 164.75V185.344L168.997 195.642L151.162 185.345V164.75L168.997 154.454ZM204.83 154.454L222.665 164.751V185.345L204.83 195.642L186.995 185.345V164.75L204.83 154.454ZM276.497 154.454L294.332 164.751V185.345L276.497 195.642L258.662 185.345V164.75L276.497 154.454ZM419.83 154.454L437.665 164.751V185.345L419.83 195.642L401.995 185.345V164.75L419.83 154.454Z" stroke="#DDDDDD" stroke-width="0.296556"/>
<path d="M455.663 154.454L473.498 164.751V185.345L455.663 195.642L437.828 185.345V164.75L455.663 154.454Z" fill="#DDDDDD" fill-opacity="0.623529" stroke="#DDDDDD" stroke-width="0.296556"/>
<path d="M527.33 154.454L545.165 164.751V185.345L527.33 195.642L509.495 185.345V164.75L527.33 154.454ZM598.996 154.454L616.831 164.751V185.345L598.996 195.642L581.161 185.345V164.75L598.996 154.454ZM670.663 154.454L688.498 164.751V185.345L670.663 195.642L652.828 185.345V164.75L670.663 154.454ZM706.496 154.454L724.331 164.751V185.345L706.496 195.642L688.661 185.345V164.75L706.496 154.454Z" stroke="#DDDDDD" stroke-width="0.296556"/>
<path d="M778.163 154.454L795.998 164.751V185.345L778.163 195.642L760.328 185.345V164.75L778.163 154.454Z" fill="#DDDDDD" fill-opacity="0.270588" stroke="#DDDDDD" stroke-width="0.296556"/>
<path d="M813.997 154.454L831.832 164.751V185.345L813.997 195.642L796.162 185.345V164.75L813.997 154.454Z" fill="#DDDDDD" fill-opacity="0.596078" stroke="#DDDDDD" stroke-width="0.296556"/>
<path d="M849.83 154.454L867.665 164.751V185.345L849.83 195.642L831.995 185.345V164.75L849.83 154.454Z" fill="#DDDDDD" fill-opacity="0.772549" stroke="#DDDDDD" stroke-width="0.296556"/>
<path d="M921.497 154.454L939.332 164.751V185.345L921.497 195.642L903.662 185.345V164.75L921.497 154.454Z" fill="#DDDDDD" fill-opacity="0.141176" stroke="#DDDDDD" stroke-width="0.296556"/>
<path d="M957.33 154.454L975.165 164.751V185.345L957.33 195.642L939.495 185.345V164.75L957.33 154.454ZM993.163 154.454L1011 164.751V185.345L993.163 195.642L975.328 185.345V164.75L993.163 154.454ZM1029 154.454L1046.83 164.751V185.345L1029 195.642L1011.16 185.345V164.75L1029 154.454ZM1064.83 154.454L1082.66 164.751V185.345L1064.83 195.642L1046.99 185.345V164.75L1064.83 154.454ZM186.913 185.345L204.748 195.642V216.236L186.913 226.533L169.078 216.236V195.642L186.913 185.345ZM222.746 185.345L240.581 195.642V216.236L222.746 226.533L204.911 216.236V195.642L222.746 185.345ZM294.413 185.345L312.248 195.642V216.236L294.413 226.533L276.578 216.236V195.642L294.413 185.345ZM330.246 185.345L348.081 195.642V216.236L330.246 226.533L312.411 216.236V195.642L330.246 185.345ZM366.08 185.345L383.915 195.642V216.236L366.08 226.533L348.245 216.236V195.642L366.08 185.345ZM401.913 185.345L419.748 195.642V216.236L401.913 226.533L384.078 216.236V195.642L401.913 185.345ZM437.746 185.345L455.581 195.642V216.236L437.746 226.533L419.911 216.236V195.642L437.746 185.345ZM473.58 185.345L491.415 195.642V216.236L473.58 226.533L455.745 216.236V195.642L473.58 185.345ZM509.413 185.345L527.248 195.642V216.236L509.413 226.533L491.578 216.236V195.642L509.413 185.345ZM652.746 185.345L670.581 195.642V216.236L652.746 226.533L634.911 216.236V195.642L652.746 185.345ZM688.58 185.345L706.415 195.642V216.236L688.58 226.533L670.745 216.236V195.642L688.58 185.345ZM724.413 185.345L742.248 195.642V216.236L724.413 226.533L706.578 216.236V195.642L724.413 185.345Z" stroke="#DDDDDD" stroke-width="0.296556"/>
<path d="M831.913 185.345L849.748 195.641V216.236L831.913 226.532L814.078 216.236V195.641L831.913 185.345Z" fill="#DDDDDD" fill-opacity="0.607843" stroke="#DDDDDD" stroke-width="0.296556"/>
<path d="M867.747 185.345L885.582 195.641V216.236L867.747 226.532L849.912 216.236V195.641L867.747 185.345Z" fill="#DDDDDD" fill-opacity="0.478431" stroke="#DDDDDD" stroke-width="0.296556"/>
<path d="M903.58 185.345L921.415 195.641V216.236L903.58 226.532L885.745 216.236V195.641L903.58 185.345Z" stroke="#DDDDDD" stroke-width="0.296556"/>
<path d="M1011.08 185.345L1028.91 195.641V216.236L1011.08 226.532L993.245 216.236V195.641L1011.08 185.345Z" fill="#DDDDDD" fill-opacity="0.419608" stroke="#DDDDDD" stroke-width="0.296556"/>
<path d="M1082.75 185.345L1100.58 195.641V216.236L1082.75 226.532L1064.91 216.236V195.641L1082.75 185.345Z" stroke="#DDDDDD" stroke-width="0.296556"/>
<path d="M1118.58 185.345L1136.42 195.641V216.236L1118.58 226.532L1100.75 216.236V195.641L1118.58 185.345Z" fill="#DDDDDD" fill-opacity="0.921569" stroke="#DDDDDD" stroke-width="0.296556"/>
<path d="M133.163 216.235L150.998 226.532V247.126L133.163 257.423L115.328 247.126V226.532L133.163 216.235Z" fill="#DDDDDD" fill-opacity="0.678431" stroke="#DDDDDD" stroke-width="0.296556"/>
<path d="M168.997 216.235L186.832 226.532V247.126L168.997 257.423L151.162 247.126V226.532L168.997 216.235Z" fill="#DDDDDD" fill-opacity="0.792157" stroke="#DDDDDD" stroke-width="0.296556"/>
<path d="M348.163 216.235L365.998 226.532V247.126L348.163 257.423L330.328 247.126V226.532L348.163 216.235Z" fill="#DDDDDD" fill-opacity="0.713726" stroke="#DDDDDD" stroke-width="0.296556"/>
<path d="M383.997 216.235L401.832 226.532V247.126L383.997 257.423L366.162 247.126V226.532L383.997 216.235ZM419.83 216.235L437.665 226.532V247.126L419.83 257.423L401.995 247.126V226.532L419.83 216.235ZM455.663 216.235L473.498 226.532V247.126L455.663 257.423L437.828 247.126V226.532L455.663 216.235ZM527.33 216.235L545.165 226.532V247.126L527.33 257.423L509.495 247.126V226.532L527.33 216.235Z" stroke="#DDDDDD" stroke-width="0.296556"/>
<path d="M598.997 216.235L616.832 226.532V247.126L598.997 257.423L581.162 247.126V226.532L598.997 216.235Z" fill="#DDDDDD" fill-opacity="0.313726" stroke="#DDDDDD" stroke-width="0.296556"/>
<path d="M634.83 216.235L652.665 226.532V247.126L634.83 257.423L616.995 247.126V226.532L634.83 216.235ZM670.663 216.235L688.498 226.532V247.126L670.663 257.423L652.828 247.126V226.532L670.663 216.235ZM706.496 216.235L724.331 226.532V247.126L706.496 257.423L688.661 247.126V226.532L706.496 216.235Z" stroke="#DDDDDD" stroke-width="0.296556"/>
<path d="M742.33 216.235L760.165 226.532V247.126L742.33 257.423L724.495 247.126V226.532L742.33 216.235Z" fill="#DDDDDD" fill-opacity="0.976471" stroke="#DDDDDD" stroke-width="0.296556"/>
<path d="M778.163 216.235L795.998 226.532V247.126L778.163 257.423L760.328 247.126V226.532L778.163 216.235ZM813.996 216.235L831.831 226.532V247.126L813.996 257.423L796.161 247.126V226.532L813.996 216.235ZM885.663 216.235L903.498 226.532V247.126L885.663 257.423L867.828 247.126V226.532L885.663 216.235Z" stroke="#DDDDDD" stroke-width="0.296556"/>
<path d="M993.163 216.235L1011 226.532V247.126L993.163 257.423L975.328 247.126V226.532L993.163 216.235Z" fill="#DDDDDD" fill-opacity="0.690196" stroke="#DDDDDD" stroke-width="0.296556"/>
<path d="M1029 216.235L1046.83 226.532V247.126L1029 257.423L1011.16 247.126V226.532L1029 216.235Z" fill="#DDDDDD" fill-opacity="0.462745" stroke="#DDDDDD" stroke-width="0.296556"/>
<path d="M1064.83 216.235L1082.66 226.532V247.126L1064.83 257.423L1046.99 247.126V226.532L1064.83 216.235Z" fill="#DDDDDD" fill-opacity="0.568627" stroke="#DDDDDD" stroke-width="0.296556"/>
<path d="M1100.66 216.235L1118.5 226.532V247.126L1100.66 257.423L1082.83 247.126V226.532L1100.66 216.235ZM186.913 247.126L204.748 257.423V278.017L186.913 288.314L169.078 278.017V257.423L186.913 247.126ZM222.746 247.126L240.581 257.423V278.017L222.746 288.314L204.911 278.017V257.423L222.746 247.126ZM258.58 247.126L276.415 257.423V278.017L258.58 288.314L240.745 278.017V257.423L258.58 247.126Z" stroke="#DDDDDD" stroke-width="0.296556"/>
<path d="M330.247 247.127L348.082 257.424V278.018L330.247 288.314L312.412 278.018V257.424L330.247 247.127Z" fill="#DDDDDD" fill-opacity="0.6" stroke="#DDDDDD" stroke-width="0.296556"/>
<path d="M366.08 247.127L383.915 257.424V278.018L366.08 288.314L348.245 278.018V257.424L366.08 247.127Z" stroke="#DDDDDD" stroke-width="0.296556"/>
<path d="M473.58 247.127L491.415 257.424V278.018L473.58 288.314L455.745 278.018V257.424L473.58 247.127Z" fill="#DDDDDD" fill-opacity="0.862745" stroke="#DDDDDD" stroke-width="0.296556"/>
<path d="M509.413 247.127L527.248 257.424V278.018L509.413 288.314L491.578 278.018V257.424L509.413 247.127ZM724.413 247.127L742.248 257.424V278.018L724.413 288.314L706.578 278.018V257.424L724.413 247.127ZM760.246 247.127L778.081 257.424V278.018L760.246 288.314L742.411 278.018V257.424L760.246 247.127Z" stroke="#DDDDDD" stroke-width="0.296556"/>
<path d="M796.08 247.127L813.915 257.424V278.018L796.08 288.314L778.245 278.018V257.424L796.08 247.127Z" fill="#DDDDDD" fill-opacity="0.0745098" stroke="#DDDDDD" stroke-width="0.296556"/>
<path d="M831.913 247.127L849.748 257.424V278.018L831.913 288.314L814.078 278.018V257.424L831.913 247.127Z" fill="#DDDDDD" fill-opacity="0.517647" stroke="#DDDDDD" stroke-width="0.296556"/>
<path d="M867.747 247.127L885.582 257.424V278.018L867.747 288.314L849.912 278.018V257.424L867.747 247.127Z" stroke="#DDDDDD" stroke-width="0.296556"/>
<path d="M939.413 247.127L957.248 257.424V278.018L939.413 288.314L921.578 278.018V257.424L939.413 247.127Z" fill="#DDDDDD" fill-opacity="0.176471" stroke="#DDDDDD" stroke-width="0.296556"/>
<path d="M975.247 247.127L993.082 257.424V278.018L975.247 288.314L957.412 278.018V257.424L975.247 247.127Z" fill="#DDDDDD" fill-opacity="0.121569" stroke="#DDDDDD" stroke-width="0.296556"/>
<path d="M1011.08 247.127L1028.91 257.424V278.018L1011.08 288.314L993.245 278.018V257.424L1011.08 247.127ZM1046.91 247.127L1064.75 257.424V278.018L1046.91 288.314L1029.08 278.018V257.424L1046.91 247.127ZM276.497 278.017L294.332 288.314V308.909L276.497 319.205L258.662 308.909V288.314L276.497 278.017ZM312.33 278.017L330.165 288.314V308.909L312.33 319.205L294.495 308.909V288.314L312.33 278.017ZM383.997 278.017L401.832 288.314V308.909L383.997 319.205L366.162 308.909V288.314L383.997 278.017ZM419.83 278.017L437.665 288.314V308.909L419.83 319.205L401.995 308.909V288.314L419.83 278.017ZM491.497 278.017L509.332 288.314V308.909L491.497 319.205L473.662 308.909V288.314L491.497 278.017ZM527.33 278.017L545.165 288.314V308.909L527.33 319.205L509.495 308.909V288.314L527.33 278.017ZM563.163 278.017L580.998 288.314V308.909L563.163 319.205L545.328 308.909V288.314L563.163 278.017ZM598.997 278.017L616.832 288.314V308.909L598.997 319.205L581.162 308.909V288.314L598.997 278.017ZM634.83 278.017L652.665 288.314V308.909L634.83 319.205L616.995 308.909V288.314L634.83 278.017Z" stroke="#DDDDDD" stroke-width="0.296556"/>
<path d="M706.497 278.017L724.332 288.314V308.908L706.497 319.205L688.662 308.908V288.314L706.497 278.017Z" fill="#DDDDDD" fill-opacity="0.141176" stroke="#DDDDDD" stroke-width="0.296556"/>
<path d="M742.33 278.017L760.165 288.314V308.908L742.33 319.205L724.495 308.908V288.314L742.33 278.017Z" fill="#DDDDDD" fill-opacity="0.596078" stroke="#DDDDDD" stroke-width="0.296556"/>
<path d="M778.163 278.017L795.998 288.314V308.908L778.163 319.205L760.328 308.908V288.314L778.163 278.017ZM813.996 278.017L831.831 288.314V308.908L813.996 319.205L796.161 308.908V288.314L813.996 278.017Z" stroke="#DDDDDD" stroke-width="0.296556"/>
<path d="M849.83 278.017L867.665 288.314V308.908L849.83 319.205L831.995 308.908V288.314L849.83 278.017Z" fill="#DDDDDD" fill-opacity="0.0431373" stroke="#DDDDDD" stroke-width="0.296556"/>
<path d="M957.33 278.017L975.165 288.314V308.908L957.33 319.205L939.495 308.908V288.314L957.33 278.017Z" fill="#DDDDDD" fill-opacity="0.266667" stroke="#DDDDDD" stroke-width="0.296556"/>
<path d="M993.163 278.017L1011 288.314V308.908L993.163 319.205L975.328 308.908V288.314L993.163 278.017Z" stroke="#DDDDDD" stroke-width="0.296556"/>
<path d="M1064.83 278.017L1082.66 288.314V308.908L1064.83 319.205L1046.99 308.908V288.314L1064.83 278.017Z" fill="#DDDDDD" fill-opacity="0.745098" stroke="#DDDDDD" stroke-width="0.296556"/>
<path d="M1100.66 278.017L1118.5 288.314V308.908L1100.66 319.205L1082.83 308.908V288.314L1100.66 278.017ZM151.08 308.908L168.915 319.205V339.799L151.08 350.096L133.245 339.799V319.205L151.08 308.908ZM186.913 308.908L204.748 319.205V339.799L186.913 350.096L169.078 339.799V319.205L186.913 308.908ZM294.413 308.908L312.248 319.205V339.799L294.413 350.096L276.578 339.799V319.205L294.413 308.908Z" stroke="#DDDDDD" stroke-width="0.296556"/>
</g>
<defs>
<radialGradient id="paint0_radial_1219_90944" cx="0" cy="0" r="1" gradientUnits="userSpaceOnUse" gradientTransform="translate(614.826 153.706) scale(614.826 153.706)">
<stop stop-color="white"/>
<stop offset="1" stop-color="white" stop-opacity="0"/>
</radialGradient>
</defs>
</svg>
