<svg width="192" height="181" viewBox="0 0 192 181" fill="none" xmlns="http://www.w3.org/2000/svg">
<path d="M43.5865 141.179C57.3529 103.132 -1.70692 100.023 34.2797 72.7025C40.2128 68.5054 46.999 64.1527 48.8992 57.1574C50.683 50.5508 47.5807 43.6721 47.5419 36.7934C52.6995 -0.475993 97.1786 7.84064 121.221 22.7251C130.955 27.6218 141.929 34.2284 143.054 45.0711C143.48 49.3072 142.278 53.6987 143.674 57.7404C151.197 72.6637 174.077 65.7461 177.877 93.2998C180.01 123.962 149.685 120.271 142.201 139.469" fill="#F4F6F9"/>
<path d="M150.849 134.3C142.356 122.874 130.917 112.187 123.355 106.902C119.555 104.22 115.716 102.238 111.915 100.761C110.054 95.3982 108.309 90.1518 106.564 84.3612C108.309 84.2446 110.015 83.5451 111.217 82.3015C115.871 77.3271 111.372 69.982 105.633 70.4095C106.486 63.764 107.882 57.0796 104.043 51.2113C88.2991 33.8008 71.0039 64.6578 59.9908 72.9744C59.9908 72.9744 69.6079 76.7441 74.3389 78.5707C74.3389 78.5707 73.4857 96.1366 73.2142 103.909C63.4808 109.272 55.4148 117.511 50.2185 126.294H4.76994C1.90032 126.294 -0.116184 129.597 0.775724 132.823L11.3236 171.064C11.9053 173.124 13.4951 174.523 15.3177 174.523H17.024C18.071 177.787 21.1345 180.197 24.7409 180.197H89.2298C93.8445 180.236 97.3733 176.388 97.3733 171.88C100.282 174.873 116.957 180.197 128.706 180.197C136.462 180.197 155.076 178.565 157.79 177.088C166.826 172.191 165.352 150.972 150.849 134.3ZM72.7101 169.354C72.7101 168.888 72.6325 168.46 72.5162 167.994L69.8793 158.472C70.7712 158.2 71.6243 157.967 72.4775 157.773C72.904 158.123 73.5245 158.434 74.4164 158.55C77.8677 158.9 81.668 157.501 84.7703 159.755C86.5929 161.076 87.4072 163.33 88.6481 165.196C89.9278 167.022 91.7117 168.46 93.7282 169.354C90.2769 169.354 82.2884 169.354 72.7101 169.354ZM97.3733 170.481C97.3345 170.52 97.3346 170.52 97.2958 170.559C97.257 170.481 97.257 170.442 97.2182 170.364C97.2958 170.364 97.3733 170.403 97.4897 170.403C97.4121 170.442 97.4121 170.442 97.3733 170.481Z" fill="white"/>
<path d="M35.7538 68.5053L17.9543 73.8684C15.0072 74.7622 11.9436 73.0911 11.0517 70.1376C10.0047 65.474 4.80839 56.419 12.06 54.165L29.8593 48.8019C32.8065 47.9081 35.87 49.5792 36.762 52.5327C37.809 57.1963 43.0054 66.2513 35.7538 68.5053Z" fill="#FFE945"/>
<path d="M9.73335 58.9064C13.7276 61.1993 17.7993 63.4145 21.9098 65.4742C22.4139 65.7463 22.9181 65.9794 23.4222 66.2126C23.8488 66.4458 24.3141 66.7178 24.7795 66.8344C25.5163 66.9899 26.2919 66.8344 26.8348 66.3292C27.145 66.0183 27.3001 65.6685 27.4552 65.2799C27.6878 64.7358 27.9593 64.1918 28.2307 63.6477C28.7349 62.5595 29.239 61.5102 29.7432 60.4221C30.8677 57.9737 32.031 55.5642 33.1556 53.1159C33.4658 52.4552 32.4576 51.8334 32.1474 52.5329C30.2473 56.5747 28.3859 60.5775 26.4857 64.6193C26.1755 65.2411 25.9429 65.9406 25.0897 65.7463C24.7019 65.6685 24.3529 65.3965 24.0039 65.2411C23.4998 65.0079 22.9956 64.7358 22.4915 64.5027C20.5526 63.5311 18.6136 62.5207 16.6747 61.4714C14.5419 60.3055 12.4091 59.1396 10.315 57.896C9.6558 57.5462 9.07412 58.5567 9.73335 58.9064Z" fill="black"/>
<path d="M88.4535 12.6207C88.1821 29.4482 63.2087 29.4482 62.8984 12.6207C63.1699 -4.20689 88.1433 -4.20689 88.4535 12.6207Z" fill="#FEAABC"/>
<path d="M80.1157 9.35619C79.0687 7.45191 76.393 7.2576 74.8806 8.73438C74.1438 9.47277 73.8723 10.4832 73.9887 11.4548C73.6785 11.0661 73.2519 10.7552 72.7478 10.5998C71.9722 10.3666 71.0415 10.5221 70.3822 10.9884C69.6842 11.4936 69.1801 12.2709 69.2189 13.1647C69.2577 14.3306 70.1109 15.1856 71.0416 15.8074C71.7396 16.2738 72.5539 16.5847 73.3683 16.8567C74.4929 17.2453 75.6174 17.4785 76.7807 17.6728C77.1685 17.7505 77.5176 17.7894 77.9054 17.8283C78.2156 17.8671 78.487 17.5174 78.487 17.2453C78.487 17.1287 78.4483 17.051 78.4095 16.9733C78.5258 15.6519 79.3401 14.5249 79.883 13.359C80.5422 12.1154 80.8525 10.6775 80.1157 9.35619ZM78.7197 13.2036C78.1768 14.2918 77.5175 15.3799 77.2849 16.6235C76.3542 16.4681 75.3847 16.2738 74.454 16.0406C74.0274 15.924 73.5621 15.7685 73.1356 15.6131C73.058 15.5742 72.9417 15.5354 72.8641 15.4965H72.8253C72.7865 15.4576 72.709 15.4576 72.6702 15.4188C72.5151 15.341 72.36 15.2633 72.2049 15.1856C71.9335 15.0301 71.662 14.8747 71.3905 14.6804C71.3905 14.6804 71.2742 14.6027 71.3517 14.6415C71.4293 14.7192 71.3518 14.6415 71.313 14.6027C71.2742 14.5638 71.1966 14.5249 71.1578 14.4861C71.0803 14.4083 70.9639 14.3306 70.8864 14.214C70.8476 14.1752 70.8088 14.1363 70.77 14.0974L70.7313 14.0586C70.6925 13.9809 70.6149 13.9031 70.5761 13.7865C70.5374 13.7477 70.5374 13.7088 70.4986 13.6699C70.4598 13.5922 70.4211 13.5145 70.4211 13.3979C70.4211 13.359 70.4211 13.359 70.4211 13.3202C70.4211 13.3202 70.4211 13.3202 70.4211 13.2813C70.4211 13.2036 70.4211 13.1259 70.4211 13.0481V13.087V13.0481C70.4211 12.9704 70.4211 13.0093 70.4211 13.0481C70.4211 13.0093 70.4211 13.0093 70.4211 12.9704C70.4211 12.8927 70.4598 12.815 70.4986 12.7372C70.4986 12.6984 70.5374 12.6595 70.5374 12.6595C70.5762 12.5818 70.615 12.5041 70.6538 12.4652C70.6926 12.4263 70.6925 12.4263 70.7313 12.3875C70.7701 12.3098 70.8476 12.2709 70.8864 12.232C70.9252 12.1932 70.9252 12.1932 70.9639 12.1543C71.0415 12.1154 71.0803 12.0766 71.1578 12.0377C71.2354 11.9989 71.2742 11.96 71.3517 11.9211C71.3905 11.9211 71.4293 11.8823 71.4681 11.8823C71.5456 11.8434 71.6232 11.8434 71.7008 11.8045C71.7396 11.8045 71.7395 11.8045 71.7783 11.8045C71.7783 11.8045 71.7784 11.8045 71.8171 11.8045C71.8947 11.8045 71.9722 11.8045 72.0497 11.8045C72.0885 11.8045 72.1273 11.8045 72.1661 11.8045C72.2437 11.8045 72.3213 11.8434 72.3988 11.8434C72.4376 11.8434 72.4763 11.8823 72.5151 11.8823C72.5926 11.9211 72.6702 11.96 72.7478 11.9989C72.7866 11.9989 72.7865 12.0377 72.8253 12.0377C72.8253 12.0377 72.8641 12.0377 72.8641 12.0766C72.9417 12.1543 73.0193 12.1932 73.058 12.2709L73.0968 12.3098C73.0968 12.3486 73.1356 12.3875 73.1744 12.3875C73.2519 12.4652 73.2907 12.5818 73.3295 12.6595C73.3682 12.6984 73.3682 12.7372 73.407 12.7761C73.407 12.815 73.407 12.815 73.4458 12.8538C73.4846 12.9704 73.5234 13.087 73.5622 13.2425C73.6397 13.5534 73.9887 13.7477 74.2601 13.6311C74.5703 13.5534 74.7642 13.2036 74.6479 12.9316C74.6091 12.815 74.5704 12.6984 74.5316 12.5818C74.9194 12.6595 75.3847 12.3486 75.2296 11.8823C75.152 11.6491 75.1133 11.4548 75.0745 11.2216C75.0745 10.9884 75.0745 10.7941 75.1133 10.6387C75.1909 10.2889 75.346 9.93913 75.5786 9.74481C76.0828 9.20074 76.742 8.9287 77.4788 8.96756C77.789 8.96756 78.0993 9.08415 78.4095 9.27846C78.7197 9.47277 78.9524 9.74481 79.1463 10.0946C79.6892 11.105 79.2238 12.232 78.7197 13.2036Z" fill="black"/>
<path d="M70.7314 14.0198C70.7702 14.0198 70.7702 14.0198 70.7314 14.0198C70.7702 14.0586 70.7702 14.0586 70.7702 14.0586C70.8089 14.0586 70.7702 14.0198 70.7314 14.0198Z" fill="black"/>
<path d="M136.888 40.7961C137.625 40.6795 137.935 41.8065 137.198 41.9231C135.647 42.1951 134.057 42.1563 132.506 42.0008C130.916 41.8454 129.288 41.5733 127.737 41.107C126.379 40.6795 125.022 40.1354 123.936 39.2027C123.044 38.4254 122.463 37.3761 122.618 36.1714C122.85 34.578 124.091 33.2956 125.293 32.324C125.255 32.4794 125.177 32.596 125.138 32.7515C125.1 31.8965 124.828 31.197 124.363 30.4974C124.014 29.9922 123.626 29.487 123.51 28.8652C123.393 28.1268 123.704 27.4661 124.169 26.8832C124.518 26.4557 124.906 26.0671 125.332 25.6785C125.41 25.6007 125.565 25.523 125.642 25.4064C125.72 25.3287 125.72 25.0567 125.72 24.9401C125.798 24.668 125.875 24.396 125.953 24.124C126.457 22.4529 127.387 20.8206 128.939 19.9656C132.157 18.2168 136.035 20.3154 138.633 22.2585C138.362 22.4917 138.052 22.686 137.78 22.9192C137.47 21.0149 137.858 18.9552 138.633 17.1675C139.254 15.6907 140.378 14.0974 142.085 13.8253C142.511 13.7476 142.938 13.7865 143.364 13.8642C143.868 13.9808 144.14 14.1751 144.45 14.6026C144.838 15.1855 144.993 15.9628 144.993 16.6623C144.993 18.3723 144.373 20.0045 144.373 21.7145C144.334 24.2017 145.614 26.1837 147.436 27.8159C148.018 28.3211 147.165 29.1372 146.622 28.632C144.683 26.9221 143.326 24.7846 143.209 22.1808C143.132 20.5097 143.636 18.9163 143.791 17.2841C143.83 16.74 143.868 16.1182 143.675 15.5741C143.597 15.4187 143.481 15.2632 143.403 15.1078C143.364 15.0301 143.248 14.9912 143.442 15.1078C143.364 15.0689 143.248 15.0689 143.132 15.0301C142.86 14.9523 142.55 14.9523 142.279 15.0301C140.883 15.3021 140.029 16.8566 139.603 18.1002C139.099 19.4993 138.75 21.1704 138.982 22.6472C139.06 23.0747 138.595 23.6576 138.129 23.3078C135.609 21.4036 131.149 18.9163 128.473 21.9476C127.93 22.5694 127.543 23.3856 127.271 24.1628C127.077 24.7069 126.961 25.2121 126.845 25.7562C126.728 26.3003 126.069 26.65 125.681 27.0775C125.255 27.505 124.712 28.088 124.751 28.6709C124.751 28.7875 124.867 29.0207 124.983 29.1761C125.1 29.4093 125.255 29.6036 125.41 29.8368C125.798 30.4197 126.108 31.0415 126.263 31.7022C126.34 32.1297 126.534 32.7903 126.224 33.1401C125.953 33.451 125.565 33.6842 125.293 33.9951C124.828 34.4614 124.363 35.0055 124.091 35.6273C123.897 36.016 123.82 36.5212 123.859 36.8321C124.014 37.7259 124.751 38.3866 125.565 38.8918C126.651 39.5525 127.93 39.9411 129.171 40.252C131.537 40.8738 134.406 41.2236 136.888 40.7961ZM143.791 44.1771C144.295 41.4179 144.877 38.6586 145.885 36.016C146.389 34.6946 147.048 33.3733 147.979 32.324C148.367 31.8965 148.793 31.469 149.336 31.197C149.569 31.0804 149.802 30.9638 150.034 30.8861C150.344 30.8083 150.655 30.9249 150.926 31.0804C152.167 31.7799 152.322 33.5287 152.245 34.7723C152.167 35.5885 152.051 36.3269 151.896 37.1818C151.43 39.5525 150.771 41.962 149.685 44.0994C149.22 45.0321 148.599 46.0814 147.746 46.6255C147.358 46.8587 147.087 46.9752 146.661 46.9364C146.312 46.8975 145.846 46.7032 145.458 46.3923C144.877 45.9259 144.062 46.7421 144.644 47.2084C149.491 51.0558 152.089 41.4179 152.787 38.3089C153.292 35.9771 154.028 33.0235 152.477 30.9249C151.973 30.2643 151.314 29.7979 150.5 29.6425C149.802 29.5259 149.065 29.8756 148.483 30.2643C147.242 31.0804 146.35 32.324 145.652 33.6453C144.024 36.7932 143.287 40.3297 142.628 43.7885C142.55 44.6046 143.675 44.9155 143.791 44.1771Z" fill="black"/>
<path d="M185.71 110.011L163.141 113.741C158.953 114.441 154.959 111.565 154.261 107.368C153.291 100.956 149.918 91.3176 159.147 89.4521L181.716 85.7213C185.904 85.0218 189.898 87.8976 190.596 92.0948C191.566 98.5072 194.94 108.145 185.71 110.011Z" fill="#9ED5F0"/>
<path d="M166.709 94.9707C167.368 97.0304 167.834 99.129 168.26 101.228C168.493 102.549 168.687 103.87 169.075 105.153C169.307 105.93 169.734 106.785 170.626 106.94C171.634 107.096 172.642 106.357 173.418 105.852C175.551 104.414 177.49 102.743 179.467 101.111C179.7 100.917 179.661 100.489 179.467 100.295C176.792 97.4579 173.263 95.3982 169.462 94.5043C168.726 94.3489 168.415 95.4759 169.152 95.6313C172.797 96.4863 176.094 98.3906 178.653 101.111C178.653 100.839 178.653 100.567 178.653 100.295C176.947 101.694 175.202 103.132 173.418 104.453C172.914 104.842 172.371 105.192 171.828 105.502C171.712 105.541 171.634 105.619 171.518 105.658C171.44 105.697 171.479 105.697 171.324 105.736C171.246 105.775 171.169 105.775 171.091 105.813C171.052 105.813 171.014 105.813 170.975 105.852C171.052 105.852 171.091 105.852 170.975 105.852C170.936 105.852 170.742 105.852 170.82 105.852C170.897 105.852 170.742 105.813 170.703 105.813C170.859 105.891 170.703 105.813 170.665 105.775C170.82 105.891 170.665 105.736 170.587 105.697C170.51 105.619 170.626 105.775 170.587 105.697C170.548 105.658 170.548 105.619 170.51 105.619C170.471 105.541 170.432 105.464 170.393 105.386C170.316 105.23 170.393 105.386 170.316 105.23C170.277 105.114 170.238 105.036 170.199 104.92C169.85 103.754 169.695 102.51 169.462 101.305C169.036 99.0901 168.532 96.875 167.873 94.6986C167.601 93.9602 166.477 94.2712 166.709 94.9707Z" fill="black"/>
<path d="M57.4697 45.3429C57.2758 45.0708 57.431 44.7211 57.6636 44.5267C57.9351 44.3324 58.284 44.4879 58.4779 44.7211C58.5167 44.7988 58.5555 44.8765 58.6331 44.9154C58.5168 44.7988 58.6718 44.9542 58.7106 44.9931C58.7882 45.1097 58.8657 45.1874 58.9821 45.2651C59.0208 45.304 59.0984 45.3429 59.1371 45.3817C59.0596 45.304 59.0984 45.3429 59.1371 45.3817L59.1759 45.4206C59.2535 45.4983 59.3699 45.5372 59.4862 45.576C59.525 45.576 59.525 45.6149 59.5637 45.6149C59.6801 45.6538 59.4086 45.576 59.5249 45.6149C59.5637 45.6149 59.6025 45.6538 59.6413 45.6538C59.7188 45.6926 59.8352 45.6926 59.9515 45.7315C59.8352 45.6926 59.8351 45.7315 59.9127 45.7315C59.9515 45.7315 59.9516 45.7315 59.9903 45.7315C60.0291 45.7315 60.0679 45.7315 60.1454 45.7315C60.1842 45.7315 60.223 45.7315 60.2618 45.7315C60.3005 45.7315 60.4168 45.7315 60.3005 45.7315C60.1842 45.7315 60.2617 45.7315 60.3005 45.7315C60.378 45.7315 60.4556 45.6926 60.5332 45.6538C60.572 45.6538 60.6108 45.6149 60.6496 45.6149H60.6883C60.7658 45.576 60.6107 45.6538 60.6107 45.6538C60.6883 45.6149 60.7659 45.576 60.8434 45.5372C60.921 45.4983 60.9986 45.4595 61.0373 45.4206C61.1149 45.3817 60.921 45.4983 60.9985 45.4595L61.0373 45.4206C61.0761 45.3817 61.1149 45.3817 61.1537 45.3429C61.1925 45.304 61.27 45.2263 61.3088 45.1874C61.3476 45.1486 61.3863 45.1097 61.4251 45.0708C61.3476 45.1874 61.4639 44.9931 61.4251 45.0708C61.4639 44.9931 61.5027 44.9154 61.5415 44.8765C61.5803 44.7988 61.619 44.7211 61.6577 44.6433C61.6965 44.5656 61.619 44.7211 61.619 44.7211C61.619 44.6822 61.6577 44.6822 61.6577 44.6433C61.6577 44.6045 61.6966 44.5656 61.6966 44.5267C61.7353 44.449 61.7353 44.3713 61.7741 44.2547C61.7741 44.0604 61.7741 44.177 61.7741 44.2547C61.7741 44.2158 61.7741 44.177 61.7741 44.1381C61.7741 44.0604 61.7741 43.9827 61.7741 43.8661C61.7741 43.8272 61.7741 43.7884 61.7741 43.7495C61.7741 43.6718 61.8129 43.9049 61.7741 43.8272V43.7884C61.7741 43.7106 61.7353 43.594 61.6966 43.5163C61.619 43.3609 61.6966 43.4775 61.6966 43.5163C61.6578 43.4775 61.6578 43.4386 61.619 43.3997C61.5802 43.322 61.5414 43.2443 61.4639 43.1666L61.4251 43.1277C61.3476 43.05 61.5026 43.2054 61.4639 43.1666C61.4251 43.1277 61.3863 43.0888 61.3863 43.05C61.3088 42.9722 61.2313 42.8945 61.1537 42.8168C61.1149 42.8168 61.1148 42.7779 61.0761 42.7779C61.0761 42.7779 61.1924 42.8557 61.1149 42.8168C61.0761 42.7779 60.9986 42.7391 60.9598 42.7002C60.8435 42.6225 60.7271 42.5836 60.6107 42.5059C60.572 42.467 60.4944 42.467 60.4557 42.4282C60.4169 42.4282 60.3781 42.3893 60.3781 42.3893C60.4169 42.3893 60.4945 42.4282 60.3781 42.3893C60.3393 42.3893 60.3393 42.3893 60.3005 42.3893C60.3393 42.3893 60.3393 42.3893 60.3781 42.3893C60.3393 42.3893 60.3005 42.3893 60.2618 42.3893C60.1842 42.3893 60.1454 42.3893 60.0679 42.3893C60.0291 42.3893 59.9903 42.3893 59.9515 42.3893C59.9515 42.3893 60.1067 42.3504 59.9903 42.3893C59.9128 42.3893 59.8352 42.4282 59.7964 42.4282C59.7189 42.4282 59.6413 42.467 59.6026 42.5059C59.4862 42.5447 59.6801 42.467 59.6026 42.5059C59.5638 42.5059 59.525 42.5448 59.4862 42.5448C59.3699 42.6225 59.2535 42.6613 59.1371 42.7391C59.0208 42.8168 59.2147 42.6613 59.0984 42.7391C59.0596 42.7779 59.0208 42.7779 58.9821 42.8168C58.9433 42.8557 58.9045 42.8945 58.8657 42.9334C58.8269 42.9722 58.7494 43.05 58.7106 43.0888C58.6331 43.2054 58.7494 43.0111 58.7106 43.0888C58.6718 43.1277 58.6719 43.1666 58.6331 43.1666C58.5555 43.2831 58.4392 43.4386 58.4392 43.5552C58.478 43.4386 58.478 43.5163 58.4392 43.5163C58.4392 43.5552 58.4004 43.594 58.4004 43.6329C58.3616 43.7106 58.3616 43.7495 58.3616 43.8272C58.3616 43.8661 58.3616 43.9049 58.3228 43.9438C58.2841 44.0993 58.3228 43.8272 58.3228 43.9438C58.3228 43.9827 58.3228 44.0604 58.3228 44.0993C58.3228 44.1381 58.3616 44.2936 58.3228 44.3324C58.3228 44.2936 58.2841 44.2158 58.3228 44.2936C58.3228 44.3324 58.3228 44.3713 58.3616 44.4102C58.4391 44.7211 58.284 45.032 57.9738 45.1097C57.7023 45.1874 57.3146 44.9931 57.2758 44.7211C56.888 43.0111 58.2452 41.34 59.9127 41.1457C60.0678 41.1457 60.223 41.1068 60.3781 41.1457C60.6108 41.1846 60.8047 41.2234 61.0373 41.34C61.27 41.4566 61.5027 41.5732 61.7354 41.7286C62.2007 42.0784 62.5497 42.5059 62.7824 43.05C63.1314 43.8661 62.9374 44.8765 62.4333 45.576C61.8904 46.3533 61.0761 46.8585 60.1454 46.8974C59.0208 47.014 58.0902 46.2367 57.4697 45.3429ZM180.824 147.202C181.445 148.057 182.337 148.718 183.423 148.64C184.353 148.562 185.168 148.057 185.711 147.319C186.215 146.619 186.409 145.648 186.137 144.831C185.982 144.365 185.672 143.899 185.284 143.588C185.013 143.355 184.741 143.16 184.431 143.044C184.159 142.927 183.849 142.888 183.539 142.888C182.143 142.888 180.708 143.899 180.514 145.337C180.475 145.648 180.592 145.959 180.902 146.036C181.173 146.114 181.561 145.959 181.6 145.648C181.6 145.531 181.639 145.414 181.678 145.298C181.678 145.259 181.678 145.259 181.716 145.22C181.716 145.181 181.716 145.181 181.716 145.259C181.716 145.22 181.794 145.142 181.794 145.065C181.833 145.026 181.833 144.987 181.872 144.909C181.872 144.87 181.91 144.87 181.91 144.831C181.988 144.754 181.91 144.831 181.91 144.87C181.949 144.754 182.104 144.637 182.182 144.598C182.182 144.598 182.337 144.482 182.259 144.521C182.182 144.598 182.298 144.482 182.298 144.482C182.337 144.482 182.337 144.443 182.376 144.443C182.492 144.365 182.608 144.326 182.686 144.249C182.725 144.249 182.725 144.21 182.763 144.21C182.647 144.249 182.686 144.249 182.725 144.21C182.802 144.171 182.841 144.171 182.919 144.132C182.996 144.132 183.035 144.093 183.112 144.093C183.151 144.093 183.151 144.093 183.19 144.093C183.229 144.093 183.345 144.054 183.229 144.093C183.151 144.132 183.268 144.093 183.268 144.093C183.306 144.093 183.306 144.093 183.345 144.093C183.384 144.093 183.462 144.093 183.5 144.093C183.539 144.093 183.617 144.093 183.655 144.093C183.578 144.054 183.772 144.093 183.655 144.093C183.694 144.093 183.733 144.093 183.772 144.093C183.849 144.093 183.888 144.132 183.966 144.132C184.004 144.132 184.16 144.21 184.082 144.171C184.004 144.132 184.121 144.21 184.121 144.21C184.159 144.21 184.159 144.249 184.198 144.249C184.237 144.287 184.315 144.326 184.353 144.365C184.392 144.404 184.431 144.404 184.315 144.365C184.353 144.365 184.353 144.404 184.392 144.404C184.431 144.443 184.47 144.482 184.508 144.521C184.586 144.598 184.664 144.676 184.741 144.754L184.78 144.793C184.819 144.831 184.702 144.676 184.741 144.754C184.78 144.793 184.78 144.831 184.819 144.87C184.857 144.948 184.896 145.026 184.974 145.104C184.935 145.026 185.051 145.22 184.974 145.104C184.974 145.142 185.013 145.181 185.013 145.22C185.051 145.298 185.051 145.376 185.09 145.492C185.09 145.337 185.129 145.609 185.09 145.492C185.09 145.531 185.09 145.57 185.09 145.609C185.09 145.686 185.09 145.764 185.09 145.881C185.09 146.036 185.129 145.764 185.09 145.881C185.09 145.92 185.09 145.959 185.051 145.997C185.051 146.075 185.013 146.153 184.974 146.269C184.974 146.308 184.935 146.347 184.935 146.386C184.896 146.464 185.013 146.269 184.935 146.386C184.896 146.464 184.857 146.541 184.819 146.619C184.78 146.697 184.741 146.775 184.664 146.852C184.625 146.93 184.741 146.736 184.664 146.852C184.625 146.891 184.586 146.93 184.586 146.969C184.547 147.047 184.47 147.086 184.431 147.124C184.392 147.163 184.392 147.163 184.353 147.202C184.237 147.319 184.431 147.163 184.353 147.202C184.198 147.28 184.082 147.358 183.927 147.435C183.849 147.474 184.082 147.396 183.927 147.435C183.888 147.435 183.849 147.474 183.81 147.474C183.733 147.513 183.655 147.513 183.539 147.552H183.5C183.423 147.591 183.617 147.552 183.539 147.552C183.5 147.552 183.461 147.552 183.384 147.552C183.306 147.552 183.19 147.552 183.112 147.552C182.996 147.552 183.268 147.591 183.112 147.552C183.074 147.552 183.035 147.552 182.957 147.513C182.919 147.513 182.841 147.474 182.802 147.474C182.763 147.474 182.763 147.474 182.763 147.435C182.647 147.396 182.763 147.474 182.802 147.435C182.763 147.435 182.57 147.319 182.531 147.28C182.492 147.241 182.453 147.202 182.376 147.202C182.337 147.163 182.337 147.163 182.414 147.241C182.414 147.202 182.337 147.202 182.337 147.163C182.259 147.086 182.143 147.008 182.065 146.891C182.027 146.852 181.988 146.813 181.949 146.736C181.872 146.619 181.91 146.697 181.949 146.736C181.91 146.697 181.91 146.658 181.872 146.619C181.678 146.386 181.367 146.231 181.057 146.425C180.786 146.58 180.631 146.969 180.824 147.202ZM155.386 78.2985C155.386 78.2207 155.347 78.1819 155.347 78.1042C155.386 78.2596 155.347 78.1819 155.347 78.143C155.347 78.1042 155.347 78.1042 155.347 78.0653C155.347 78.0264 155.347 77.9487 155.347 77.9098C155.347 77.871 155.386 77.7544 155.347 77.9487C155.347 77.9098 155.347 77.871 155.347 77.8321C155.347 77.7933 155.386 77.7155 155.386 77.6767C155.386 77.6378 155.502 77.4435 155.386 77.5989C155.463 77.4824 155.502 77.3658 155.58 77.288L155.618 77.2492C155.657 77.2103 155.735 77.1715 155.618 77.2492C155.657 77.2103 155.696 77.1715 155.735 77.0937C155.774 77.0549 155.812 77.016 155.851 76.9771C155.89 76.9383 155.89 76.9383 155.929 76.8994C155.851 76.9383 156.045 76.7828 155.929 76.8994C156.006 76.8217 156.123 76.7828 156.2 76.7051C156.239 76.7051 156.278 76.6662 156.278 76.6662C156.278 76.6662 156.123 76.7051 156.239 76.7051C156.316 76.6662 156.355 76.6662 156.433 76.6274C156.472 76.6274 156.549 76.5885 156.588 76.5885C156.704 76.5496 156.433 76.5885 156.549 76.5885C156.588 76.5885 156.627 76.5885 156.627 76.5885C156.665 76.5885 156.743 76.5885 156.782 76.5885C156.821 76.5885 156.859 76.5885 156.859 76.5885C156.743 76.5885 156.743 76.5885 156.782 76.5885C156.821 76.5885 156.821 76.5885 156.859 76.5885C156.821 76.5885 156.821 76.5496 156.782 76.5496C156.782 76.5496 156.821 76.5496 156.821 76.5885C156.859 76.5885 156.859 76.6274 156.898 76.6274C156.937 76.6662 156.976 76.6662 157.053 76.7051C157.131 76.744 157.247 76.8217 157.325 76.8994C157.363 76.8994 157.363 76.9383 157.402 76.9383C157.247 76.8217 157.325 76.8994 157.363 76.8994C157.402 76.9383 157.441 76.9383 157.441 76.9771C157.519 77.0549 157.557 77.0937 157.635 77.1715L157.674 77.2103C157.557 77.0549 157.596 77.1326 157.635 77.1715C157.674 77.2103 157.674 77.2103 157.712 77.2492C157.751 77.3269 157.79 77.4046 157.829 77.4435C157.868 77.5212 157.751 77.288 157.79 77.3658C157.79 77.3658 157.79 77.4046 157.829 77.4046C157.829 77.4435 157.868 77.4824 157.868 77.4824C157.868 77.5212 157.868 77.5601 157.906 77.5989C157.906 77.6767 157.906 77.7933 157.906 77.5601C157.906 77.6378 157.906 77.6767 157.906 77.7544C157.906 77.7933 157.906 77.8321 157.906 77.871V77.9098C157.906 78.0264 157.906 77.8321 157.906 77.8321C157.868 77.871 157.868 77.9876 157.868 78.0264C157.868 78.1042 157.829 78.1819 157.79 78.2207C157.751 78.2985 157.868 78.0653 157.829 78.143C157.829 78.143 157.829 78.1819 157.79 78.1819C157.79 78.2207 157.751 78.2596 157.751 78.2596C157.712 78.3373 157.674 78.3762 157.635 78.4539C157.635 78.4928 157.596 78.4928 157.596 78.5316C157.635 78.4539 157.712 78.3373 157.596 78.5316C157.557 78.5705 157.48 78.6482 157.441 78.6871C157.402 78.726 157.208 78.8814 157.402 78.726C157.325 78.7648 157.286 78.8037 157.208 78.8426C157.17 78.8814 157.092 78.9203 157.014 78.9203C156.898 78.998 157.131 78.8814 157.053 78.9203C157.014 78.9203 156.976 78.9591 156.937 78.9591C156.859 78.998 156.821 78.998 156.743 78.998C156.665 78.998 156.549 78.998 156.782 78.998C156.743 78.998 156.704 78.998 156.665 78.998C156.588 78.998 156.51 78.998 156.433 78.998C156.394 78.998 156.316 78.9591 156.51 78.998H156.471C156.433 78.998 156.394 78.998 156.355 78.9591C156.316 78.9591 156.278 78.9203 156.239 78.9203C156.239 78.9203 156.2 78.9203 156.2 78.8814C156.084 78.8425 156.316 78.9591 156.239 78.9203C156.161 78.8814 156.084 78.8426 156.006 78.8037C155.967 78.7648 155.929 78.7648 155.89 78.726C156.084 78.8425 155.929 78.726 155.851 78.6871C155.774 78.6094 155.696 78.5317 155.618 78.4539L155.58 78.4151C155.502 78.2985 155.657 78.4928 155.58 78.4151C155.541 78.3762 155.502 78.2985 155.463 78.2596C155.386 78.143 155.347 78.0264 155.269 77.9098C155.114 77.6378 154.726 77.5212 154.455 77.7155C154.184 77.9098 154.106 78.2207 154.261 78.5316C154.688 79.3866 155.425 80.0862 156.433 80.125C157.17 80.1639 157.945 79.7753 158.41 79.2312C158.915 78.6094 159.186 77.7933 158.915 77.016C158.759 76.5885 158.527 76.1999 158.178 75.9278C157.984 75.7724 157.751 75.6169 157.519 75.4615C157.441 75.4226 157.363 75.3838 157.286 75.3449C157.17 75.306 157.053 75.2672 156.898 75.2672C156.782 75.2672 156.627 75.2672 156.51 75.2672C155.89 75.3449 155.269 75.6558 154.843 76.1222C154.416 76.5885 154.145 77.2103 154.184 77.871C154.184 78.0264 154.222 78.2207 154.261 78.3762C154.339 78.6871 154.688 78.8814 154.959 78.7648C155.269 78.9203 155.463 78.6094 155.386 78.2985ZM0.930468 83.4284C1.66726 83.8558 2.55915 83.9724 3.33472 83.5838C3.9164 83.2729 4.34293 82.6122 4.45927 81.9516C4.5756 81.2132 4.42053 80.4748 3.9164 79.9307C3.64495 79.6587 3.29591 79.4644 2.90812 79.3478C2.67545 79.27 2.44285 79.27 2.21018 79.2312C1.89995 79.2312 1.62848 79.3089 1.31825 79.4255C0.154895 79.9696 -0.388043 81.6407 0.309972 82.7288C0.465087 83.0009 0.852911 83.1175 1.12436 82.9231C1.39581 82.7677 1.51215 82.4179 1.31825 82.107C1.27948 82.0682 1.27949 82.0293 1.24072 81.9904C1.20194 81.9127 1.24072 82.0293 1.24072 82.0293C1.24072 82.0293 1.2019 81.9904 1.2019 81.9516C1.2019 81.9127 1.16308 81.835 1.16308 81.7961C1.16308 81.7573 1.16308 81.7573 1.16308 81.7184C1.16308 81.6407 1.16308 81.835 1.16308 81.7573C1.16308 81.6407 1.16308 81.5629 1.16308 81.4464V81.3686C1.20186 81.4464 1.1243 81.4852 1.16308 81.4075C1.16308 81.3298 1.2019 81.2909 1.2019 81.2132C1.2019 81.1743 1.24072 81.1355 1.24072 81.0577L1.27944 80.98C1.27944 80.98 1.24066 81.0966 1.27944 81.0189C1.31822 80.9023 1.39583 80.8246 1.43461 80.7468L1.47333 80.6691C1.47333 80.6691 1.39583 80.7857 1.43461 80.708C1.47339 80.6691 1.51209 80.6302 1.55087 80.5914C1.58965 80.5525 1.62845 80.5136 1.66722 80.4748C1.74478 80.3971 1.6285 80.5136 1.6285 80.5136C1.6285 80.5136 1.70604 80.4748 1.70604 80.4359C1.74482 80.3971 1.78362 80.3971 1.8224 80.3582C1.86117 80.3582 1.86116 80.3193 1.89993 80.3193C1.97749 80.2805 1.86112 80.3582 1.86112 80.3193C1.86112 80.3193 1.97751 80.2805 2.01629 80.2805C2.05507 80.2805 2.05505 80.2805 2.09383 80.2805C1.97749 80.2805 2.21016 80.2416 2.09383 80.2805C2.17138 80.2805 2.2877 80.2805 2.36526 80.2805C2.40404 80.2805 2.40402 80.2805 2.4428 80.2805C2.4428 80.2805 2.2877 80.2416 2.36526 80.2805C2.40404 80.2805 2.44283 80.2805 2.48161 80.3193C2.55917 80.3193 2.63667 80.3582 2.71423 80.3971C2.75301 80.3971 2.7918 80.4359 2.83058 80.4359C2.83058 80.4359 2.67549 80.3582 2.75304 80.3971C2.75304 80.3971 2.79186 80.3971 2.79186 80.4359C2.86942 80.4748 2.9082 80.5137 2.98575 80.5525C3.02453 80.5525 3.02451 80.5914 3.06329 80.5914C3.06329 80.5914 2.94698 80.4748 2.98575 80.5525L3.02448 80.5914C3.06325 80.6302 3.10205 80.6691 3.14083 80.708C3.14083 80.708 3.21839 80.8246 3.14083 80.708C3.06327 80.6302 3.14087 80.708 3.17965 80.7468C3.21843 80.7857 3.25719 80.8634 3.25719 80.9023C3.25719 80.9411 3.33474 81.0189 3.25719 80.9023C3.21841 80.7857 3.25719 80.9023 3.25719 80.9411C3.29596 80.98 3.29591 81.0577 3.29591 81.1355C3.29591 81.1743 3.29591 81.1743 3.29591 81.2132C3.33469 81.3298 3.29591 81.0577 3.29591 81.1743C3.29591 81.2909 3.29591 81.4075 3.29591 81.5241C3.29591 81.6407 3.33469 81.4075 3.29591 81.4852C3.29591 81.5241 3.29591 81.5241 3.29591 81.563C3.29591 81.6407 3.25719 81.6795 3.25719 81.7573C3.25719 81.7961 3.21843 81.8738 3.17965 81.9127C3.2572 81.6795 3.17961 81.9127 3.14083 81.9516C3.10205 81.9904 3.10207 82.0682 3.06329 82.107C3.06329 82.1459 3.02448 82.1459 3.02448 82.1847C3.06325 82.107 3.14081 82.0293 3.02448 82.1847C2.9857 82.2236 2.9469 82.2625 2.90812 82.3013C2.86934 82.3013 2.86936 82.3402 2.83058 82.3402C2.7918 82.3791 2.90812 82.3013 2.90812 82.3013L2.8694 82.3402C2.83062 82.3791 2.75301 82.4179 2.71423 82.4568C2.63667 82.4957 2.55915 82.4957 2.75304 82.4568C2.71427 82.4568 2.67547 82.4957 2.63669 82.4957C2.55913 82.5345 2.52035 82.5345 2.4428 82.5345C2.36524 82.5734 2.52033 82.5345 2.52033 82.5345C2.48156 82.5345 2.48158 82.5345 2.4428 82.5345C2.40402 82.5345 2.36522 82.5345 2.32644 82.5345C2.24888 82.5345 2.17138 82.5345 2.09383 82.5345C2.13261 82.5345 2.28772 82.5345 2.09383 82.5345C2.05505 82.5345 2.01625 82.5345 1.97747 82.4957C1.89991 82.4568 1.7836 82.4179 1.70604 82.4179C1.89993 82.4568 1.706 82.4179 1.66722 82.3791C1.62845 82.3402 1.55093 82.3402 1.51215 82.3013C1.2407 82.1459 0.852873 82.2236 0.697758 82.4957C0.581422 82.9231 0.659018 83.2729 0.930468 83.4284Z" fill="black"/>
<path d="M101.212 76.9773C103.073 75.1507 105.749 74.218 108.347 74.5678C108.657 74.6066 108.929 74.8009 108.929 75.1507C108.929 75.4227 108.657 75.7725 108.347 75.7337C106.059 75.4227 103.694 76.2 102.026 77.8322C101.522 78.3375 100.708 77.5213 101.212 76.9773ZM89.7335 84.7887L89.6947 84.7498C89.6947 84.7498 89.6947 84.7887 89.7335 84.7887ZM86.0107 61.7819C86.1658 62.054 86.5536 62.1706 86.8251 61.9762C87.0965 61.7819 87.1741 61.471 87.019 61.1601C86.7475 60.6549 86.476 60.1497 86.2046 59.6445C86.0495 59.3724 85.6617 59.2559 85.3903 59.4502C85.1188 59.6445 85.0413 59.9554 85.1964 60.2663C85.4678 60.7715 85.7392 61.2767 86.0107 61.7819ZM85.5065 87.3147C85.5065 87.3536 85.5065 87.3536 85.5065 87.3147C85.5065 87.3536 85.5065 87.3536 85.5065 87.3147C85.5065 87.3536 85.5065 87.3147 85.5065 87.3147ZM85.5065 87.3147C85.5065 87.3536 85.5065 87.3536 85.5065 87.3147V87.3147ZM97.5667 171.103C97.6055 171.103 97.6055 171.103 97.5667 171.103C97.5667 171.103 97.6055 171.103 97.5667 171.103ZM92.1765 115.685C92.4868 116.928 92.0602 118.249 91.0519 119.027C89.8885 119.882 88.1047 119.765 87.0577 118.755C86.0882 117.861 85.8556 116.345 86.3209 115.14C86.8251 113.741 88.066 112.886 89.5396 112.925C89.9274 112.925 90.1212 113.275 90.0824 113.586C90.3927 113.664 90.703 113.78 91.0132 113.975C91.5949 114.363 91.9827 114.985 92.1765 115.685ZM90.0437 118.249C90.0437 118.249 90.1213 118.211 90.0437 118.249V118.249ZM91.0907 116.578C91.0907 116.462 91.0907 116.345 91.0907 116.267C91.0907 116.229 91.0907 116.229 91.0907 116.229V116.19C91.0907 116.151 91.0519 116.073 91.0519 116.034C91.0131 115.918 90.9743 115.801 90.9356 115.723C90.9356 115.685 90.8968 115.685 90.8968 115.646C90.8581 115.607 90.8581 115.529 90.8193 115.49C90.7805 115.451 90.7804 115.413 90.7417 115.374L90.7029 115.335C90.6254 115.257 90.5478 115.14 90.4315 115.063L90.3927 115.024C90.3539 114.985 90.3151 114.985 90.2763 114.946C90.2376 114.907 90.16 114.868 90.0824 114.868C90.0437 114.868 90.0437 114.868 90.0049 114.83C89.8886 114.791 89.7722 114.752 89.6171 114.752C89.5783 114.752 89.5784 114.752 89.5396 114.752C89.462 114.752 89.3844 114.752 89.3069 114.752C89.2293 114.752 89.1518 114.752 89.0743 114.752C89.0355 114.752 88.8415 114.791 88.9191 114.752C88.6476 114.791 88.3762 114.674 88.2599 114.441C88.1823 114.48 88.1435 114.519 88.066 114.558C88.066 114.558 88.0659 114.558 88.0272 114.558L87.9884 114.596C87.8721 114.674 87.7945 114.791 87.6782 114.907C87.6782 114.946 87.6394 114.946 87.6394 114.985C87.6006 115.063 87.5619 115.102 87.5231 115.179C87.4843 115.218 87.4455 115.296 87.4455 115.335L87.4068 115.413V115.451C87.368 115.568 87.3292 115.723 87.2904 115.84C87.2904 115.918 87.2516 115.957 87.2516 116.034C87.2516 116.073 87.2516 116.073 87.2516 116.112C87.2516 116.229 87.2516 116.345 87.2516 116.501C87.2516 116.578 87.2516 116.656 87.2516 116.695V116.734C87.2516 116.734 87.2516 116.734 87.2516 116.773C87.2904 116.889 87.2904 117.006 87.3292 117.122C87.368 117.2 87.368 117.239 87.4068 117.317C87.4068 117.356 87.4455 117.356 87.4455 117.395C87.4843 117.511 87.5618 117.589 87.6394 117.705L87.6782 117.783C87.717 117.822 87.7558 117.861 87.7945 117.939C87.8333 117.977 87.8721 118.016 87.9496 118.055L87.9884 118.094C87.9884 118.094 87.9884 118.094 88.0272 118.094C88.1435 118.172 88.2599 118.249 88.3762 118.288C88.415 118.288 88.4538 118.327 88.4538 118.327C88.5313 118.366 88.6089 118.366 88.6477 118.405C88.7252 118.444 88.8028 118.444 88.8804 118.444H88.9191C88.9579 118.444 88.9966 118.444 88.9966 118.444C89.1517 118.444 89.2681 118.444 89.4232 118.444C89.4232 118.444 89.4233 118.444 89.462 118.444C89.5008 118.444 89.5395 118.444 89.5783 118.405C89.6559 118.405 89.6946 118.366 89.7722 118.366C89.8498 118.366 89.8885 118.327 89.9661 118.288C90.0049 118.288 90.0049 118.249 90.0437 118.249C90.1601 118.211 90.2376 118.133 90.3152 118.094C90.3539 118.094 90.3927 118.055 90.3927 118.016C90.4315 117.977 90.4703 117.939 90.509 117.9C90.5478 117.861 90.5866 117.822 90.6254 117.783L90.6641 117.744C90.7417 117.628 90.7805 117.55 90.8193 117.433C90.8193 117.433 90.8192 117.395 90.858 117.395C90.858 117.395 90.858 117.395 90.858 117.356C90.858 117.317 90.8968 117.239 90.8968 117.2C90.9356 117.084 90.9356 117.006 90.9744 116.889C90.9744 116.85 90.9744 116.85 90.9744 116.85C90.9744 116.85 90.9744 116.85 90.9744 116.812C91.0907 116.695 91.0907 116.617 91.0907 116.578ZM113.466 126.799C113.737 128.276 112.535 129.287 111.294 129.831C111.837 130.647 112.225 131.541 112.264 132.512C112.303 133.173 112.07 133.911 111.527 134.339C111.023 134.766 110.325 134.883 109.704 134.688C108.308 134.261 107.766 132.784 107.688 131.385C107.3 131.579 106.835 131.657 106.369 131.618C104.935 131.541 103.5 130.375 103.655 128.82C103.771 127.887 104.314 127.11 105.245 126.838C105.827 126.683 106.408 126.722 106.912 126.994C106.68 126.139 106.602 125.245 106.951 124.429C107.494 123.185 109.084 122.913 110.092 123.807C110.558 124.234 110.751 124.74 110.751 125.245C111.954 124.934 113.233 125.517 113.466 126.799ZM111.837 126.372C111.799 126.372 111.837 126.372 111.837 126.372V126.372ZM108.037 124.973C108.076 124.934 108.076 124.934 108.037 124.973V124.973ZM110.402 133.639C110.48 133.639 110.48 133.639 110.402 133.639V133.639ZM110.907 133.367C110.868 133.406 110.868 133.406 110.907 133.367V133.367ZM112.341 127.266C112.341 127.227 112.341 127.149 112.341 127.11C112.341 127.11 112.341 127.11 112.341 127.071C112.341 127.032 112.303 126.994 112.303 126.916L112.264 126.838C112.264 126.799 112.225 126.76 112.225 126.76C112.186 126.722 112.186 126.683 112.148 126.644C112.186 126.683 112.186 126.683 112.109 126.605C112.07 126.566 112.031 126.527 111.992 126.488C111.954 126.45 111.915 126.45 111.876 126.411C111.876 126.411 111.876 126.411 111.837 126.411C111.799 126.411 111.721 126.372 111.682 126.372C111.643 126.372 111.605 126.372 111.605 126.372C111.566 126.372 111.527 126.372 111.488 126.372C111.488 126.372 111.411 126.372 111.372 126.372C111.333 126.372 111.256 126.372 111.256 126.411C111.217 126.411 111.139 126.45 111.1 126.45C111.1 126.45 111.062 126.45 111.062 126.488C111.023 126.527 110.945 126.566 110.907 126.566C110.868 126.566 110.751 126.683 110.751 126.683C110.713 126.722 110.635 126.76 110.596 126.799C110.519 126.838 110.48 126.916 110.441 126.994C110.209 127.499 109.86 127.965 109.549 128.354C109.355 128.587 109.006 128.548 108.774 128.393C108.541 128.198 108.502 127.887 108.619 127.654C108.851 127.188 109.123 126.683 109.511 126.255C109.549 126.216 109.549 126.139 109.549 126.139C109.588 126.061 109.588 125.944 109.627 125.867C109.627 125.828 109.627 125.789 109.666 125.75C109.666 125.672 109.666 125.595 109.666 125.517C109.666 125.439 109.627 125.245 109.666 125.4C109.666 125.361 109.627 125.284 109.627 125.245C109.627 125.206 109.588 125.167 109.588 125.089C109.588 125.089 109.588 125.05 109.549 125.05C109.511 125.012 109.472 124.934 109.472 124.895L109.433 124.856C109.394 124.817 109.355 124.778 109.317 124.74C109.278 124.701 109.2 124.662 109.162 124.662H109.123C109.045 124.662 108.968 124.623 108.89 124.584H108.851C108.813 124.584 108.774 124.584 108.696 124.584C108.657 124.584 108.619 124.623 108.541 124.623H108.502C108.464 124.662 108.425 124.662 108.386 124.701C108.386 124.701 108.386 124.701 108.347 124.74C108.308 124.778 108.27 124.817 108.231 124.856L108.192 124.895C108.192 124.895 108.192 124.856 108.231 124.856L108.192 124.895C108.192 124.895 108.192 124.895 108.192 124.856V124.895C108.153 124.934 108.153 124.973 108.115 125.012C108.115 125.012 108.076 125.05 108.076 125.089C108.037 125.167 108.037 125.206 107.998 125.284C107.998 125.323 107.959 125.4 107.959 125.439C107.959 125.478 107.959 125.556 107.959 125.595C107.959 125.789 107.959 125.944 107.959 126.139C107.959 126.177 107.959 126.177 107.959 126.177C107.959 126.177 107.959 126.177 107.959 126.216C107.959 126.255 107.959 126.333 107.998 126.372C108.037 126.488 108.037 126.566 108.076 126.683C108.153 126.916 108.231 127.149 108.308 127.382C108.425 127.693 108.192 128.004 107.921 128.082C107.882 128.082 107.843 128.082 107.804 128.082C107.765 128.237 107.649 128.354 107.533 128.432C107.223 128.587 106.912 128.47 106.719 128.237C106.447 127.849 105.749 127.887 105.322 128.159C105.129 128.276 105.012 128.432 104.935 128.665C104.896 128.742 104.896 128.82 104.896 128.898C104.857 129.014 104.896 128.898 104.896 128.976C104.896 129.053 104.896 129.092 104.896 129.17C104.896 129.209 104.896 129.248 104.896 129.248C104.896 129.325 104.935 129.364 104.935 129.442L104.973 129.52C105.012 129.636 105.09 129.714 105.129 129.831C105.129 129.869 105.167 129.869 105.167 129.908C105.206 129.947 105.245 129.986 105.284 130.025C105.361 130.103 105.361 130.103 105.478 130.18C105.865 130.452 106.253 130.53 106.757 130.491C106.835 130.491 106.757 130.491 106.874 130.491C106.951 130.491 107.029 130.452 107.067 130.452C107.223 130.414 107.223 130.414 107.339 130.336C107.572 130.219 107.727 130.103 107.921 129.869C108.231 129.481 108.968 129.792 108.929 130.297C108.89 130.802 108.851 131.463 108.929 131.851C108.968 132.085 109.006 132.279 109.084 132.512C109.084 132.551 109.123 132.629 109.162 132.668C109.2 132.745 109.239 132.823 109.278 132.901C109.317 132.978 109.355 133.056 109.433 133.134C109.433 133.173 109.472 133.173 109.472 133.173C109.472 133.173 109.472 133.173 109.511 133.212C109.588 133.289 109.666 133.367 109.743 133.445C109.782 133.484 109.821 133.523 109.86 133.523C109.898 133.561 109.976 133.561 110.015 133.6H110.053C110.092 133.6 110.17 133.639 110.209 133.639H110.247C110.247 133.639 110.247 133.639 110.286 133.639C110.325 133.639 110.402 133.639 110.441 133.639H110.48C110.519 133.639 110.596 133.6 110.635 133.6H110.674C110.713 133.561 110.751 133.561 110.829 133.523C110.829 133.523 110.868 133.523 110.868 133.484C110.907 133.445 110.945 133.406 110.984 133.367L111.023 133.328C111.023 133.328 111.023 133.328 111.023 133.289C111.062 133.251 111.062 133.212 111.1 133.134C111.1 133.134 111.1 133.134 111.1 133.095C111.1 133.095 111.1 133.095 111.1 133.056C111.1 133.017 111.139 132.94 111.139 132.901C111.139 132.862 111.178 132.706 111.178 132.745C111.178 132.706 111.178 132.629 111.178 132.59C111.178 132.512 111.178 132.434 111.178 132.357C111.178 132.318 111.178 132.279 111.178 132.24C111.023 131.307 110.558 130.53 109.976 129.753C109.743 129.442 110.015 128.976 110.325 128.898C110.79 128.781 111.178 128.626 111.566 128.354C111.76 128.237 111.76 128.198 111.915 128.082C111.954 128.043 112.031 127.965 112.07 127.926L112.109 127.887L112.148 127.849C112.186 127.771 112.225 127.732 112.264 127.654L112.303 127.577C112.341 127.499 112.341 127.382 112.38 127.305C112.341 127.305 112.341 127.266 112.341 127.266ZM111.1 132.318C111.1 132.357 111.1 132.396 111.1 132.318V132.318ZM163.956 166.245C163.723 169.432 162.909 172.735 160.892 175.3C160.117 176.272 159.108 177.204 157.945 177.709C156.937 178.176 155.812 178.37 154.726 178.564C150.926 179.264 147.048 179.653 143.17 180.002C139.099 180.352 135.027 180.663 130.916 180.78C126.689 180.896 122.463 180.508 118.313 179.769C113.854 178.992 109.433 177.826 105.129 176.349C103.461 175.766 101.794 175.106 100.204 174.328C99.2342 173.862 98.2648 173.357 97.4117 172.657C97.0627 176.816 93.6889 180.236 89.3457 180.236H89.3069H24.818C21.2116 180.236 18.1481 177.865 17.1011 174.562H15.3949C13.5723 174.562 11.9435 173.163 11.4006 171.103L0.852879 132.862C-0.0390294 129.636 1.97738 126.333 4.847 126.333H49.5976C51.3039 123.418 53.2816 120.659 55.4144 118.055C58.7106 114.052 62.5108 110.477 66.6989 107.446C68.5991 106.047 70.6156 104.764 72.6709 103.637C72.7097 102.199 72.7872 100.722 72.826 99.2845C73.0198 94.7764 73.2138 90.2683 73.4464 85.7602C73.5628 83.5062 73.6404 81.291 73.7567 79.037C72.6709 78.6095 71.585 78.182 70.4992 77.7545C66.9316 76.3943 63.4027 74.9953 59.8351 73.5962C59.331 73.4019 59.2923 72.8578 59.68 72.5469C60.029 72.2749 60.378 72.0028 60.727 71.6919C64.5273 68.4275 67.746 64.5023 71.0809 60.8104C73.9893 57.6236 76.9753 54.398 80.3491 51.6388C81.0471 46.6255 89.6947 39.7856 95.24 43.8273C110.131 38.1534 121.765 57.0018 116.258 69.3602C115.444 71.4199 114.435 73.4019 113.272 75.3062C114.009 77.4825 113.815 80.0086 111.992 82.2626C114.94 86.5375 121.222 88.092 125.759 85.2162C126.379 84.8275 127.31 84.4778 127.698 85.0607C125.836 91.7062 118.003 96.3309 111.411 97.6911C111.721 98.5849 112.031 99.4788 112.341 100.373C112.535 100.45 112.69 100.489 112.884 100.567C118.313 102.782 123.238 105.93 127.814 109.583C132.312 113.197 136.5 117.161 140.495 121.32C144.334 125.323 147.979 129.559 151.314 134.028C152.943 135.932 154.494 137.953 155.89 140.051C158.682 144.288 160.892 148.951 162.327 153.809C163.568 157.812 164.266 162.048 163.956 166.245ZM83.2186 49.3847C84.4208 48.5297 85.6617 47.7525 87.019 47.1307C85.6229 47.6359 84.3044 48.4131 83.2186 49.3847ZM74.5323 77.9877C74.7649 78.0654 74.9588 78.2597 74.9588 78.5318C74.92 79.3867 74.8812 80.2417 74.8424 81.0967C74.6485 85.1773 74.4547 89.219 74.2996 93.2996C74.1444 97.1859 73.9506 101.072 73.8342 104.958C76.3548 105.852 78.953 106.552 81.59 107.018C91.8663 108.845 102.686 107.29 112.031 102.627C111.488 101.111 110.945 99.5954 110.441 98.0797C108.929 93.7271 107.533 89.3356 106.176 84.9441H106.137C104.547 84.9441 102.996 84.4778 101.716 83.5451C101.445 83.3507 101.406 83.001 101.6 82.729C101.794 82.4569 102.143 82.418 102.414 82.6124C104.857 84.4389 108.735 84.0891 110.868 81.874C113.466 79.1147 112.884 75.6559 111.178 73.4796C109.433 71.3033 106.214 69.9431 102.957 71.8474C102.685 72.0028 102.336 71.9251 102.181 71.6531C102.026 71.381 102.104 71.0313 102.375 70.8369C102.685 70.6426 102.996 70.4872 103.306 70.3706C102.957 68.4275 102.647 66.4843 102.337 64.5412C90.9744 64.7744 85.0801 57.7013 89.8498 47.2084C86.9026 48.18 84.2269 50.0065 81.8614 51.8719C77.5957 55.3307 73.9118 59.4113 70.2666 63.4919C67.397 66.6786 64.5661 70.0597 61.2312 72.7801C61.3087 72.8189 61.4251 72.8578 61.5026 72.8967C65.807 74.6066 70.1891 76.3166 74.5323 77.9877ZM68.5216 173.357C69.3747 173.357 70.1503 172.929 70.7319 172.152C71.5075 171.103 71.779 169.626 71.43 168.266L60.8821 130.025C60.4556 128.47 59.2922 127.421 58.0125 127.421H4.88582C4.03269 127.421 3.25713 127.849 2.67546 128.626C1.89988 129.675 1.62841 131.152 1.97742 132.512L12.5252 170.753C12.9518 172.308 14.1152 173.357 15.3949 173.357H68.5216ZM67.8235 145.57C67.6297 145.57 67.4358 145.609 67.2419 145.57C66.699 145.492 66.3499 145.259 66.1172 144.948L69.6849 157.928C70.2666 157.773 70.8095 157.617 71.3912 157.462C71.236 157.19 71.1585 156.84 71.1585 156.49C71.0809 154.703 72.9811 153.731 74.5323 153.615C75.6181 153.537 76.7427 153.77 77.8285 153.381C78.2938 153.226 78.6815 152.915 78.7591 152.41C78.8367 152.06 78.8367 151.71 78.7591 151.361C78.4877 150.117 76.8978 149.845 75.7732 149.728C74.222 149.573 72.5933 149.689 71.0422 149.379C69.2972 149.029 67.6684 147.397 67.8235 145.57ZM70.0339 159.017L72.5157 167.994C72.632 168.46 72.7096 168.927 72.7096 169.354C81.2409 169.354 88.4926 169.354 92.448 169.354C90.7805 168.421 89.2681 167.139 88.1823 165.545C86.7087 163.447 85.8556 160.726 83.3737 159.599C80.9307 158.511 78.1387 159.211 75.5793 159.172C74.571 159.172 73.2913 158.978 72.3606 158.356C71.5851 158.589 70.8095 158.783 70.0339 159.017ZM96.2483 171.297V171.258V171.219C96.2483 171.025 96.1707 170.87 96.0544 170.753C95.783 170.675 95.5115 170.636 95.24 170.559C93.4174 170.559 84.1493 170.559 72.6321 170.559C72.2443 172.774 70.6156 174.562 68.4828 174.562H18.3033C19.3115 177.204 21.8321 179.07 24.7793 179.07H89.2682H89.3069C91.2458 179.07 93.0296 178.292 94.3481 176.855C95.7441 175.339 96.4034 173.318 96.2483 171.297ZM98.1096 168.771C98.8464 167.799 99.4669 166.75 100.01 165.701C101.096 163.563 101.871 161.193 102.104 158.822C102.181 157.773 102.22 156.724 101.987 155.674C101.91 155.325 101.832 154.975 101.716 154.586C100.708 153.148 99.6608 151.788 98.5362 150.506C95.9768 147.513 93.146 144.676 90.0049 142.306C87.1353 140.129 83.9167 138.186 80.4266 137.331C77.3631 136.593 74.1832 136.942 71.5851 138.769C71.3136 138.963 71.0034 139.197 70.7319 139.43C74.7649 138.264 79.1081 138.575 82.9472 140.362C83.6452 140.673 83.0248 141.684 82.3655 141.373C78.2938 139.469 73.3689 139.391 69.2583 141.217C69.1032 141.295 68.9869 141.295 68.8706 141.256C68.7542 141.295 68.6379 141.373 68.5216 141.412C68.1726 141.645 67.8235 141.917 67.5908 142.267C67.2418 142.772 66.8928 143.51 67.0867 144.093C67.1255 144.249 67.2418 144.404 67.3969 144.443C67.746 144.56 68.0949 144.443 68.4439 144.326C68.4827 144.326 68.4828 144.326 68.5216 144.326C71.9341 140.168 77.8284 142.422 81.4736 144.948C82.0941 145.376 81.5124 146.386 80.8919 145.959C77.6733 143.743 72.3606 141.412 69.3359 145.143C69.2971 145.22 69.2196 145.259 69.1808 145.259C69.1808 145.259 69.1808 145.259 69.1808 145.298C68.6767 146.464 69.8012 147.707 70.8095 148.135C71.4687 148.407 72.2443 148.407 72.9811 148.446C74.6486 148.524 76.4711 148.446 78.0611 149.029C79.4959 149.573 80.2715 150.739 80.1164 152.293C80.0388 152.837 79.9612 153.304 79.5347 153.731C79.1857 154.12 78.7591 154.353 78.2938 154.508C77.2468 154.858 76.1221 154.819 75.0363 154.78C74.2607 154.78 73.4077 154.936 72.8648 155.519C72.5158 155.907 72.3606 156.413 72.5545 156.84C72.8648 157.579 73.7955 157.889 74.5323 157.967C75.7732 158.162 77.0916 158.006 78.3325 157.928C80.8919 157.773 83.5289 157.889 85.5842 159.638C87.4843 161.271 88.2211 163.797 89.811 165.662C91.2846 167.45 93.3011 168.693 95.5115 169.354C95.6278 169.354 95.6666 169.354 95.6666 169.354C96.0156 169.354 96.3646 169.471 96.6361 169.626C96.8688 169.665 97.1014 169.704 97.334 169.743C97.5667 169.471 97.8382 169.121 98.1096 168.771ZM162.598 160.299C162.017 155.869 160.66 151.516 158.759 147.474C156.549 142.694 153.641 138.303 150.151 134.339C149.995 134.144 149.957 133.95 150.034 133.756L149.646 133.639C148.755 132.434 147.824 131.269 146.854 130.141C142.899 125.323 138.556 120.737 134.019 116.462C130.257 112.964 126.34 109.583 122.075 106.707C119.166 104.764 116.103 103.093 112.884 101.772C113.001 102.121 113.117 102.471 113.233 102.821C113.311 103.054 113.233 103.248 113.117 103.365C113.156 103.482 113.195 103.598 113.156 103.715C112.729 105.813 111.76 107.718 110.402 109.35C108.037 112.109 104.586 113.819 101.018 114.208C97.334 114.596 93.6113 113.469 90.858 110.982C90.3151 110.477 91.1295 109.661 91.6724 110.166C93.1072 111.449 94.8134 112.342 96.6748 112.809C103.112 114.363 110.247 110.438 111.915 103.987C109.549 105.153 107.067 106.085 104.508 106.863C94.1542 109.933 82.7921 109.622 72.6321 105.852C72.3218 105.736 72.2055 105.464 72.2443 105.192C68.5991 107.329 65.1866 109.855 62.0843 112.692C58.4003 116.073 55.1429 119.882 52.3508 124.001C51.8467 124.778 51.3427 125.556 50.8773 126.333H57.8575C59.6801 126.333 61.3087 127.732 61.8516 129.792L65.6907 143.782C65.6907 143.083 65.9621 142.306 66.3111 141.761C66.6214 141.334 66.9704 140.984 67.3582 140.673C67.5521 140.518 67.7848 140.401 68.0174 140.285C68.0562 140.246 68.1337 140.246 68.1725 140.207C68.2113 140.207 68.2889 140.129 68.3277 140.129C68.3665 140.09 68.444 139.974 68.4828 139.935C69.1032 139.197 69.84 138.536 70.6156 137.953C73.4464 135.854 77.014 135.427 80.3878 136.204C84.1881 137.059 87.6781 139.197 90.7417 141.528C94.0766 144.093 97.1014 147.086 99.7771 150.35C100.398 151.089 101.018 151.866 101.6 152.682C101.91 151.749 102.724 151.089 103.539 150.544C104.702 149.806 105.865 149.145 107.261 148.873C109.976 148.368 112.69 149.145 115.366 149.651C115.56 149.689 115.715 149.728 115.909 149.767C115.987 149.767 116.064 149.806 116.142 149.806C116.219 149.806 116.336 149.767 116.413 149.767C116.685 149.689 116.917 149.651 117.15 149.573C117.732 149.379 118.352 149.184 118.934 148.951C120.407 148.407 121.881 147.785 123.316 147.163C126.612 145.803 129.947 144.404 133.437 143.51C134.562 143.238 135.802 142.966 137.043 142.85C136.927 142.616 136.772 142.422 136.656 142.228C136.539 142.072 136.423 141.917 136.229 141.761C136.19 141.723 136.19 141.723 136.229 141.761C136.19 141.723 136.151 141.684 136.074 141.645C135.996 141.567 135.919 141.451 135.841 141.334C135.725 141.179 135.609 141.023 135.492 140.906C134.484 139.741 133.243 138.886 131.847 138.225C129.637 137.215 126.922 136.904 125.1 135.194C122.501 132.784 123.587 128.393 124.363 125.478C124.557 124.74 125.681 125.05 125.487 125.789C124.983 127.654 124.518 129.675 124.712 131.618C124.828 132.784 125.216 133.756 126.03 134.494C126.767 135.155 127.853 135.543 128.822 135.893C131.498 136.826 134.135 137.72 136.113 139.896C136.268 140.051 136.384 140.207 136.539 140.401C136.656 140.557 136.888 140.751 136.927 140.945C136.966 140.945 136.966 140.984 137.005 140.984C137.043 141.023 137.082 141.062 137.121 141.062C137.198 141.14 137.276 141.217 137.354 141.295C137.741 141.761 138.052 142.306 138.362 142.85V142.888C139.603 142.927 140.844 143.199 141.891 143.821C143.054 144.521 143.83 145.687 144.217 146.969C144.334 147.319 144.411 147.707 144.45 148.096C144.489 148.407 144.528 148.601 144.373 148.873C144.295 149.029 144.179 149.223 144.062 149.379C143.674 149.884 143.209 150.35 142.55 150.428C141.27 150.583 140.378 149.262 139.797 148.329C138.943 146.969 138.323 145.492 137.625 144.054C137.392 144.054 137.16 144.054 136.966 144.093C133.708 144.365 130.49 145.531 127.465 146.736C124.518 147.902 121.648 149.223 118.662 150.311C118.119 150.506 117.615 150.7 117.034 150.816C116.801 150.894 116.568 150.933 116.374 150.972C115.831 151.089 115.172 150.855 114.668 150.739C112.109 150.234 109.394 149.456 106.796 150.195C105.633 150.544 104.469 151.205 103.539 151.982C102.879 152.526 102.53 153.148 102.647 154.003C102.724 154.508 102.918 155.014 102.996 155.48C103.112 155.985 103.151 156.49 103.19 156.996C103.228 158.084 103.151 159.211 102.957 160.299C102.53 162.592 101.716 164.846 100.591 166.906C100.049 167.916 99.4281 168.849 98.7301 169.743C98.3811 170.17 98.0321 170.598 97.6443 170.947C97.4504 171.103 97.6443 170.947 97.5279 171.064C97.5279 171.064 97.528 171.064 97.4892 171.064V171.103C97.528 171.142 97.528 171.181 97.5667 171.258C97.5667 171.297 97.6056 171.297 97.6056 171.336C97.6056 171.336 97.6055 171.336 97.6443 171.375C97.6831 171.453 97.7606 171.491 97.8382 171.569C97.9157 171.647 97.9933 171.725 98.0709 171.763C98.1484 171.841 98.226 171.88 98.2648 171.919C99.273 172.657 100.436 173.24 101.6 173.745C105.167 175.339 109.006 176.466 112.807 177.399C117.189 178.487 121.648 179.303 126.147 179.575C129.753 179.769 133.437 179.536 137.043 179.303C141.154 179.031 145.264 178.681 149.375 178.176C151.004 177.982 152.671 177.748 154.3 177.437C154.92 177.321 155.541 177.204 156.161 177.049C156.394 176.971 156.627 176.932 156.859 176.855C156.976 176.816 157.053 176.777 157.169 176.738C157.208 176.738 157.325 176.66 157.363 176.66C159.69 175.611 161.164 173.124 161.9 170.792C163.025 167.45 163.025 163.797 162.598 160.299ZM116.18 149.767H116.219C116.142 149.767 116.103 149.767 116.18 149.767ZM143.442 148.252C143.442 148.213 143.442 148.213 143.442 148.174C143.403 148.018 143.364 147.824 143.326 147.63C143.248 147.319 143.17 146.969 143.015 146.658C142.278 144.909 140.766 144.21 139.06 144.015C139.525 144.987 139.991 145.959 140.495 146.891C140.805 147.474 141.115 148.018 141.542 148.524C141.697 148.718 141.891 148.912 142.046 148.99C142.085 149.029 142.162 149.068 142.201 149.068C142.279 149.106 142.24 149.068 142.24 149.107C142.278 149.107 142.317 149.145 142.395 149.145C142.395 149.145 142.395 149.145 142.434 149.145C142.472 149.145 142.511 149.145 142.511 149.145C142.55 149.145 142.589 149.145 142.627 149.107C142.627 149.107 142.705 149.068 142.821 148.99C142.938 148.912 143.17 148.601 143.326 148.407C143.364 148.407 143.403 148.329 143.442 148.252ZM143.442 148.252C143.442 148.329 143.481 148.329 143.442 148.252V148.252ZM39.36 147.435C40.3294 149.029 40.5233 151.244 39.5539 152.915C38.5844 154.664 36.3352 155.519 34.5126 154.586C32.9227 153.77 32.1472 151.827 32.1472 150.117C32.1472 148.757 32.6125 147.474 33.5432 146.619C33.582 146.464 33.6596 146.347 33.8147 146.231C34.7842 145.57 35.9863 145.22 37.1109 145.531C38.0416 145.842 38.8559 146.58 39.36 147.435ZM38.1191 147.669C37.6925 147.124 37.1885 146.775 36.5292 146.619C36.2965 146.58 35.87 146.58 35.5597 146.658C35.521 146.658 35.5209 146.658 35.4821 146.697C35.4046 146.775 35.3271 146.814 35.2495 146.852C33.6984 147.435 33.1167 149.145 33.3106 150.7C33.3881 151.322 33.6208 152.021 34.0086 152.604C34.3188 153.109 34.823 153.537 35.3659 153.692C35.9863 153.887 36.7231 153.809 37.3823 153.498C38.0416 153.148 38.5456 152.488 38.7783 151.827C39.2824 150.467 39.011 148.796 38.1191 147.669ZM88.6088 110.477C88.9191 109.816 87.9109 109.194 87.6006 109.894C86.3985 112.42 83.9942 114.013 81.2797 114.441C78.8754 114.83 76.1609 114.169 74.571 112.226C73.5627 111.021 73.2138 109.467 73.2526 107.912C73.2526 107.174 72.0892 107.174 72.0892 107.912C72.0504 109.505 72.3994 111.138 73.3301 112.498C74.1444 113.703 75.3078 114.558 76.6651 115.102C79.3796 116.19 82.5982 115.762 85.08 114.285C86.6312 113.392 87.872 112.07 88.6088 110.477ZM85.5065 87.1593V87.1982V87.1593ZM77.4794 70.0597C77.8284 70.1374 78.0611 69.9431 78.1774 69.6711C78.6428 68.5052 79.1469 67.3004 79.6122 66.1346C79.7285 65.8625 79.4959 65.4739 79.2244 65.435C78.8754 65.3573 78.6427 65.5516 78.5264 65.8237C78.0611 66.9895 77.5569 68.1943 77.0916 69.3602C76.9753 69.6322 77.2079 69.982 77.4794 70.0597ZM84.5371 87.9366C83.9942 87.0427 84.6534 85.8768 85.5065 85.4493C85.778 85.2939 86.0882 85.2162 86.3985 85.1773C86.476 84.0503 87.717 83.273 88.764 83.1953C89.3845 83.1564 90.0437 83.3896 90.4702 83.8171C90.6641 84.0114 90.8192 84.2835 90.9356 84.5555C91.6723 83.6616 92.254 82.6124 92.6031 81.4853C92.8357 80.7858 93.9604 81.0967 93.7277 81.7962C93.3399 83.0398 92.6806 84.2057 91.905 85.2162C92.0214 85.2939 92.099 85.4105 92.1377 85.5271C92.448 86.4598 92.5256 87.4702 92.3704 88.4418C92.1378 89.7242 91.2846 91.0844 89.8885 91.3176C88.2986 91.5896 87.0965 90.3849 86.3209 89.1413C85.08 89.5299 83.7615 89.7242 82.4043 89.6465C81.6675 89.6077 81.6675 88.4418 82.4043 88.4806C83.2574 88.5195 84.0718 88.4418 84.8861 88.2863C84.731 88.2086 84.6146 88.092 84.5371 87.9366ZM85.5065 87.3536C85.5453 87.3925 85.5841 87.4313 85.5065 87.3536V87.3536ZM90.4315 86.7707C89.5396 87.5868 88.4925 88.2475 87.3679 88.7138C87.5231 88.947 87.6781 89.1413 87.8333 89.3356C87.9884 89.4911 88.1048 89.6076 88.2599 89.7631C88.2599 89.7631 88.2599 89.7631 88.2987 89.802C88.3375 89.8408 88.3762 89.8408 88.3762 89.8797C88.4538 89.9186 88.5313 89.9963 88.6088 90.0351C88.6476 90.074 88.6864 90.074 88.7252 90.1129C88.7252 90.1129 88.764 90.1129 88.764 90.1517C88.8028 90.1517 88.8803 90.1906 88.9191 90.1906C88.9966 90.1906 89.0354 90.2295 89.113 90.2295C89.113 90.2295 89.2293 90.2295 89.2293 90.2683C89.2681 90.2683 89.3456 90.2683 89.3844 90.2683C89.4232 90.2683 89.5008 90.2683 89.5396 90.2683H89.5783C89.6171 90.2683 89.6947 90.2295 89.7335 90.2295C89.7723 90.2295 89.8885 90.1906 89.8885 90.1906C89.9273 90.1906 89.9661 90.1517 90.0049 90.1517C90.0437 90.1129 90.1212 90.1129 90.16 90.074C90.16 90.074 90.2376 90.0351 90.2376 89.9963L90.2763 89.9574C90.3151 89.9185 90.3151 89.9186 90.3539 89.8797C90.3927 89.8408 90.4314 89.802 90.4702 89.7631C90.509 89.7242 90.5478 89.6854 90.5478 89.6465C90.5478 89.6465 90.6254 89.5688 90.6254 89.5299C90.703 89.4133 90.7805 89.2579 90.858 89.1413C90.858 89.1024 90.8968 89.0247 90.9356 89.0247C90.9743 88.9858 90.9744 88.9081 91.0132 88.8693C91.052 88.7138 91.0907 88.5583 91.1294 88.4029C91.1682 88.2474 91.1683 88.1309 91.2071 88.0531C91.2459 87.5091 91.207 87.0427 91.1294 86.5764C91.0519 86.7707 90.8193 86.9261 90.5866 86.9261C90.5478 86.8095 90.5091 86.8095 90.4315 86.7707ZM87.5231 85.3327C87.5231 85.3716 87.5231 85.4105 87.5231 85.4493C88.0272 85.7214 88.4538 86.1489 88.764 86.6152C89.1906 86.3043 89.6171 85.9546 90.0049 85.6048C89.9661 85.4493 89.9273 85.255 89.8885 85.0996V85.0607C89.8885 85.0219 89.8498 85.0218 89.8498 84.983C89.8111 84.9053 89.7723 84.8664 89.7335 84.7887C89.6947 84.7498 89.6947 84.7498 89.6947 84.7498L89.6559 84.7109C89.6172 84.6721 89.5783 84.6332 89.5008 84.5944C89.462 84.5944 89.462 84.5555 89.4232 84.5555C89.3844 84.5166 89.3457 84.5166 89.2682 84.4778H89.2293C89.1906 84.4778 89.113 84.4389 89.0743 84.4389H89.0354C88.9967 84.4389 88.9191 84.4389 88.8804 84.4389C88.8416 84.4389 88.764 84.4389 88.7252 84.4389H88.6865C88.5701 84.4778 88.4538 84.4778 88.3762 84.5166C88.3374 84.5166 88.3375 84.5166 88.2987 84.5555C88.2599 84.5944 88.2211 84.5944 88.1823 84.6332C88.1048 84.6721 87.9885 84.7498 87.9109 84.7887L87.8721 84.8275C87.8333 84.8664 87.7945 84.9053 87.7557 84.9441C87.7557 84.9441 87.717 84.983 87.6782 85.0218C87.6782 85.0607 87.6394 85.0607 87.6394 85.0996C87.6006 85.1384 87.6006 85.1773 87.5618 85.2162V85.255C87.5618 85.2162 87.5231 85.255 87.5231 85.3327ZM86.3985 86.382C86.4372 86.382 86.4373 86.382 86.4373 86.382H86.3985ZM85.4678 87.1982V87.237V87.2759C85.429 87.237 85.4678 87.237 85.4678 87.2759V87.3147C85.4678 87.3147 85.4678 87.3147 85.4678 87.2759C85.5066 87.3147 85.5066 87.3148 85.5454 87.3536C85.5841 87.3925 85.6229 87.3925 85.6617 87.4313C85.7781 87.4702 85.8556 87.4702 85.972 87.5091C86.0107 87.5091 86.0494 87.5091 86.0882 87.5091C86.1658 87.5091 86.2046 87.5091 86.2821 87.5091C86.4372 87.5091 86.5923 87.5868 86.6699 87.6645C87.0189 87.5091 87.3292 87.3536 87.6782 87.1982C87.2904 86.965 86.9026 86.6929 86.6699 86.3043C86.6699 86.3043 86.67 86.3043 86.6312 86.3043C86.5924 86.3043 86.5536 86.3043 86.5148 86.3043C86.4761 86.3043 86.4372 86.3043 86.3985 86.3043H86.3597C86.321 86.3043 86.127 86.3432 86.0882 86.382C86.0882 86.382 86.2046 86.3043 86.127 86.3432C86.127 86.3432 86.0882 86.3432 86.0882 86.382C86.0494 86.382 86.0107 86.4209 85.972 86.4598C85.9332 86.4986 85.8944 86.4986 85.8556 86.5375C85.7781 86.5764 85.7392 86.6541 85.7004 86.6929C85.7004 86.6929 85.7005 86.6929 85.6617 86.7318C85.6617 86.7707 85.6229 86.7707 85.6229 86.8095C85.5841 86.8484 85.5842 86.8873 85.5842 86.9261C85.5842 86.965 85.5454 87.0038 85.5454 87.0427C85.5066 87.1204 85.4678 87.1204 85.4678 87.1982ZM80.698 70.6038C81.047 70.6815 81.2797 70.4872 81.3961 70.2151C81.8226 69.127 82.2104 68.0388 82.637 66.9895C82.7533 66.7175 82.5206 66.3289 82.2492 66.29C81.9002 66.2123 81.6675 66.4066 81.5511 66.6786C81.1246 67.7668 80.7368 68.8549 80.3102 69.9042C80.1939 70.1374 80.4266 70.526 80.698 70.6038ZM81.5511 57.3904C81.8614 57.3904 82.1328 57.3904 82.4431 57.3904C82.5982 57.3904 82.7533 57.3127 82.8697 57.235C82.986 57.1184 83.0635 56.9629 83.0247 56.8075C83.0247 56.652 82.986 56.4966 82.8697 56.38C82.7533 56.2634 82.5982 56.2246 82.4431 56.2246C82.1328 56.2246 81.8614 56.2246 81.5511 56.2246C81.396 56.2246 81.241 56.3023 81.1246 56.38C81.0083 56.4966 80.9307 56.652 80.9695 56.8075C80.9695 56.9629 81.0083 57.1184 81.1246 57.235C81.241 57.3516 81.396 57.3904 81.5511 57.3904Z" fill="black"/>
</svg>
