<svg width="180" height="124" viewBox="0 0 180 124" fill="none" xmlns="http://www.w3.org/2000/svg">
<path d="M61.8499 99.2546C55.8687 102.567 49.0514 105.332 42.3627 104.014C35.674 102.695 29.7247 95.7816 31.7828 89.2858C33.0691 85.234 37.0567 82.0183 36.8638 77.7735C36.6708 73.6252 32.6833 70.924 29.5962 68.1585C22.3608 61.6305 18.7591 51.308 20.367 41.7252C21.5889 34.2647 27.4738 26.4826 35.0307 27.2544C37.8927 27.5438 40.4653 29.023 43.2309 29.7304C57.3801 33.2678 69.8571 16.2565 84.3601 17.7679C88.1868 18.1538 91.8528 19.8582 95.6795 19.6652C102.786 19.3115 107.996 12.8157 114.781 10.6933C119.797 9.08546 125.586 10.1466 129.734 13.3945C133.882 16.6424 136.262 22.0127 135.908 27.2865C135.555 32.7211 132.532 37.5447 130.667 42.6256C128.802 47.7386 128.384 54.17 132.339 57.9003C134.365 59.7976 137.163 60.6658 139.285 62.4666C143.305 65.9075 143.819 72.1781 141.922 77.0982C140.024 82.0504 136.23 85.9736 132.532 89.736" fill="#F4F6F9"/>
<path d="M170.028 86.5207C168.838 80.4109 169.385 73.5613 165.526 68.7056C161.506 63.6569 153.049 63.0459 148.354 67.4515L147.518 67.3871L146.682 62.7243C146.264 60.2482 145.846 57.6756 145.428 54.9422V54.9101C145.621 54.9422 145.846 54.9744 146.039 55.0066C146.071 55.0066 146.103 55.0066 146.135 55.0066C146.328 55.0387 146.489 55.0387 146.682 55.0387C146.714 55.0387 146.746 55.0387 146.778 55.0387C146.971 55.0387 147.164 55.0387 147.389 55.0066C147.389 55.0066 147.389 55.0066 147.421 55.0066C147.646 54.9744 147.839 54.9422 148.064 54.9101H148.097C148.29 54.8779 148.45 54.8136 148.643 54.7493C148.708 54.7171 148.74 54.7171 148.804 54.685C148.933 54.6528 149.061 54.5885 149.19 54.5242C149.254 54.492 149.319 54.4599 149.383 54.4277C149.512 54.3634 149.64 54.2991 149.769 54.2348C149.833 54.2026 149.865 54.1705 149.93 54.1383C150.09 54.0418 150.251 53.9132 150.412 53.7846C152.406 52.2089 153.113 49.2504 152.181 46.8708C152.084 46.6135 151.956 46.3562 151.827 46.099C151.73 45.9703 151.666 45.8096 151.57 45.6809C151.537 45.6488 151.505 45.5844 151.473 45.5523C151.409 45.4558 151.344 45.3915 151.248 45.295C151.216 45.2629 151.152 45.1986 151.119 45.1664C151.055 45.1021 150.991 45.0056 150.894 44.9413C150.862 44.9092 150.798 44.8448 150.766 44.8127C150.701 44.7484 150.605 44.6841 150.508 44.6197C150.476 44.5876 150.412 44.5554 150.38 44.5233C150.251 44.4268 150.123 44.3303 149.994 44.266C149.93 44.2338 149.897 44.2017 149.833 44.1695C149.737 44.1052 149.672 44.0731 149.576 44.0087C149.512 43.9766 149.447 43.9444 149.351 43.9123C149.286 43.8801 149.222 43.848 149.126 43.8158C149.029 43.7836 148.965 43.7515 148.868 43.7193C148.804 43.6872 148.74 43.655 148.675 43.655C148.579 43.6229 148.483 43.5907 148.418 43.5585C148.354 43.5585 148.322 43.5264 148.257 43.5264C147.904 43.4299 147.55 43.3656 147.164 43.3334C147.132 43.3334 147.1 43.3334 147.068 43.3334C146.939 43.3334 146.843 43.3334 146.714 43.3013C146.682 43.3013 146.617 43.3013 146.585 43.3013C146.457 43.3013 146.36 43.3013 146.232 43.3013C146.199 43.3013 146.167 43.3013 146.135 43.3013C146.006 43.3013 145.878 43.3334 145.781 43.3334L146.199 29.0877L137.131 25.8398C134.205 25.872 131.343 27.2548 128.995 28.9913C121.921 34.2972 115.007 39.764 108.768 44.4268C108.768 44.4268 108.768 44.4268 108.8 44.459C108.672 44.5554 108.543 44.6519 108.382 44.7484C108.382 44.7484 116.004 48.9931 119.734 51.019C119.734 51.019 117.226 57.9972 114.942 64.4287C111.791 61.5667 107.482 59.798 103.109 59.9588C98.7352 60.1196 94.3939 62.3063 92.1751 65.8757C90.7923 68.0946 90.2135 70.6672 89.1201 73.0147C88.0268 75.3622 86.1295 77.6775 83.4604 78.1277L82.4957 77.4845C82.3671 77.3559 82.2384 77.2273 82.1419 77.0987C82.1098 77.0665 82.0777 77.0343 82.0455 76.97C81.949 76.8735 81.8846 76.7771 81.7882 76.6806C81.756 76.6163 81.6917 76.5841 81.6596 76.5198C81.5953 76.4233 81.4989 76.359 81.4346 76.2626C81.4024 76.1982 81.338 76.1339 81.3058 76.1018C81.2415 76.0053 81.1773 75.941 81.113 75.8445C81.0808 75.7802 81.0164 75.7159 80.9842 75.6516C80.9199 75.5551 80.8557 75.4586 80.7914 75.3621C80.7593 75.2978 80.727 75.2335 80.6948 75.1692C80.6305 75.0727 80.5662 74.9441 80.5341 74.8476C80.5019 74.7833 80.4698 74.7512 80.4377 74.6869C80.3412 74.5261 80.2768 74.3653 80.2125 74.2045C79.8909 73.4649 79.7302 72.6931 79.6659 71.8892C79.6338 71.6962 79.6337 71.5033 79.6337 71.2782C79.6337 71.0852 79.6337 70.8923 79.6015 70.6672C79.6015 68.8664 79.8909 67.0012 79.9231 65.1683C79.9231 64.9753 79.9231 64.7502 79.9231 64.5573C79.8588 61.8239 78.894 59.1548 77.3183 56.9038C74.9387 53.4951 71.1442 51.019 66.9638 50.601C66.7387 50.5688 66.4813 50.5688 66.224 50.5688C65.6452 50.5688 65.0664 50.6332 64.5198 50.7618C63.3943 51.0512 62.3974 51.63 61.9794 52.6912C61.8829 52.9163 61.8507 53.1414 61.8186 53.3665C61.0146 52.7555 60.0498 52.2732 59.1172 51.8873C55.3227 50.2473 51.5925 48.3821 47.798 46.6778C45.9328 45.8417 44.0355 44.9735 42.0739 44.3303C41.2378 44.0409 40.4338 43.9123 39.6621 43.9123C34.0988 41.5648 29.4683 36.6126 27.5388 35.9694C25.6094 35.3263 24.3231 36.6126 25.6094 40.1499C26.6063 42.9154 29.9828 44.2982 31.3977 44.7805C30.7546 44.9413 30.1114 45.1342 29.5005 45.3915C26.4134 46.5813 23.6799 48.5429 21.0108 50.4724C20.2712 51.019 19.4994 51.5657 18.9528 52.3053C18.4061 53.045 18.1168 54.0418 18.4062 54.9101C18.6313 55.5532 19.2421 56.0999 19.8853 56.1964C19.628 56.6466 19.4352 57.1289 19.3709 57.6435C19.2744 58.4796 19.6603 59.4443 20.4642 59.7337C21.0752 59.9588 21.7504 59.7658 22.3293 59.5086C24.6446 58.5439 26.2525 57.1289 27.5388 55.0387C27.7961 54.6207 28.1176 54.2669 28.4392 53.9454C27.185 55.907 26.3169 58.0293 25.9632 60.1517C25.8345 60.9235 25.8023 61.8882 26.4133 62.4027C27.0886 62.9816 28.1819 62.6922 28.9537 62.2098C32.1373 60.2482 31.9444 56.4536 34.7742 54.2348C35.4174 53.7524 36.1891 53.3022 36.9931 53.4308C38.1507 53.6238 40.6591 54.7493 40.7555 55.9391C40.8842 57.547 39.7586 59.2192 38.4723 60.0553C36.4464 61.3737 34.2597 60.1517 32.2016 61.3416C31.2048 61.9204 30.433 63.1424 30.7868 64.2357C31.2048 65.6185 32.8448 66.1008 34.2597 66.2938C38.408 66.8405 42.6849 66.5832 46.7689 65.5542C49.3414 64.911 51.3996 64.4608 53.94 65.3934C54.1973 65.4898 54.4223 65.5863 54.6152 65.6828C54.5831 65.715 54.551 65.7149 54.5188 65.7471C54.4223 65.8114 54.3259 65.8757 54.2294 65.9722C54.1651 66.0044 54.1008 66.0687 54.0686 66.1008C53.9722 66.1652 53.8757 66.2616 53.7793 66.3581C53.7149 66.4224 53.6828 66.4546 53.6185 66.5189C53.522 66.6154 53.4576 66.7118 53.3611 66.8083C53.329 66.8726 53.2647 66.9369 53.2325 66.9691C53.1682 67.0656 53.0717 67.162 53.0074 67.2585C52.9752 67.3228 52.9109 67.3871 52.8787 67.4515C52.8144 67.5479 52.7501 67.6766 52.6858 67.773C52.6536 67.8373 52.6215 67.9016 52.5894 67.966C52.5251 68.0624 52.4607 68.1911 52.4286 68.2875C52.3964 68.3518 52.3643 68.4162 52.3322 68.5126C52.2679 68.6413 52.2356 68.7377 52.2034 68.8664C52.1713 68.9307 52.1392 69.0272 52.1392 69.0915C52.107 69.2201 52.0749 69.3166 52.0106 69.4452C51.9784 69.5095 51.9784 69.606 51.9462 69.6703C51.9141 69.7989 51.882 69.8954 51.8498 70.024C51.8177 70.1205 51.8176 70.1848 51.7854 70.2813C51.7533 70.4099 51.7532 70.5064 51.7211 70.635C51.7211 70.7315 51.689 70.828 51.689 70.9244C51.689 71.0531 51.6568 71.1495 51.6568 71.2782C51.6568 71.3746 51.6568 71.4711 51.6246 71.5676C51.6246 71.6641 51.5925 71.7927 51.5925 71.8892C51.5925 71.9856 51.5925 72.1143 51.5925 72.2107C51.5925 72.3072 51.5925 72.4358 51.5925 72.5323C51.5925 72.6609 51.5925 72.7574 51.5925 72.886C51.5925 72.9825 51.5925 73.079 51.5925 73.1755C51.5925 73.3041 51.6246 73.4327 51.6246 73.5613C51.6246 73.6578 51.6247 73.7221 51.6568 73.8186C51.689 73.9794 51.6889 74.1723 51.7211 74.3331C51.7211 74.3653 51.7211 74.3974 51.7211 74.4296C51.8175 75.0727 51.9462 75.6837 52.107 76.2947C52.1713 76.4877 52.2035 76.7128 52.2678 76.9057C52.718 78.5457 53.2647 80.1857 53.6185 81.8258C53.6506 82.0187 53.7149 82.2438 53.7471 82.4368C53.8757 83.0478 53.9399 83.6909 54.0043 84.3341C54.4223 90.3475 50.8851 95.8142 49.1164 101.603C49.0521 101.828 48.9878 102.053 48.9235 102.31C48.5376 103.693 48.2803 105.108 48.2159 106.555C48.1195 109.031 48.6662 111.475 49.7596 113.694C50.2098 114.594 50.7242 115.43 51.3031 116.234C52.9753 118.517 55.2263 120.382 57.7989 121.54C58.0562 121.669 58.3134 121.765 58.6029 121.862C58.7636 121.926 58.9243 121.99 59.1172 122.055C59.4388 122.151 59.7604 122.28 60.1142 122.344C60.6608 122.473 61.2075 122.601 61.7542 122.666C62.0115 122.698 62.2365 122.73 62.4938 122.762L65.6453 119.482C70.0187 115.43 78.4117 109.449 87.4801 112.311C100.665 116.491 131.214 112.954 145.363 102.342C159.513 91.7302 179.418 102.889 179.418 102.889C174.626 98.6762 171.282 92.8236 170.028 86.5207Z" fill="white"/>
<path d="M142.469 48.8646C142.34 48.6073 142.436 48.3501 142.629 48.1893C144.398 46.8708 146.746 46.4528 148.9 47.0316C149.511 47.1924 149.254 48.125 148.643 47.9642C146.746 47.4497 144.72 47.8677 143.144 49.0254C142.919 49.2183 142.597 49.0897 142.469 48.8646ZM139.028 34.7154C139.028 34.7475 139.06 34.7475 139.06 34.7797C139.092 34.8118 139.092 34.8762 139.124 34.9083C139.156 35.0048 139.189 35.1013 139.221 35.2299C139.285 35.4871 139.575 35.6479 139.8 35.5515C140.057 35.4871 140.218 35.2299 140.121 34.9726C139.864 34.1044 139.382 33.2683 138.771 32.6251C138.61 32.4322 138.256 32.4322 138.095 32.6251C137.902 32.8181 137.902 33.1075 138.095 33.3004C138.16 33.3648 138.224 33.4612 138.288 33.5255C138.32 33.5577 138.352 33.5899 138.385 33.622L138.417 33.6542C138.417 33.6542 138.417 33.6542 138.417 33.6863C138.545 33.8471 138.642 34.0079 138.738 34.2008C138.835 34.3616 138.931 34.5224 139.028 34.7154ZM134.462 31.0173H134.558C134.654 31.0173 134.719 31.0494 134.815 31.0494C134.912 31.0494 135.008 31.0816 135.105 31.0816C135.137 31.0816 135.137 31.0816 135.169 31.0816C135.201 31.1459 135.265 31.1781 135.33 31.2102C135.555 31.3388 135.876 31.2745 136.005 31.0494C136.101 30.8565 136.101 30.6635 136.005 30.4706C135.909 30.3098 135.748 30.2133 135.555 30.1812C135.298 30.1169 135.04 30.0847 134.783 30.0525C134.236 29.9882 133.722 29.9239 133.175 29.9239C132.918 29.9239 132.693 30.149 132.693 30.4063C132.693 30.6635 132.918 30.8886 133.175 30.8886C133.561 30.8886 133.979 30.9208 134.365 30.953C134.365 31.0173 134.397 31.0173 134.462 31.0173ZM127.901 35.5193C127.966 35.5193 127.998 35.5193 128.062 35.5193C128.159 35.5193 128.255 35.5193 128.352 35.5193C128.352 35.5193 128.416 35.5193 128.448 35.5193C128.48 35.5193 128.512 35.5193 128.577 35.5515C128.673 35.5836 128.77 35.5836 128.866 35.6158C129.059 35.6801 129.123 35.7122 129.316 35.8087C129.413 35.8409 129.477 35.9052 129.574 35.9695C129.606 35.9695 129.606 36.0016 129.606 36.0016C129.606 36.0016 129.606 36.0017 129.638 36.0338C129.67 36.066 129.702 36.0981 129.734 36.1303C130.024 36.3875 130.185 36.6448 130.281 36.9985C130.442 37.6095 131.374 37.3523 131.214 36.7413C130.635 34.7154 127.901 33.9114 126.294 35.262C126.101 35.4228 126.133 35.7766 126.294 35.9373C126.487 36.1303 126.776 36.0981 126.969 35.9373C127.001 35.9052 127.001 35.9052 127.001 35.9052C127.001 35.9052 127.001 35.9052 127.033 35.9052C127.065 35.873 127.097 35.8409 127.162 35.8409C127.194 35.8087 127.258 35.8087 127.29 35.7766C127.322 35.7766 127.419 35.7122 127.419 35.7122C127.516 35.6801 127.805 35.5836 127.869 35.5836C127.741 35.5514 127.869 35.5193 127.901 35.5193ZM134.558 38.735C135.072 38.2205 135.876 38.0276 136.552 38.2527C137.195 38.4456 137.709 39.0244 137.902 39.6676C138.063 40.2786 138.996 40.0213 138.835 39.4103C138.578 38.4135 137.806 37.6095 136.809 37.3201C135.78 36.9985 134.622 37.3201 133.883 38.0597C133.432 38.4778 134.108 39.1852 134.558 38.735ZM125.65 57.2898C125.007 57.9651 124.139 58.351 123.206 58.2545C122.949 58.2224 122.724 58.4796 122.724 58.7369C122.724 59.0263 122.949 59.1871 123.206 59.2192C124.396 59.3479 125.586 58.8012 126.39 57.933C127.226 57.0326 127.644 55.8427 127.451 54.5886C127.419 54.3313 127.097 54.2027 126.872 54.267C126.583 54.3313 126.486 54.5886 126.551 54.8459C126.615 55.2639 126.551 55.7141 126.39 56.1643C126.229 56.5823 125.94 57.0004 125.65 57.2898ZM124.171 87.8071C123.046 87.7428 121.952 88.0322 120.827 88.0322C119.766 88.0322 118.737 87.8715 117.708 87.5499C116.775 87.2605 115.714 86.7781 115.264 85.8455C114.878 85.0737 115.006 84.0126 115.907 83.7231C116.711 83.4659 117.611 83.8518 118.158 84.4628C118.865 85.2667 119.122 86.3279 119.412 87.3248C119.573 87.9358 120.505 87.6785 120.344 87.0675C119.862 85.331 119.187 83.3051 117.225 82.7906C116.453 82.5976 115.553 82.6619 114.91 83.1765C114.202 83.7553 113.977 84.6879 114.138 85.5561C114.556 87.6142 116.936 88.4824 118.737 88.804C119.83 88.9969 120.923 89.0291 122.017 88.9005C123.046 88.7718 124.268 88.5146 125.232 89.0291C126.004 89.4472 126.486 90.2511 125.94 91.0872C125.361 91.9876 124.203 92.1484 123.206 92.2127C121.727 92.3413 119.605 92.3735 119.058 90.6691C118.769 89.833 118.511 89.0291 117.611 88.7075C116.871 88.4503 116.003 88.6111 115.392 89.0291C114.62 89.5436 114.267 90.4762 114.202 91.3766C114.138 92.4378 114.588 93.306 114.846 94.3029C115.135 95.3963 114.46 96.0716 113.591 96.5861C112.723 97.1006 111.823 97.5187 111.051 98.1618C109.443 99.5446 108.607 102.021 110.118 103.789C110.536 104.272 111.212 103.564 110.794 103.114C109.507 101.603 110.729 99.5767 112.048 98.612C113.302 97.7116 115.199 97.2292 115.778 95.6535C116.132 94.6888 115.682 93.7884 115.392 92.8558C115.135 92.0519 115.071 91.1193 115.489 90.3475C115.842 89.7366 116.646 89.3507 117.322 89.6079C118.093 89.8974 118.093 90.9585 118.415 91.6017C119.187 92.9845 120.988 93.2739 122.435 93.2417C124.139 93.2096 126.358 92.9201 127.033 91.055C127.741 89.1899 125.811 87.9036 124.171 87.8071ZM116.968 91.5374C118.897 94.7853 118.865 98.9979 116.871 102.214C116.55 102.728 117.386 103.21 117.708 102.696C119.894 99.223 119.926 94.5923 117.804 91.055C117.482 90.5083 116.646 90.9907 116.968 91.5374ZM179.064 103.275C175.719 100.284 173.05 96.5218 171.314 92.3735C170.542 90.5405 169.963 88.6111 169.577 86.6816C169.191 84.7522 168.998 82.7906 168.773 80.8611C168.355 77.0666 167.873 73.0469 165.686 69.7669C162.02 64.3323 153.499 63.3354 148.675 67.8053C148.353 68.0947 147.967 67.8696 147.871 67.5802C148.386 70.2492 148.9 72.9183 149.479 75.5873C149.608 76.1983 148.675 76.4556 148.546 75.8446C148.225 74.3654 147.935 72.9183 147.646 71.439C146.585 66.0688 145.652 60.6985 144.848 55.2639C143.884 54.9745 142.983 54.4921 142.243 53.7847C142.051 53.5917 142.051 53.3023 142.243 53.1094C142.436 52.9164 142.726 52.9164 142.919 53.1094C144.784 54.9102 148.032 55.071 150.058 53.4631C152.084 51.8552 152.663 48.6395 151.344 46.4206C150.026 44.2018 146.906 43.1727 144.559 44.2018C144.302 44.2982 144.044 44.2018 143.916 43.9445C143.819 43.6873 143.916 43.43 144.173 43.3014C144.398 43.2049 144.623 43.1406 144.848 43.0763L143.691 42.819C140.411 39.4103 142.019 35.7122 141.729 32.6251C141.311 27.9945 138.964 27.6407 136.23 26.7082C134.076 26.869 132.05 27.7051 130.249 28.8306C128.319 30.0525 126.519 31.5318 124.718 32.9145C122.885 34.3295 121.02 35.7444 119.187 37.1593C115.907 39.6998 112.594 42.2402 109.282 44.7163C109.411 44.7806 109.507 44.8449 109.636 44.9092C113.077 46.8387 116.55 48.736 120.023 50.6332C120.184 50.7297 120.312 50.987 120.248 51.1799C119.991 51.8874 119.733 52.5627 119.508 53.2701C118.319 56.6145 117.096 59.9589 115.907 63.2711C115.778 63.657 115.649 64.0107 115.489 64.3966C115.489 64.5252 115.457 64.6538 115.36 64.7503C114.363 67.548 113.334 70.3779 112.337 73.1755C112.337 73.2077 112.305 73.2077 112.305 73.2399C112.466 73.2399 112.627 73.3042 112.723 73.4649C114.106 76.134 116.132 78.4815 118.544 80.2823C122.885 83.5302 128.416 85.0094 133.786 84.109C139.189 83.1765 144.173 80.0894 147.26 75.5552C147.614 75.0407 148.45 75.523 148.096 76.0375C146.295 78.7066 143.851 80.9255 141.022 82.5333C136.037 85.3632 130.024 86.1349 124.525 84.4306C119.155 82.7584 114.492 78.9639 111.887 73.9795C111.791 73.8187 111.823 73.6579 111.887 73.5293C111.598 73.5293 111.276 73.3042 111.405 72.9504C111.983 71.2783 112.594 69.6061 113.173 67.9339C113.559 66.8084 113.977 65.6829 114.363 64.5895C112.08 62.5958 109.282 61.213 106.292 60.6663C101.243 59.7659 95.4546 61.5989 92.5926 66.0688C91.0169 68.5127 90.5346 71.439 89.1518 73.9795C88.0585 75.9732 86.3541 77.8062 84.1353 78.4493C84.6819 78.996 85.2286 79.5749 85.7431 80.1858C86.5471 81.1506 87.158 82.2118 87.6082 83.4016C89.4733 88.2573 87.9297 93.7884 86.4505 98.5477C86.2576 99.1265 85.325 98.9014 85.518 98.2904C85.8717 97.1006 86.2255 95.9108 86.5471 94.6888C87.1581 92.2448 87.6082 89.7366 87.4474 87.2283C87.2866 84.7843 86.4505 82.469 84.8426 80.6039C83.3312 78.8352 81.4018 77.3882 80.212 75.3301C78.8293 72.9183 79.0544 70.1527 79.2795 67.4837C79.376 66.1974 79.4725 64.879 79.3439 63.5927C79.2152 62.4993 78.9578 61.406 78.572 60.3769C77.8002 58.351 76.5461 56.4859 74.9704 54.9745C73.3947 53.4631 71.4973 52.3054 69.4071 51.6623C67.542 51.0834 65.0659 50.6654 63.3294 51.8231C62.7506 52.209 62.4611 52.6913 62.3325 53.2701C62.236 53.656 62.2361 54.1062 62.2361 54.5243C62.2361 54.6208 62.2361 54.7494 62.2683 54.8459C62.3648 56.0678 62.429 57.1933 62.2039 58.4153C61.7537 60.602 60.5318 62.6279 58.8596 64.075C58.0235 64.8146 57.0588 65.3935 55.9976 65.7794C55.9011 65.8115 55.7725 65.8437 55.676 65.908C55.3866 66.0044 55.0972 66.1331 54.8399 66.2617C54.7756 66.2939 54.7112 66.3582 54.6469 66.3903C54.6148 66.4225 54.5826 66.4547 54.5183 66.4868C54.1324 66.7762 53.7786 67.1621 53.4892 67.548C52.2673 69.2523 51.9457 71.5034 52.1065 73.5614C52.2995 76.2626 53.3928 78.8352 54.036 81.44C54.647 83.9804 54.7112 86.5208 54.1646 89.0934C53.1355 93.9492 50.5308 98.2904 49.3088 103.082C48.7299 105.333 48.537 107.68 49.0194 109.996C49.4696 112.118 50.37 114.144 51.6242 115.913C54.1324 119.45 58.1521 122.023 62.5255 122.408C63.1365 122.473 63.1365 123.437 62.5255 123.373C61.4 123.277 60.3067 123.052 59.2455 122.73C54.9364 121.347 51.3026 118.035 49.341 113.983C48.3762 111.957 47.7974 109.706 47.7653 107.455C47.7331 104.947 48.3763 102.471 49.2124 100.123C50.8846 95.3963 53.5536 90.7335 53.5858 85.6204C53.5858 82.7263 52.589 79.9929 51.8493 77.2595C51.2062 74.8799 50.8523 72.4681 51.399 70.0563C51.7206 68.6414 52.4603 67.0335 53.618 66.0045C52.8141 65.715 51.9779 65.5542 51.1096 65.5542C49.3731 65.5221 47.701 66.0688 45.9966 66.4225C42.4593 67.1943 38.7934 67.4194 35.1917 67.0656C33.8733 66.937 32.394 66.7762 31.3007 65.9401C30.2073 65.0719 29.9501 63.657 30.6575 62.435C31.4615 61.0201 33.0372 60.5056 34.5808 60.4734C35.3847 60.4412 36.1886 60.5055 36.9604 60.3448C37.7322 60.184 38.4075 59.7981 38.9542 59.2514C39.4687 58.7369 39.9188 58.1259 40.1439 57.4184C40.3047 56.9039 40.4977 56.2286 40.1439 55.7463C39.8224 55.2961 39.2758 55.0066 38.7934 54.7494C38.2789 54.4921 37.7322 54.267 37.1856 54.1384C35.8349 53.8168 34.5807 55.0709 33.8733 56.1C33.1336 57.129 32.6834 58.3188 32.1046 59.4444C31.5258 60.602 30.7862 61.6632 29.7572 62.435C28.7281 63.2068 26.9917 63.9785 25.9627 62.7566C25.0623 61.6954 25.5445 59.991 25.8661 58.8012C25.9626 58.4475 26.0591 58.0937 26.1877 57.7722C25.1265 58.8012 23.8724 59.6051 22.4896 60.1518C21.6857 60.4734 20.7531 60.6985 19.9492 60.184C19.306 59.7981 18.9845 59.0585 18.8881 58.351C18.8237 57.7722 18.9524 57.1933 19.2096 56.6467C18.8237 56.4537 18.5022 56.1965 18.2449 55.8427C17.6661 55.0066 17.7303 53.9133 18.1162 53.0129C18.502 52.1125 19.2096 51.4372 19.9492 50.8262C20.7531 50.2152 21.5893 49.6042 22.4254 49.0254C24.0975 47.8355 25.834 46.6779 27.6991 45.8096C28.3744 45.4881 29.0819 45.1665 29.8216 44.9414H29.7894C28.3744 44.2018 27.1203 43.0763 26.1235 41.8221C25.0623 40.5037 23.5187 38.1883 24.8372 36.5483C25.6733 35.5193 27.1525 35.3263 28.3423 35.8409C29.7251 36.4518 30.6575 37.7381 31.783 38.7029C35.0952 41.5006 39.34 42.8512 43.3919 44.459C43.8421 44.6198 44.2923 44.8128 44.7103 44.9735C48.5371 46.5814 52.2994 48.4144 56.0618 50.1509C57.734 50.9226 59.5027 51.5658 61.1106 52.4662C61.2714 52.5627 61.4322 52.6592 61.5929 52.7556C62.2682 51.0191 64.2299 50.2795 66.1272 50.2474C68.346 50.2152 70.6292 50.9548 72.5586 52.0482C74.5524 53.1737 76.2888 54.7494 77.6394 56.5823C78.9579 58.4153 79.9227 60.5377 80.2764 62.7566C80.7266 65.4578 80.1156 68.159 80.1478 70.8602C80.18 72.243 80.405 73.5936 81.0803 74.8156C81.6592 75.8768 82.4631 76.7772 83.3313 77.6133C83.3635 77.6454 83.4278 77.7097 83.4599 77.7419C86.4827 77.1952 88.2514 74.3975 89.3126 71.7285C90.3738 69.0272 91.1778 66.1974 93.1715 64.0107C94.9402 62.1134 97.2875 60.7628 99.7958 60.0875C105.037 58.6404 110.729 60.2483 114.846 63.6891C115.649 61.406 116.486 59.1549 117.29 56.8718C117.965 55.0388 118.608 53.1737 119.283 51.3407C118.415 50.8583 117.547 50.4081 116.711 49.9258C113.881 48.3822 111.083 46.8065 108.285 45.263C107.932 45.07 107.996 44.6198 108.285 44.4269C110.279 42.9476 112.241 41.4684 114.202 39.957C117.933 37.095 121.631 34.233 125.393 31.371C127.162 30.0204 128.93 28.5411 130.892 27.4799C132.082 26.8368 133.336 26.3544 134.622 26.0329C133.786 25.6148 132.918 25.0681 132.114 24.2642C130.056 22.2383 129.091 15.6139 133.239 12.2695C136.68 21.2414 142.951 16.9323 149.8 22.6242C155.106 27.0298 151.923 38.2205 147.903 42.9798C149.736 43.3014 151.408 44.3626 152.373 45.9704C153.949 48.6395 153.274 52.3376 150.83 54.267C149.704 55.1674 148.289 55.5855 146.874 55.5855C146.585 55.5855 146.295 55.5533 146.006 55.5212C146.231 56.9682 146.456 58.4153 146.681 59.8302C147.099 62.4028 147.549 64.9433 148.032 67.4837C148.032 67.3551 148.064 67.2586 148.193 67.1621C150.99 64.5895 154.946 63.657 158.644 64.268C161.988 64.8146 164.979 66.6798 166.844 69.5418C169.031 72.9183 169.481 77.0023 169.931 80.8933C170.156 82.8871 170.349 84.8808 170.767 86.8424C171.185 88.8683 171.828 90.8621 172.697 92.7594C174.401 96.5218 176.845 99.8983 179.932 102.664C180.221 103.018 179.514 103.693 179.064 103.275ZM30.5611 44.1053C30.7862 44.2018 31.0113 44.2661 31.2364 44.3304C32.2333 44.5555 33.2944 44.4269 34.3556 44.459C35.6098 44.0088 36.9282 43.6551 38.2467 43.4943C35.8992 42.4331 33.6161 41.2433 31.5902 39.6676C31.0435 39.2495 30.5289 38.7993 30.0466 38.3491C29.532 37.8668 29.0497 37.3201 28.4709 36.9342C27.5705 36.3232 26.1234 36.066 25.4159 37.1272C24.9979 37.8025 25.3195 38.7029 25.6411 39.346C26.0913 40.2143 26.7022 41.0182 27.3454 41.7578C28.2779 42.6904 29.3391 43.5265 30.5611 44.1053ZM19.5954 55.6498C20.0456 54.9423 20.5923 54.2992 21.0747 53.7204C22.168 52.3697 23.3579 51.1478 24.6764 50.0223C27.1847 47.8677 30.0466 46.1312 33.1337 44.9414C32.4906 45.0379 31.8796 45.1665 31.2686 45.3273C28.4388 46.099 25.8339 47.6426 23.4221 49.3148C22.6825 49.8293 21.9429 50.376 21.2033 50.9227C20.528 51.4372 19.7884 51.9517 19.2739 52.6592C18.8558 53.2702 18.5343 54.1062 18.8237 54.8459C18.9523 55.1674 19.2417 55.489 19.5954 55.6498ZM61.2714 53.5917C60.2423 52.8521 58.9881 52.3697 57.8305 51.8552C55.9653 51.0191 54.1647 50.183 52.3317 49.3148C50.563 48.4787 48.7944 47.6748 46.9935 46.8708C46.8971 46.8708 46.8006 46.8708 46.7042 46.8065C44.839 45.8418 42.7488 45.1987 40.7229 44.4912C39.0185 44.2018 37.3141 44.5877 35.6741 45.07C34.0662 45.5524 32.5227 46.1634 31.0113 46.903C28.085 48.3822 25.4159 50.376 23.1649 52.7556C22.5861 53.3666 22.0072 54.0098 21.4927 54.6851C21.2354 55.0066 20.9782 55.3604 20.7209 55.7141C20.4958 56.0357 20.3029 56.3573 20.11 56.711C20.11 56.7431 20.0778 56.7431 20.0778 56.7753C19.7562 57.4506 19.5954 58.2867 20.0456 58.9298C20.5923 59.7016 21.5571 59.3479 22.2324 59.0263C23.6473 58.4153 24.9015 57.5471 25.9305 56.3894C26.445 55.8106 26.8308 55.1353 27.281 54.4921C27.5061 54.2027 27.7313 53.9454 27.9885 53.6882C30.6576 49.4756 35.1597 46.099 40.2727 46.1312C40.8837 46.1312 40.8837 47.0959 40.2727 47.0959C39.6295 47.0959 38.9863 47.1281 38.3753 47.2567C36.3815 47.6104 34.5486 48.4787 32.9407 49.6685C31.2364 50.9226 29.7894 52.5627 28.6639 54.3635C28.0207 55.3925 27.5062 56.4859 27.0882 57.6114C26.8631 58.2224 26.6701 58.8655 26.5414 59.4765C26.4128 60.0875 26.2198 60.795 26.3485 61.4059C26.67 63.1103 28.7925 61.7597 29.5 61.1165C31.333 59.4122 31.7831 56.8074 33.3267 54.878C34.1949 53.8168 35.5777 52.7235 37.057 52.9486C38.1181 53.1094 39.2437 53.656 40.1119 54.2992C40.53 54.6208 40.9479 55.0066 41.1087 55.5212C41.3016 56.1 41.2052 56.8075 41.0122 57.3541C40.5942 58.7369 39.5652 60.0232 38.2789 60.6663C36.7996 61.4059 35.256 61.0522 33.7125 61.2773C32.4583 61.4703 30.7862 62.5315 31.1721 64.0429C31.4936 65.2327 32.9728 65.5864 34.034 65.7794C35.7705 66.0688 37.5393 66.1009 39.2758 66.0688C41.0444 66.0366 42.8131 65.8437 44.5496 65.5221C46.2217 65.2005 47.8618 64.686 49.5661 64.4609C50.8846 64.3001 52.1709 64.3644 53.425 64.7182C53.7466 64.8146 54.0682 64.9111 54.3897 65.0719C54.454 65.104 54.4862 65.104 54.5183 65.1362C54.7113 65.0397 54.872 64.9754 55.0971 64.9111C57.2838 64.2358 59.1489 62.6279 60.2423 60.6342C60.789 59.6373 61.1749 58.544 61.3036 57.4184C61.5287 56.1643 61.1427 54.878 61.2714 53.5917Z" fill="black"/>
<path d="M14.0659 81.6322L21.6549 85.3303C21.0761 86.102 20.1758 86.6487 19.2111 86.8095C17.5711 87.0346 15.8666 86.1663 14.9341 84.7836C14.3231 83.851 14.0338 82.7255 14.0659 81.6322ZM34.4215 57.3534C33.8426 57.1604 33.296 57.6428 32.878 58.0608C30.2732 60.7942 27.8614 63.6562 25.5782 66.679C25.128 66.5182 24.6456 66.3896 24.1311 66.3574C22.073 66.1645 19.9507 67.0327 18.5036 68.512C16.6063 70.4093 15.6095 73.2712 13.262 74.5897C11.8149 75.4258 9.72459 75.7795 9.30654 77.3874L8.79199 77.2266C10.9787 78.7702 13.4228 79.9278 15.8346 81.0533C19.9186 82.9828 24.0346 84.9444 28.1186 86.8738C28.6653 84.7514 27.7648 84.7514 27.2825 82.5326C26.8644 80.571 28.2472 78.127 28.6331 76.1654C29.0512 74.0752 29.6299 71.8563 28.8903 69.8304C28.5366 68.8979 27.9256 68.1261 27.1539 67.5151C29.5978 65.0711 31.9453 62.5307 34.1963 59.926C34.5179 59.5401 34.8717 59.122 34.9682 58.6075C35.0647 58.093 34.9038 57.5463 34.4215 57.3534Z" fill="#FFE945"/>
<path d="M8.14805 71.0849C8.05158 71.31 7.69797 71.3744 7.47287 71.2457C7.21561 71.1171 7.18346 70.8277 7.31208 70.5704C8.40543 68.03 10.5277 66.0041 13.1324 65.0394C13.3897 64.9429 13.647 65.1358 13.7114 65.3609C13.7757 65.6182 13.6149 65.8755 13.3898 65.9398C11.0423 66.8723 9.14493 68.7696 8.14805 71.0849ZM0.944837 70.1524C2.64918 66.0362 5.83285 62.5954 9.72389 60.4409C10.8494 59.8299 12.007 59.3475 13.229 58.9616C13.8078 58.7687 13.5826 57.8361 12.9717 58.0291C8.46962 59.444 4.5143 62.4346 1.90956 66.3578C1.16994 67.4512 0.559012 68.641 0.0444946 69.863C-0.212764 70.474 0.719736 70.7312 0.944837 70.1524ZM32.5556 75.9729C33.0701 78.2239 33.0057 80.5392 32.2982 82.7259C32.1053 83.3047 33.0378 83.562 33.2308 82.9832C33.9704 80.6357 34.0348 78.1274 33.4881 75.7156C33.3595 75.1046 32.427 75.3619 32.5556 75.9729ZM38.7941 71.6959C40.9808 75.587 41.431 80.3463 40.0804 84.591C39.8874 85.1699 40.82 85.4271 41.0129 84.8483C42.46 80.3463 41.9455 75.3297 39.6302 71.2136C39.3408 70.6669 38.5047 71.1814 38.7941 71.6959Z" fill="black"/>
<path d="M94.716 3.16892C94.523 2.97598 94.5552 2.68657 94.716 2.49362C94.9089 2.30068 95.1984 2.33284 95.3913 2.49362L95.4235 2.52577C95.4557 2.55793 95.4556 2.55794 95.3913 2.49362C95.4235 2.49362 95.4555 2.52577 95.4555 2.52577C95.4877 2.55793 95.5199 2.55792 95.5521 2.55792C95.5843 2.59008 95.6164 2.55792 95.5199 2.55792C95.5842 2.55792 95.6486 2.59009 95.7129 2.62224C95.745 2.62224 95.7771 2.62225 95.8093 2.65441C95.7128 2.62225 95.745 2.65441 95.8093 2.65441C95.8736 2.65441 95.9379 2.65441 95.9701 2.65441C96.0022 2.65441 96.0344 2.65441 96.0987 2.65441C95.9701 2.65441 96.0344 2.65441 96.0987 2.65441C96.163 2.65441 96.2273 2.62224 96.2595 2.62224C96.2916 2.62224 96.3239 2.59009 96.356 2.59009C96.2596 2.59009 96.2917 2.62225 96.3238 2.59009C96.3882 2.55794 96.4203 2.52578 96.4846 2.49362C96.5168 2.49362 96.549 2.46146 96.549 2.42931C96.549 2.42931 96.4525 2.49361 96.5168 2.46146C96.549 2.4293 96.6133 2.39715 96.6454 2.33284C96.6454 2.33284 96.7098 2.23635 96.6776 2.30067C96.6455 2.36498 96.6776 2.30068 96.6776 2.26852C96.7098 2.23636 96.7097 2.20421 96.7418 2.17205C96.7418 2.13989 96.774 2.13989 96.774 2.10773C96.774 2.13989 96.7418 2.13989 96.7418 2.17205C96.7418 2.13989 96.774 2.07558 96.774 2.01126C96.774 2.01126 96.774 1.91478 96.8062 1.91478C96.8062 1.97909 96.8062 2.01126 96.8062 1.94695V1.91478C96.8062 1.85046 96.8062 1.81831 96.8062 1.75399C96.8062 1.68968 96.8062 1.72184 96.8062 1.78616C96.8062 1.754 96.8062 1.754 96.8062 1.72184C96.8062 1.68968 96.8062 1.68968 96.8062 1.65752L96.7418 1.46459C96.7418 1.46459 96.8061 1.56106 96.7418 1.46459C96.7418 1.43243 96.7098 1.43242 96.7098 1.40027C96.6776 1.33595 96.6454 1.3038 96.6132 1.23948C96.5489 1.14301 96.6775 1.3038 96.6132 1.23948C96.5811 1.20732 96.5812 1.20732 96.549 1.17516C96.5169 1.143 96.4203 1.04654 96.4203 1.04654C96.4203 1.04654 96.5168 1.11085 96.4524 1.07869C96.4203 1.04654 96.3882 1.04653 96.3882 1.01438C96.3561 1.01438 96.3238 0.982226 96.2917 0.982226C96.2595 0.982226 96.2596 0.950057 96.2274 0.950057H96.2595C96.2916 0.950057 96.2916 0.982214 96.2595 0.950057C96.2273 0.950057 96.2274 0.950065 96.1952 0.917907C96.1631 0.917907 96.1308 0.885758 96.0987 0.885758C96.0665 0.885758 96.0666 0.885758 96.0345 0.885758C96.0666 0.885758 96.0665 0.885758 96.0987 0.885758H96.0345C96.0023 0.885758 95.9701 0.885758 95.9379 0.885758C95.9057 0.885758 95.9058 0.885758 95.8737 0.885758C95.9058 0.885758 95.9057 0.885758 95.9379 0.885758C95.9057 0.917915 95.8414 0.917907 95.7771 0.917907C95.745 0.917907 95.745 0.917899 95.7129 0.950057C95.6807 0.982214 95.6808 0.950057 95.7451 0.950057C95.7451 0.982214 95.6807 0.982226 95.6485 0.982226C95.6164 1.01438 95.5521 1.04654 95.5199 1.04654C95.4234 1.11086 95.5199 1.0787 95.5199 1.04654L95.4555 1.11084C95.4234 1.143 95.3913 1.17517 95.3591 1.20733L95.3269 1.23948C95.3591 1.17517 95.3913 1.17517 95.3591 1.20733C95.3591 1.23949 95.3269 1.23947 95.3269 1.27163C95.2948 1.33594 95.2627 1.3681 95.2305 1.43242C95.2305 1.46457 95.1983 1.46458 95.1983 1.49674C95.1983 1.46458 95.2305 1.46457 95.2305 1.43242L95.1983 1.49674C95.1662 1.56105 95.1661 1.62536 95.134 1.65752C95.134 1.68968 95.134 1.68968 95.134 1.72184C95.134 1.65753 95.134 1.62536 95.134 1.65752C95.134 1.68968 95.134 1.72184 95.134 1.72184C95.134 1.78616 95.134 1.85046 95.134 1.91478C95.134 2.01125 95.134 1.88263 95.134 1.88263C95.134 1.88263 95.134 1.94694 95.1661 1.9791C95.1661 2.01125 95.2627 2.20419 95.1983 2.07556C95.2948 2.33282 95.2627 2.59009 95.0376 2.75088C94.8446 2.87951 94.4908 2.81519 94.3622 2.59009C94.2014 2.2042 94.1372 1.81831 94.2658 1.40027C94.3623 1.04654 94.5552 0.692798 94.8446 0.467697C95.3913 -0.0468208 96.1631 -0.143289 96.8384 0.210442C97.4494 0.532015 97.8674 1.27164 97.8031 1.94695C97.7388 2.68656 97.2563 3.23324 96.581 3.45835C95.9057 3.74776 95.1983 3.61912 94.716 3.16892ZM53.9405 10.0184C54.6158 10.5973 55.3233 11.2083 55.9986 11.7871C56.1915 11.9479 56.481 11.98 56.6739 11.7871C56.8347 11.5941 56.8669 11.2726 56.6739 11.1118C55.9986 10.533 55.291 9.92197 54.6157 9.34313C54.4228 9.18235 54.1335 9.15019 53.9405 9.34313C53.7798 9.50392 53.7476 9.82549 53.9405 10.0184ZM85.5833 36.1945C85.4869 38.2526 85.3904 40.3106 85.2939 42.4009C85.2618 43.0119 86.2265 43.0119 86.2587 42.4009C86.3551 40.3428 86.4516 38.2847 86.548 36.1945C86.5802 35.5835 85.6155 35.5835 85.5833 36.1945Z" fill="black"/>
</svg>
