<svg width="240" height="172" viewBox="0 0 240 172" fill="none" xmlns="http://www.w3.org/2000/svg">
<path d="M56.5713 117.662C50.642 109.449 44.6249 101.148 40.7599 91.7934C36.8949 82.4384 35.2699 71.7657 38.3443 62.1472C41.7701 51.3867 51.213 42.7783 62.237 40.3188C67.2439 39.2208 73.1732 38.9572 76.2476 34.8287C77.3895 33.2915 77.9605 31.4029 78.4875 29.5144C80.3761 22.575 82.5282 14.5375 89.1163 11.5949C96.2753 8.38868 104.225 13.0882 111.296 16.5139C119.377 20.4229 128.161 22.7946 137.121 23.4534C141.118 23.7608 145.159 23.7169 148.98 24.8588C152.801 26.0007 156.446 28.6799 157.544 32.501C158.774 36.9369 156.402 41.8999 157.939 46.2041C159.169 49.6299 162.639 51.8259 166.153 52.9239C169.622 54.0219 173.355 54.3733 176.825 55.6031C186.532 59.0288 192.68 69.1744 193.778 79.4079C194.876 89.6413 191.714 99.8748 187.498 109.23C185.214 114.281 182.623 119.2 179.109 123.504C166.065 139.623 142.172 144.19 122.276 138.305C117.533 136.9 112.877 134.967 108.002 134.22C102.556 133.386 97.0219 134.045 91.4879 133.913C79.1463 133.649 66.9365 129.301 57.1422 121.747" fill="#F4F6F9"/>
<path d="M206.691 138.7C206.076 136.768 205.153 134.967 204.099 133.298C202.957 131.497 201.596 129.696 201.069 127.588C200.454 125.304 201.157 122.977 201.728 120.737C202.299 118.497 202.606 116.345 202.255 114.061C201.508 109.361 198.477 105.365 195.491 101.763C196.281 100.929 196.721 99.8746 196.809 98.6887C196.896 97.3711 196.589 96.0535 196.633 94.7359C196.633 94.5163 196.545 94.3406 196.457 94.2088C197.028 91.9689 197.555 89.729 198.126 87.489C198.609 85.6005 199.18 83.668 199.4 81.6915C200.015 82.1747 200.805 82.4821 201.596 82.4821C204.011 82.4821 205.593 79.5395 206.383 77.607C207.393 75.1913 207.657 72.5561 207.613 69.9648C207.569 68.4715 207.437 67.0222 207.305 65.5289C207.174 64.3869 207.218 63.0254 206.471 62.0592C206.12 61.6199 205.636 61.3125 205.109 61.1368C204.934 60.5659 204.67 60.0388 204.275 59.5557C203.397 58.5016 201.771 57.9306 200.542 58.7212C200.059 57.2279 199.136 55.9542 197.423 55.7785C195.579 55.6029 194.129 56.8326 193.427 58.4138C192.197 56.5691 190.308 55.2954 188.024 55.3393C185.653 55.3833 183.369 56.613 181.7 58.2381C179.811 60.0827 178.538 62.5423 177.659 65.0018C176.781 67.4174 176.166 69.9648 175.859 72.5561C175.331 77.2556 175.771 82.3943 173.223 86.5667C172.96 87.0059 172.652 87.489 172.345 87.9282C170.5 89.9486 169.402 92.6277 169.314 95.3508C169.27 96.7562 169.929 98.3813 168.787 99.5232C167.865 100.446 166.635 100.929 165.801 101.939C163.736 104.398 164.044 107.736 164.088 110.723C164.132 112.436 163.956 114.061 163.385 115.642C162.858 117.135 162.067 118.541 161.409 119.99C160.355 122.23 159.696 124.602 159.476 127.017C157.017 122.01 153.767 117.443 149.858 113.446C145.949 109.449 141.513 106.023 136.857 102.949C135.1 101.763 133.3 100.577 131.411 99.5232C131.411 99.2597 131.279 99.0401 131.104 98.9083C130.445 95.3508 129.786 91.7932 129.127 88.2357C128.381 84.1511 127.59 80.0665 126.843 75.9819C126.712 75.3231 126.58 74.6643 126.448 73.9616C130.269 71.8095 134.09 69.6574 137.867 67.5053C138.394 67.1978 138.307 66.583 137.867 66.2755C134.046 63.4646 130.269 60.6098 126.448 57.755C124.472 56.2617 122.451 54.7245 120.431 53.2312C118.499 51.7818 116.61 50.2007 114.502 49.0148C113.14 48.2242 111.691 47.6094 110.198 47.258C110.988 46.8188 111.779 46.2918 112.525 45.5451C114.634 43.393 115.6 36.4536 111.252 32.9839C107.738 42.4268 101.106 37.9908 93.9471 44.0079C88.501 48.6195 91.751 60.1267 96.0113 65.1775C94.0788 65.5728 92.322 66.7147 91.3119 68.4276C89.6429 71.3263 90.4334 75.3231 93.0687 77.3874C94.2106 78.3097 95.66 78.7489 97.1093 78.7928C96.1431 85.7322 94.6937 92.5399 93.3322 99.3914C89.2476 100.753 85.163 102.158 81.5176 104.486C77.7405 106.902 74.2707 109.713 70.9767 112.743C69.4395 114.149 67.9462 115.554 66.4529 117.004C65.7063 113.446 63.642 110.108 60.3919 108.483C60.6115 108.088 60.348 107.648 59.9966 107.473C60.3919 105.496 60.2602 103.476 59.5135 101.544C58.679 99.3475 57.2736 97.459 56.0438 95.5265C53.4086 91.3979 53.8039 86.2153 53.189 81.5598C52.8376 79.0124 52.1788 76.465 51.3004 74.0494C50.3781 71.5899 49.1044 69.1303 47.1719 67.3296C45.459 65.7485 43.1752 64.5187 40.8035 64.5187C38.5196 64.5187 36.631 65.7924 35.4452 67.681C34.7424 66.0998 33.2931 64.914 31.4484 65.0897C29.7355 65.2653 28.8571 66.583 28.374 68.0762C27.1442 67.2857 25.5192 67.9006 24.6408 68.9547C24.2455 69.4378 23.9819 69.9648 23.8502 70.5797C23.3231 70.7554 22.84 71.0628 22.5326 71.502C21.8298 72.4683 21.8738 73.8298 21.742 74.9717C21.6103 76.465 21.4785 77.9144 21.4785 79.4077C21.4785 81.999 21.7859 84.6342 22.84 87.0498C23.6745 88.9823 25.2996 91.8811 27.7152 91.8811C28.5057 91.8811 29.2963 91.5736 29.9112 91.0905C30.1308 93.0669 30.7457 94.9994 31.2288 96.888C31.7998 99.1279 32.4147 101.324 32.9856 103.564C31.6241 105.101 31.4923 107.473 31.8437 109.449C32.0633 110.679 32.5025 111.909 32.5025 113.139C32.5025 114.412 31.7998 115.554 31.141 116.608C29.8234 118.848 28.9889 121.352 29.6477 123.943C29.7794 124.558 30.043 125.129 30.3504 125.656C30.4822 125.919 30.6579 126.183 30.7457 126.446C30.8775 126.842 30.6578 126.886 30.3943 127.061C29.3841 127.632 28.5497 128.467 27.9348 129.433C27.3199 130.399 26.9685 131.497 26.8368 132.595C26.705 133.825 26.9685 135.011 27.3199 136.197C27.7152 137.514 28.2422 138.876 28.3301 140.237C28.4179 141.687 28.1544 143.136 27.803 144.585C27.232 147.089 26.6611 149.548 26.6611 152.14C26.6611 154.424 27.0125 156.751 27.6713 158.947L29.1646 158.86C29.2524 159.167 29.3402 159.431 29.472 159.738C29.472 159.738 78.6189 173.705 105.147 165.052C131.675 156.356 172.125 132.683 205.988 149.636C206.998 150.119 209.106 146.211 206.691 138.7Z" fill="white"/>
<path d="M82.9226 66.495L77.0812 72.4242C72.7331 76.8602 65.6619 76.9041 61.226 72.556L56.9218 68.3396C52.4858 63.9915 52.4419 56.9204 56.79 52.4844L62.6314 46.5112" fill="#FFE945"/>
<path d="M82.9557 66.4862C84.5372 64.8775 81.2762 59.1067 75.6718 53.5967C70.0675 48.0866 64.2421 44.924 62.6606 46.5326C61.079 48.1413 64.3401 53.9121 69.9444 59.4221C75.5488 64.9321 81.3741 68.0948 82.9557 66.4862Z" fill="white"/>
<path d="M21.9172 75.9385C22.7517 76.2898 22.4003 77.6953 21.5219 77.3439C19.3698 76.4655 17.2616 75.4114 15.2852 74.1377C8.34577 69.7018 2.94359 63.0259 0.0448434 55.2959C-0.262599 54.4175 1.09891 54.0661 1.45027 54.9006C2.24084 56.9649 3.20713 58.9413 4.34906 60.8738C8.43365 67.5936 14.6264 72.9958 21.9172 75.9385ZM59.0738 70.4045C57.9758 71.239 56.8778 72.0735 55.648 72.7323C54.2425 73.5228 52.7493 73.962 51.1242 74.1377C48.1816 74.4452 45.0193 74.2256 42.4719 75.9824C41.7252 76.5094 42.428 77.7831 43.2186 77.2121C45.7659 75.4114 49.1039 75.8506 52.0465 75.4553C55.1649 75.0161 57.6683 73.2593 60.0839 71.3707L59.0738 70.4045ZM83.4496 66.9787C84.4597 65.9246 84.1962 63.9043 82.6151 61.1373C81.2096 58.6338 78.9258 55.779 76.1588 53.056C70.8444 47.8294 64.3442 43.7448 62.1043 46.0287C59.8644 48.2686 64.0807 54.7249 69.3951 59.9515C73.6553 64.1678 78.7501 67.6375 81.6928 67.6375C82.4394 67.6375 83.0104 67.4179 83.4496 66.9787ZM75.1486 54.11C77.8278 56.7453 80.0238 59.4683 81.3414 61.84C82.6151 64.1239 82.7908 65.5733 82.3955 65.9685C81.4292 66.9348 76.2905 64.6948 70.4052 58.8974C64.5199 53.0999 62.1921 48.0051 63.1583 47.0389C63.2901 46.9071 63.5537 46.8193 63.8611 46.8193C65.7058 46.8193 70.1417 49.191 75.1486 54.11ZM68.8241 55.6473C70.5809 57.3602 72.2938 59.073 74.0506 60.7859C74.7094 61.4447 75.7196 60.4346 75.0608 59.7758C73.304 58.0629 71.5911 56.35 69.8343 54.6371C69.1755 53.9783 68.1653 54.9885 68.8241 55.6473ZM70.4931 53.2316C72.2499 54.9445 73.9628 56.6574 75.7196 58.3703C76.3784 59.0291 77.3885 58.019 76.7297 57.3602C74.9729 55.6473 73.26 53.9344 71.5032 52.2215C70.8444 51.5627 69.8343 52.5728 70.4931 53.2316ZM60.5231 53.3195C63.0705 57.7115 66.0132 62.2353 70.6248 64.6948C71.4593 65.134 72.162 63.9043 71.3715 63.4651C66.9794 61.1373 64.2124 56.7892 61.7968 52.6168C61.3137 51.7823 60.0839 52.5289 60.5231 53.3195Z" fill="black"/>
<path d="M164.263 39.0444L171.817 42.5581C177.439 45.1494 179.898 51.8253 177.307 57.4471L174.76 62.9371C172.168 68.5589 165.492 71.0184 159.871 68.4271L152.316 64.9135" fill="#9ED5F0"/>
<path d="M164.262 39.0445C162.9 38.4297 160.485 40.45 158.069 43.9636L152.316 41.3284C151.657 41.021 150.866 41.3284 150.559 41.9872L150.032 43.1291C149.724 43.7879 150.032 44.5785 150.691 44.886L156.049 47.3016C155.566 48.2239 155.039 49.1901 154.599 50.2003C154.555 50.2882 154.512 50.4199 154.468 50.5078L148.538 47.8286C147.88 47.5212 147.089 47.8286 146.782 48.4874L146.255 49.6294C145.947 50.2882 146.255 51.0787 146.913 51.3862L152.974 54.1531C151.042 59.5993 150.691 64.0791 152.36 64.8258C154.424 65.792 158.772 60.7412 162.066 53.6261C165.316 46.5549 166.326 40.0108 164.262 39.0445Z" fill="white"/>
<path d="M164.57 38.3859C163.252 37.771 161.408 38.7373 159.344 41.1529C158.86 41.7238 158.333 42.3826 157.85 43.0854L152.624 40.7137C152.141 40.4941 151.57 40.4501 151.043 40.6697C150.516 40.8454 150.12 41.2407 149.901 41.7238L149.374 42.8658C149.154 43.3489 149.11 43.9199 149.33 44.4469C149.505 44.9739 149.901 45.3692 150.384 45.5888L155.039 47.697C154.688 48.3119 154.381 48.9707 154.073 49.6295L148.803 47.2578C148.32 47.0382 147.749 46.9943 147.222 47.2139C146.695 47.3896 146.299 47.7848 146.08 48.268L145.553 49.4099C145.333 49.893 145.289 50.464 145.509 50.991C145.684 51.5181 146.08 51.9134 146.563 52.133L152.053 54.6364C151.438 56.4811 150.955 58.2379 150.735 59.819C150.252 62.9813 150.691 64.9577 152.009 65.5726C152.272 65.7043 152.58 65.7483 152.843 65.7483C155.742 65.7483 159.827 60.1265 162.638 54.0215C165.8 47.2578 167.425 39.7035 164.57 38.3859ZM150.691 43.9199C150.647 43.7881 150.647 43.6124 150.691 43.4367L151.218 42.2948C151.306 42.0752 151.526 41.9434 151.789 41.9434C151.877 41.9434 151.965 41.9434 152.053 41.9874L160.573 45.8523L159.563 48.0923L151.043 44.2273C150.867 44.1834 150.735 44.0516 150.691 43.9199ZM146.87 50.464C146.826 50.3322 146.826 50.1565 146.87 49.9809L147.397 48.8389C147.485 48.7072 147.573 48.5754 147.749 48.5315C147.836 48.4876 147.88 48.4876 147.968 48.4876C148.056 48.4876 148.144 48.4876 148.232 48.5315L156.752 52.3965L155.742 54.6364L147.222 50.7714C147.046 50.7275 146.914 50.5957 146.87 50.464ZM161.364 53.4066C157.894 60.8731 153.897 64.8259 152.624 64.255C152.097 64.0354 151.745 62.6299 152.141 60.0386C152.36 58.5892 152.799 56.9642 153.37 55.2513L156.401 56.6128L158.641 51.7377L155.391 50.2444C155.698 49.5856 156.049 48.9268 156.357 48.3119L160.222 50.0687L162.462 45.1935L159.212 43.7003C159.607 43.1293 160.046 42.6022 160.442 42.1191C161.935 40.4062 163.121 39.7035 163.736 39.7035C163.823 39.7035 163.911 39.7035 163.999 39.7474C165.229 40.2745 164.834 45.8963 161.364 53.4066ZM167.03 43.7003C167.03 42.7779 168.479 42.7779 168.479 43.7003C168.523 51.6059 165.317 59.4237 159.695 65.0016C159.036 65.6604 158.026 64.6503 158.685 63.9914C164.043 58.6332 167.074 51.2545 167.03 43.7003ZM176.253 61.5758C175.331 61.5758 175.331 60.1265 176.253 60.1265C178.537 60.1265 180.25 61.7076 181.567 63.3766C182.841 65.0016 184.071 67.0219 186.267 67.4612C187.189 67.6368 186.794 69.0423 185.871 68.8666C183.719 68.4713 182.27 66.7584 181.04 65.0895C179.854 63.5083 178.449 61.5758 176.253 61.5758ZM207.217 70.4477C206.294 70.4917 206.294 69.0423 207.217 68.9984C209.852 68.8227 212.443 68.2956 214.947 67.5051C224.126 64.5624 231.636 58.194 238.752 51.9573C239.454 51.3424 240.464 52.3526 239.762 52.9674C237.61 54.856 235.501 56.7007 233.261 58.5014C225.795 64.5624 217.099 69.8329 207.217 70.4477Z" fill="black"/>
<path d="M119.069 82.1312C119.332 82.3947 119.332 82.8779 119.069 83.1414C118.761 83.4049 118.498 83.7123 118.234 84.0198C118.19 84.0637 118.19 84.1076 118.146 84.1076C118.146 84.1076 118.146 84.1516 118.102 84.1516C118.058 84.2394 117.971 84.3272 117.927 84.3712C117.795 84.5468 117.707 84.6786 117.619 84.8543C117.4 85.2056 117.224 85.557 117.048 85.9084C117.004 85.9523 117.004 85.9962 117.004 86.0401C117.004 86.0401 117.004 86.0401 117.004 86.0841C116.96 86.1719 116.916 86.2597 116.873 86.3915C116.785 86.5672 116.741 86.7429 116.697 86.9625C116.565 87.3577 116.214 87.5773 115.819 87.4895C115.423 87.4017 115.204 86.9625 115.291 86.6111C115.818 84.8982 116.741 83.361 118.058 82.1751C118.322 81.8238 118.761 81.8238 119.069 82.1312ZM29.5589 159.738C31.0522 163.955 33.8192 167.776 37.4207 170.367C38.1673 170.894 37.4646 172.168 36.674 171.597C32.3698 168.479 29.2515 163.999 27.7582 158.904C27.0994 156.708 26.7481 154.38 26.7481 152.096C26.7481 149.505 27.319 147.046 27.89 144.542C28.2413 143.137 28.5048 141.687 28.417 140.194C28.3292 138.788 27.8021 137.471 27.4069 136.153C27.0555 134.967 26.7919 133.782 26.9237 132.552C27.0555 131.41 27.4068 130.312 28.0217 129.39C28.6366 128.423 29.4711 127.589 30.4813 127.018C30.7887 126.842 30.9644 126.798 30.8326 126.403C30.7448 126.139 30.5691 125.876 30.4373 125.612C30.1299 125.085 29.9103 124.514 29.7346 123.899C29.0758 121.308 29.8664 118.805 31.2279 116.565C31.8867 115.511 32.5894 114.413 32.5894 113.095C32.5894 111.821 32.1502 110.636 31.9306 109.406C31.5793 107.429 31.6671 105.058 33.0725 103.52C32.5016 101.28 31.8867 99.0845 31.3157 96.8445C30.8326 94.956 30.2177 93.0235 29.9981 91.047C29.3832 91.5302 28.5927 91.8376 27.8021 91.8376C25.3865 91.8376 23.7614 88.9389 22.9269 87.0064C21.9168 84.5908 21.5654 81.9555 21.5654 79.3642C21.5654 77.8709 21.6972 76.4216 21.8289 74.9283C21.9168 73.7864 21.9168 72.4248 22.6195 71.4586C22.9709 71.0194 23.4101 70.7119 23.9371 70.5362C24.1128 69.9653 24.3324 69.3943 24.7277 68.9112C25.6061 67.8571 27.2311 67.2422 28.4609 68.0328C28.944 66.5395 29.8224 65.2219 31.5353 65.0462C33.38 64.8705 34.8294 66.0564 35.5321 67.6375C36.718 65.7489 38.6065 64.4752 40.8904 64.4752C43.2621 64.4752 45.5459 65.705 47.2588 67.2861C49.1913 69.0869 50.465 71.5464 51.3874 74.006C52.3097 76.4216 52.9685 78.969 53.2759 81.5163C53.8908 86.2158 53.4955 91.3545 56.1307 95.483C57.3605 97.4594 58.7659 99.348 59.6004 101.5C60.3471 103.433 60.4349 105.453 60.0835 107.429C60.4349 107.605 60.6984 108.044 60.4788 108.44C63.7729 110.065 65.8371 113.403 66.5399 116.96C68.0332 115.511 69.5264 114.061 71.0636 112.7C74.3577 109.713 77.8274 106.858 81.6045 104.443C85.2499 102.115 89.3345 100.71 93.4191 99.348C94.7367 92.4964 96.23 85.6888 97.1962 78.7493C95.7469 78.7054 94.2975 78.2662 93.1556 77.3439C90.5204 75.2796 89.7298 71.2829 91.3988 68.3842C92.4089 66.6713 94.1657 65.5293 96.0982 65.134C91.8819 60.0832 88.5879 48.5761 94.034 43.9644C101.149 37.9473 107.825 42.3833 111.339 32.9404C115.731 36.4101 114.764 43.3495 112.612 45.5016C111.866 46.2483 111.075 46.8193 110.285 47.2145C111.778 47.5659 113.227 48.1808 114.589 48.9714C116.697 50.1572 118.585 51.7383 120.518 53.1877C122.538 54.681 124.515 56.1743 126.535 57.7115C130.312 60.5663 134.089 63.4211 137.954 66.232C138.394 66.5395 138.481 67.1983 137.954 67.4618C134.133 69.6139 130.356 71.8099 126.535 73.9181C126.667 74.5769 126.799 75.2357 126.93 75.9384C127.677 80.023 128.468 84.1076 129.214 88.1922C129.873 91.7498 130.532 95.3073 131.191 98.8649C131.366 98.9966 131.542 99.2162 131.498 99.4798C133.343 100.534 135.143 101.72 136.944 102.906C141.6 105.98 146.036 109.406 149.945 113.403C153.854 117.399 157.104 121.967 159.563 126.974C159.783 124.558 160.442 122.187 161.496 119.947C162.154 118.497 162.945 117.092 163.472 115.599C164.043 113.973 164.219 112.392 164.175 110.679C164.131 107.693 163.823 104.355 165.888 101.895C166.722 100.885 167.952 100.402 168.874 99.4798C170.016 98.3818 169.357 96.7128 169.401 95.3073C169.445 92.5843 170.543 89.9051 172.432 87.8848C172.739 87.4456 173.003 86.9625 173.31 86.5233C175.858 82.3508 175.418 77.2121 175.945 72.5127C176.253 69.9653 176.868 67.374 177.746 64.9584C178.625 62.4988 179.898 60.0393 181.787 58.1946C183.456 56.5696 185.74 55.3398 188.111 55.2959C190.395 55.252 192.284 56.5257 193.514 58.3703C194.216 56.7892 195.622 55.5594 197.51 55.7351C199.223 55.8668 200.146 57.1845 200.629 58.6778C201.858 57.8872 203.483 58.4582 204.362 59.5122C204.757 59.9954 205.021 60.5224 205.196 61.0934C205.723 61.2251 206.207 61.5326 206.558 62.0157C207.261 62.9819 207.261 64.3435 207.392 65.4854C207.568 66.9787 207.7 68.4281 207.7 69.9214C207.744 72.5127 207.436 75.1479 206.47 77.5635C205.679 79.496 204.098 82.4387 201.683 82.4387C200.892 82.4387 200.102 82.1312 199.487 81.6481C199.267 83.6245 198.696 85.557 198.213 87.4456C197.642 89.6855 197.115 91.9255 196.544 94.1654C196.676 94.2972 196.764 94.4289 196.72 94.6924C196.676 96.0101 196.983 97.3277 196.895 98.6453C196.851 99.8311 196.412 100.885 195.578 101.72C198.564 105.321 201.595 109.318 202.342 114.017C202.693 116.301 202.385 118.453 201.814 120.693C201.243 122.933 200.541 125.261 201.156 127.545C201.727 129.653 203.044 131.454 204.186 133.255C205.284 134.967 206.163 136.724 206.777 138.657C209.237 146.211 207.568 154.907 202.429 160.968C201.815 161.671 200.804 160.661 201.419 159.958C204.186 156.708 205.855 152.579 206.338 148.363C206.734 144.586 206.25 140.721 204.713 137.251C203.088 133.518 199.706 130.4 199.487 126.139C199.355 123.856 200.102 121.66 200.629 119.464C201.112 117.311 201.244 115.203 200.673 113.095C199.662 109.186 197.115 105.848 194.568 102.818C194.524 102.818 194.48 102.862 194.436 102.862C192.284 103.608 190 103.828 187.76 103.828C185.52 103.828 183.236 103.696 181.04 103.389C177.307 102.906 173.793 101.368 170.895 98.9966C170.675 99.7872 170.192 100.49 169.445 101.061C168.391 101.895 167.249 102.422 166.547 103.608C164.965 106.331 165.844 109.669 165.624 112.612C165.405 115.818 163.736 118.497 162.506 121.396C161.276 124.207 160.793 127.237 160.969 130.268C161.012 130.4 161.056 130.575 161.012 130.663C161.012 130.883 161.056 131.102 161.056 131.366C161.144 132.288 159.739 132.288 159.607 131.366C159.563 131.102 159.563 130.839 159.519 130.575C159.212 129.829 158.904 129.082 158.553 128.379C155.918 122.714 152.141 117.707 147.661 113.359C143.971 109.757 139.843 106.683 135.539 103.872C134.353 103.081 133.123 102.335 131.893 101.588C131.674 101.895 131.278 101.939 130.971 101.808C130.62 103.169 130.268 104.575 129.609 105.804C128.248 108.483 125.481 110.328 122.582 110.855C119.288 111.47 115.862 110.46 113.183 108.483C112.92 108.308 112.832 108.044 112.876 107.781C112.656 107.781 112.437 107.825 112.173 107.825L112.129 107.869C109.582 110.592 105.234 110.899 101.764 110.021C99.6997 109.494 98.2942 108.176 97.1962 106.419C96.0543 104.618 95.132 102.686 94.2536 100.753C91.9258 101.544 89.5541 102.291 87.3142 103.257C83.2735 104.97 79.672 107.517 76.2902 110.284C72.9961 112.963 69.9217 115.906 66.8473 118.893C66.8912 119.815 66.8912 120.737 66.8034 121.66C66.7595 122.362 66.6277 123.109 66.8473 123.768C67.023 124.339 67.3743 124.734 67.7696 125.129C68.648 125.92 69.6582 126.579 70.5366 127.325C71.415 128.072 72.2934 128.862 73.084 129.697C74.2259 130.883 75.28 132.2 76.1145 133.65C76.9929 132.771 77.9592 131.937 79.0133 131.19C79.7599 130.619 80.5065 131.893 79.7599 132.42C78.7058 133.167 77.7396 134.045 76.8611 134.967C77.9152 137.119 78.3983 139.491 78.0031 141.995C77.6517 144.059 76.3341 146.167 74.0941 146.431C73.1279 146.562 72.0299 146.299 71.3272 145.552C70.5366 144.762 70.3609 143.62 70.4927 142.566C70.6684 141.38 71.2393 140.238 71.8542 139.184C72.4252 138.13 73.084 137.163 73.8306 136.241C74.2259 135.714 74.6651 135.187 75.1482 134.704C73.6989 132.069 71.3711 129.829 69.0872 127.984C68.2527 127.325 67.3743 126.754 66.6277 126.008C65.7932 125.217 65.354 124.251 65.3101 123.153C65.2222 122.099 65.4858 121.089 65.4858 120.034C65.4858 119.639 65.4858 119.244 65.4419 118.849C65.3979 118.717 65.354 118.585 65.3979 118.453C65.354 118.058 65.3101 117.707 65.2223 117.311C64.5634 114.061 62.631 110.943 59.4687 109.625C58.3707 110.636 57.1848 111.514 55.999 112.392C53.0563 114.457 49.7184 116.345 46.1169 116.784C41.9445 117.311 37.6403 116.609 33.8192 114.896C33.7753 114.984 33.7753 115.028 33.7313 115.115C33.2043 116.433 32.3259 117.575 31.711 118.849C31.184 119.947 31.0083 121.264 31.0522 122.494C31.0961 123.109 31.2279 123.724 31.4475 124.295C31.6671 124.866 32.0624 125.349 32.282 125.964C32.4577 126.535 32.4577 127.15 32.1063 127.633C31.7989 128.072 31.2718 128.248 30.8326 128.555C29.9542 129.17 29.2515 130.048 28.8123 131.058C28.3731 132.025 28.2413 133.123 28.417 134.177C28.6366 135.494 29.1636 136.724 29.515 137.998C30.2616 140.765 29.7346 143.444 29.0758 146.167C28.5048 148.495 28.1974 150.779 28.2853 153.194C28.3292 155.434 28.7683 157.63 29.5589 159.738ZM29.2954 72.2931C29.3393 73.5667 29.5589 74.8404 29.9103 76.0702C30.086 75.9824 30.2617 75.9384 30.4813 75.8945C31.6671 75.4992 32.8969 75.4114 34.1705 75.4114C34.1266 74.2695 34.1267 73.1275 34.2584 71.9856C34.3463 71.239 34.4341 70.4923 34.6097 69.7457C34.6097 69.7018 34.5658 69.6578 34.5658 69.6139C34.4341 68.6477 34.0827 67.6814 33.2921 67.1105C32.5894 66.5834 31.4914 66.4077 30.7887 66.9348C30.086 67.4618 29.8225 68.5159 29.6468 69.3065C29.3833 70.2727 29.2954 71.2829 29.2954 72.2931ZM29.9542 87.7969C29.8224 87.753 29.6907 87.6652 29.6029 87.5773C26.8798 85.6888 25.1669 82.6143 24.3324 79.4521C23.8493 77.6513 23.6297 75.7628 23.6297 73.8742C23.6297 73.435 23.6297 72.9958 23.6297 72.5566C23.3222 73.1275 23.3223 73.962 23.2783 74.533C22.8831 78.5737 22.5756 82.9218 24.2885 86.6989C24.6838 87.5334 25.1669 88.3679 25.7379 89.0706C26.2649 89.6855 26.8798 90.4322 27.7582 90.4322C29.2515 90.4322 29.9103 89.1146 29.9542 87.7969ZM31.3157 86.1719C31.4475 85.6009 31.3597 85.03 31.2718 84.459C31.2279 83.9319 31.1401 83.4049 31.0522 82.8779C29.9103 82.5265 28.9001 81.9555 28.1974 80.9893C27.4947 80.067 27.0994 78.7054 27.7582 77.6513C27.9778 77.3 28.2852 76.9925 28.6366 76.7729C28.0217 74.7526 27.7143 72.6883 27.9339 70.5802C27.9778 70.1849 28.0217 69.7896 28.1096 69.3504C27.1872 68.9551 26.4845 69.3504 26.221 69.57C25.0351 70.4484 25.0791 72.2052 25.0791 73.5668C25.123 76.4655 25.5183 79.4521 26.8359 82.0434C27.4068 83.1853 28.1096 84.2394 28.988 85.1617C29.4272 85.6448 29.9542 86.128 30.5252 86.4793C30.9644 86.7429 31.184 86.6989 31.3157 86.1719ZM34.3462 102.906C34.5658 102.993 34.7854 103.169 34.8294 103.389C35.6199 103.608 36.674 103.389 37.4207 103.257C38.2991 103.125 39.2214 102.949 40.0998 102.73C41.8127 102.291 43.5256 101.72 45.1067 100.973C48.3568 99.4358 51.2995 97.3277 53.7591 94.6924C53.803 94.6485 53.8469 94.6046 53.8908 94.5607C53.1002 92.7599 52.7489 90.7835 52.5293 88.8071C52.2657 86.5233 52.134 84.2394 51.8705 81.9555C51.6069 79.6278 50.992 77.3439 50.2015 75.1479C49.4109 72.864 48.269 70.5362 46.5561 68.7794C45.1067 67.2861 43.0864 66.0564 40.9343 66.0124C38.6065 65.9685 37.0693 67.5936 36.1031 69.57C36.0591 69.6578 36.0152 69.7457 35.9713 69.8335C35.4882 71.6343 35.4882 73.5667 35.5321 75.3675C35.5321 75.4114 35.5321 75.4114 35.5321 75.4114C35.9713 75.4553 36.3666 75.4553 36.8058 75.4992C38.4308 75.631 40.0998 75.8945 41.637 76.3777C42.2519 74.6208 42.4276 72.7323 42.0762 70.9315C41.9884 70.5363 42.1641 70.141 42.6033 70.0531C42.9546 69.9653 43.4378 70.1849 43.4817 70.5802C43.877 72.6883 43.7013 74.8844 42.9986 76.9047C43.3499 77.0365 43.7013 77.2121 44.0087 77.3439C46.6439 78.6615 48.5764 81.0332 50.0697 83.4928C50.5529 84.2833 49.3231 85.03 48.8399 84.2394C47.3467 81.8238 45.4581 79.5399 42.779 78.3541C40.8465 77.5196 38.7822 77.1243 36.7179 76.9486C34.9611 76.8169 33.2043 76.6412 31.4475 77.0365C30.613 77.2121 29.515 77.5196 28.9441 78.2662C28.3731 79.0129 29.2075 80.1548 29.7785 80.6379C30.7887 81.4724 32.1502 81.692 33.4239 81.7799C34.9172 81.9116 36.4105 81.9555 37.9477 81.9995C38.6944 82.0434 38.914 82.9657 38.2991 83.361C36.8936 84.3272 36.2788 86.084 36.2348 87.753C36.2348 89.9051 37.1133 91.9694 37.9477 93.9458C38.0795 94.2972 37.772 94.7364 37.4207 94.8242C37.0254 94.912 36.674 94.6924 36.5423 94.2971C35.6199 92.0572 34.6098 89.6855 34.7854 87.226C34.7854 86.9625 34.8294 86.7429 34.8733 86.4793C34.0388 86.5233 33.2483 86.2158 32.6773 85.557C32.6773 85.8205 32.6773 86.0401 32.6333 86.3037C32.5455 86.9185 32.2381 87.5334 31.711 87.8409C31.6232 87.8848 31.4914 87.9287 31.4036 87.9726C31.4036 88.0605 31.3597 88.1483 31.3597 88.2361C31.3597 88.4118 31.3157 88.5875 31.2718 88.7193C31.184 89.6416 31.2279 90.5639 31.4036 91.4863C31.755 93.5066 32.3699 95.483 32.8969 97.5033C33.4239 99.348 33.907 101.105 34.3462 102.906ZM33.3361 83.8441C33.6875 84.5468 34.2145 85.3374 35.0929 85.0739C35.2247 85.03 35.3125 84.986 35.4442 84.9421C35.6638 84.4151 35.9274 83.932 36.2787 83.4928V83.4488C35.1807 83.4049 34.1266 83.361 33.0286 83.2292C33.1604 83.4488 33.2483 83.6684 33.3361 83.8441ZM57.8875 101.324C56.9652 99.4358 55.6476 97.7669 54.5935 95.9661C52.0022 98.7331 48.8399 100.973 45.3263 102.51C43.5256 103.301 41.637 103.916 39.7485 104.355C38.7822 104.575 37.8599 104.706 36.8936 104.838C35.9274 104.97 34.9611 105.014 34.0388 104.662C32.5894 106.463 33.38 109.142 33.7753 111.25C33.951 111.997 34.0388 112.744 33.9949 113.49C36.0592 114.457 38.343 115.115 40.6269 115.379C42.6033 115.599 44.7114 115.642 46.6878 115.291C48.3129 114.984 49.8501 114.325 51.2995 113.578C53.8029 112.261 56.2186 110.636 58.3267 108.703C58.3267 108.659 58.3267 108.615 58.3267 108.571C59.0734 106.112 58.9855 103.652 57.8875 101.324ZM75.7192 136.109C75.28 136.592 74.8847 137.119 74.5333 137.647C73.8306 138.613 73.1718 139.667 72.6008 140.765C72.1177 141.687 71.5468 142.873 71.8981 143.927C72.1616 144.762 73.0401 145.113 73.8745 145.025C74.7969 144.893 75.4557 144.279 75.8949 143.488C76.8611 141.775 76.7733 139.535 76.2902 137.69C76.1145 137.119 75.9388 136.592 75.7192 136.109ZM110.065 107.737C109.582 107.693 109.099 107.605 108.616 107.473C106.068 106.858 103.653 105.629 101.325 104.487C99.6119 103.652 97.9429 102.774 96.3178 101.808C96.8888 102.949 97.5037 104.091 98.1186 105.233C99.0409 106.814 100.095 108.088 101.94 108.615C104.487 109.318 107.781 109.274 110.065 107.737ZM129.302 102.335C129.258 102.335 129.258 102.379 129.214 102.379C128.643 102.73 128.028 103.081 127.413 103.389C126.184 104.004 124.91 104.531 123.636 104.97C121.265 105.804 118.805 106.595 116.389 107.21C115.731 107.385 115.072 107.517 114.369 107.605C117.312 109.538 121.133 110.284 124.383 108.703C125.92 108 127.238 106.858 128.072 105.409C128.687 104.487 129.039 103.433 129.302 102.335ZM129.829 100.051C129.785 99.9629 129.785 99.8311 129.741 99.6994C129.653 99.348 129.609 98.9527 129.522 98.6014C129.346 97.679 129.17 96.7567 128.995 95.8344C128.116 91.1788 127.282 86.5233 126.403 81.8238C125.92 79.1886 125.437 76.5533 124.91 73.9181C124.866 73.6107 124.954 73.2593 125.261 73.0836C128.907 71.0633 132.552 68.999 136.198 66.9348C134.441 65.6611 132.684 64.3435 130.971 63.0259C127.15 60.171 123.329 57.2284 119.508 54.3736C115.95 51.6944 112.305 48.5322 107.605 48.4882C104.97 49.3666 102.818 50.0254 102.467 54.5492C102.203 57.8433 103.96 61.6643 100.534 65.3097L99.7436 65.4854C99.8754 65.5293 100.007 65.5732 100.139 65.6172C100.49 65.7489 100.666 66.1881 100.534 66.5834C100.402 66.9348 99.9632 67.1105 99.5679 66.9787C97.1523 65.9685 94.034 67.0226 92.7164 69.3065C91.3988 71.5464 92.0576 74.7965 94.0779 76.4216C96.1422 78.0027 99.4362 77.827 101.281 75.9824C101.544 75.7188 102.028 75.7188 102.291 75.9824C102.555 76.2459 102.555 76.729 102.291 76.9925C101.325 77.9588 100.007 78.5737 98.6895 78.7933C98.6895 78.8372 98.6895 78.925 98.6895 78.969C97.7672 85.8205 96.3178 92.5403 95.0002 99.3041C95.0441 99.3041 95.0442 99.3041 95.0881 99.348C97.8111 101.017 100.666 102.554 103.565 103.916C106.024 105.058 108.659 106.331 111.426 106.419C114.237 106.507 116.96 105.629 119.596 104.838C122.055 104.091 124.471 103.301 126.799 102.159C127.897 101.588 128.863 100.885 129.873 100.226C129.829 100.139 129.829 100.095 129.829 100.051ZM199.618 78.1784C199.487 78.2662 199.399 78.3541 199.267 78.398C199.355 79.7156 200.014 81.0332 201.551 81.0332C202.429 81.0332 203.044 80.2866 203.527 79.6717C204.098 78.925 204.581 78.0905 204.933 77.2561C206.602 73.435 206.206 69.0869 205.767 65.0462C205.723 64.4752 205.679 63.6408 205.372 63.0698C205.372 63.509 205.372 63.9482 205.372 64.3874C205.372 66.276 205.196 68.1645 204.713 69.9653C203.967 73.1715 202.298 76.2459 199.618 78.1784ZM200.453 67.374C200.804 67.5936 201.112 67.901 201.331 68.2524C202.034 69.3065 201.639 70.668 200.98 71.6343C200.277 72.6005 199.267 73.2154 198.125 73.5668C198.037 74.0938 197.993 74.6208 197.95 75.1479C197.906 75.7188 197.818 76.2898 197.95 76.8608C198.081 77.3878 198.301 77.4317 198.74 77.1243C199.311 76.7729 199.794 76.2898 200.233 75.8067C201.112 74.8844 201.815 73.8303 202.342 72.6883C203.615 70.0531 204.01 67.0665 204.01 64.1678C204.01 62.8063 204.01 61.0494 202.825 60.215C202.517 59.9954 201.814 59.644 200.936 60.0393C201.024 60.4785 201.068 60.8738 201.112 61.2691L200.453 67.374ZM194.392 60.4346C194.568 61.1812 194.699 61.9279 194.787 62.6745C194.919 63.8164 194.963 64.9584 194.919 66.1003C196.149 66.0564 197.379 66.1442 198.608 66.5395C198.784 66.5834 198.96 66.6713 199.179 66.7152C199.487 65.4854 199.706 64.2117 199.75 62.938C199.75 61.9279 199.662 60.9177 199.443 59.9514C199.223 59.1609 198.96 58.1068 198.257 57.5797C197.51 57.0527 196.412 57.2284 195.754 57.7554C194.963 58.3703 194.656 59.3366 194.524 60.3028C194.392 60.3467 194.392 60.3906 194.392 60.4346ZM174.233 87.7969C175.462 89.0267 176.736 90.1686 178.185 91.1349C180.952 93.0674 184.027 94.5607 187.277 95.483C189.605 96.1418 193.03 96.581 194.787 94.4289C194.831 94.385 194.875 94.3411 194.919 94.2971C194.919 94.2532 194.919 94.2093 194.919 94.2093C195.402 92.189 195.929 90.1686 196.412 88.1922C196.895 86.2158 197.51 84.1955 197.818 82.1751C197.95 81.2528 197.993 80.3305 197.906 79.4082C197.862 79.2325 197.862 79.0568 197.818 78.925C197.818 78.8372 197.774 78.7494 197.774 78.6615C197.686 78.6176 197.554 78.5737 197.466 78.5297C196.895 78.2223 196.632 77.6074 196.5 76.9925C196.456 76.729 196.456 76.5094 196.456 76.2459C195.885 76.9047 195.095 77.2561 194.26 77.2121C194.304 77.4757 194.348 77.6953 194.348 77.9588C194.568 80.4183 193.601 82.8339 192.723 85.0739C192.591 85.4252 192.24 85.6888 191.845 85.6009C191.493 85.5131 191.186 85.0739 191.318 84.7225C192.108 82.7461 192.986 80.6818 192.943 78.5297C192.899 76.8608 192.284 75.104 190.834 74.1816C190.219 73.7864 190.439 72.864 191.186 72.8201C192.679 72.7323 194.172 72.6444 195.71 72.5127C196.983 72.3809 198.345 72.1613 199.311 71.3268C199.882 70.8437 200.716 69.7018 200.102 68.9551C199.531 68.2524 198.433 67.9449 197.598 67.7693C195.885 67.374 194.085 67.5936 192.328 67.7253C190.263 67.9449 188.199 68.3402 186.267 69.2186C183.631 70.4045 181.743 72.7323 180.293 75.1918C179.81 75.9824 178.537 75.2796 179.02 74.4891C180.513 71.9856 182.402 69.6139 184.993 68.2524C185.344 68.0767 185.652 67.9449 186.003 67.7693C185.3 65.7489 185.081 63.5968 185.432 61.4447C185.476 61.0495 185.959 60.8299 186.311 60.9177C186.706 61.0055 186.882 61.4008 186.838 61.7961C186.53 63.6408 186.75 65.5293 187.365 67.2422C188.946 66.7591 190.571 66.4517 192.196 66.276C192.635 66.2321 193.03 66.1881 193.47 66.1442V66.1003C193.514 64.2996 193.47 62.3671 192.987 60.5663C192.943 60.4785 192.899 60.3906 192.855 60.3028C191.889 58.3264 190.307 56.7453 187.98 56.7892C185.827 56.8331 183.807 58.1068 182.402 59.644C180.733 61.4447 179.635 63.7725 178.844 66.0564C178.098 68.2524 177.527 70.5802 177.263 72.9079C177 75.1918 176.956 77.4757 176.692 79.7595C176.472 81.8677 176.121 84.0198 175.199 85.9523C174.935 86.6111 174.584 87.226 174.233 87.7969ZM192.899 74.1816C193.25 74.6648 193.514 75.1479 193.733 75.631C193.821 75.6749 193.953 75.7188 194.085 75.7628C195.007 75.9824 195.49 75.1918 195.841 74.4891C195.929 74.3134 196.061 74.0938 196.149 73.9181C195.051 74.0499 193.953 74.1377 192.899 74.1816ZM195.314 98.2061C195.314 97.5033 195.226 96.8006 195.183 96.0979C194.172 96.9763 192.767 97.3716 191.449 97.4594C188.067 97.7229 184.642 96.3614 181.655 94.912C178.625 93.4188 175.814 91.4863 173.442 89.0706C172.739 90.1247 172.08 91.1788 171.553 92.3207L171.378 92.3647C171.334 92.4525 171.334 92.5403 171.29 92.6282C170.807 94.1654 170.807 95.5708 170.939 97.152C170.982 97.1959 171.026 97.1959 171.114 97.2837C173.925 99.919 177.614 101.5 181.435 101.983C183.5 102.247 185.652 102.335 187.76 102.335C189.824 102.335 191.889 102.115 193.865 101.5C193.909 101.368 193.953 101.237 194.041 101.149C194.919 100.358 195.358 99.4358 195.314 98.2061ZM108.967 128.292C108.176 128.379 107.386 128.819 107.166 129.653C107.078 130.004 107.298 130.444 107.693 130.531C107.737 130.531 107.825 130.531 107.869 130.531C107.957 131.19 108.308 131.761 108.835 132.113C109.274 132.42 109.845 132.508 110.328 132.244C110.724 132.025 110.943 131.586 111.031 131.19C111.251 130.531 111.163 129.697 110.768 129.126C110.372 128.599 109.714 128.248 108.967 128.292ZM109.626 130.927C109.538 131.102 109.582 131.015 109.626 130.927V130.927ZM109.67 130.839C109.67 130.883 109.67 130.883 109.626 130.927C109.67 130.927 109.67 130.927 109.626 130.927C109.626 130.927 109.626 130.927 109.582 130.927C109.582 130.927 109.538 130.927 109.538 130.883C109.538 130.883 109.538 130.883 109.582 130.883C109.538 130.839 109.494 130.795 109.494 130.751V130.795C109.494 130.795 109.494 130.795 109.494 130.751C109.45 130.663 109.494 130.707 109.494 130.751L109.45 130.707C109.406 130.663 109.406 130.619 109.362 130.575V130.531C109.362 130.488 109.362 130.488 109.362 130.444C109.362 130.356 109.362 130.224 109.362 130.136C109.362 130.004 109.318 129.873 109.23 129.741H109.274H109.23H109.274H109.318C109.318 129.741 109.318 129.741 109.362 129.785C109.406 129.829 109.45 129.873 109.406 129.829C109.45 129.873 109.45 129.873 109.494 129.917C109.494 129.917 109.494 129.917 109.494 129.873C109.494 129.873 109.494 129.917 109.538 129.917C109.582 130.004 109.582 130.004 109.582 129.96C109.582 130.004 109.626 130.004 109.626 130.048C109.626 130.048 109.626 130.092 109.67 130.092C109.67 130.136 109.67 130.136 109.714 130.18C109.714 130.224 109.714 130.268 109.757 130.312C109.757 130.4 109.757 130.531 109.757 130.619C109.67 130.707 109.67 130.795 109.67 130.839ZM109.757 131.015C109.714 131.015 109.714 130.971 109.714 130.971C109.714 130.971 109.714 130.971 109.757 131.015ZM114.589 135.451C114.325 134.265 114.413 133.123 114.501 131.937C114.589 130.795 114.633 129.565 114.325 128.467C114.193 127.984 113.974 127.501 113.666 127.106C113.359 126.666 112.744 126.271 112.656 125.7C112.524 125.129 112.656 124.47 112.7 123.899C112.744 123.241 112.832 122.626 112.964 121.967C113.227 120.693 113.842 119.771 114.545 118.717C115.247 117.619 115.423 116.477 114.896 115.291C114.457 114.369 113.579 113.534 113.622 112.436C113.666 111.514 112.217 111.514 112.173 112.436C112.129 113.446 112.656 114.281 113.183 115.115C113.754 116.082 114.062 116.784 113.447 117.838C112.832 118.849 112.129 119.727 111.778 120.913C111.426 122.099 111.295 123.372 111.251 124.602C111.207 125.173 111.163 125.744 111.339 126.271C111.558 126.886 111.997 127.281 112.393 127.764C113.095 128.643 113.183 129.741 113.183 130.795C113.139 131.937 113.008 133.079 113.052 134.221C113.095 135.538 113.491 136.768 113.974 137.998C115.028 140.633 116.829 143.532 115.906 146.475C115.599 147.353 117.004 147.748 117.312 146.87C118.146 144.279 117.18 141.687 116.126 139.316C115.467 137.998 114.852 136.768 114.589 135.451ZM101.72 70.7998C99.7876 69.3943 97.2402 68.999 94.9563 69.6139C94.0779 69.8774 94.4293 71.239 95.3516 71.0194C97.2841 70.4923 99.3484 70.8876 100.973 72.0735C101.281 72.2931 101.764 72.1174 101.984 71.8099C102.203 71.4586 102.071 71.0633 101.72 70.7998ZM109.494 118.102C109.933 117.926 110.328 117.619 110.592 117.224C110.812 116.828 110.943 116.389 110.987 115.95C111.031 115.511 110.943 115.115 110.768 114.72C110.548 114.237 110.065 113.973 109.538 113.93C109.055 113.886 108.484 114.105 108.176 114.501C107.913 114.764 107.781 115.115 107.693 115.423C107.649 115.467 107.649 115.467 107.605 115.511C107.43 115.686 107.342 115.862 107.254 116.126C107.122 116.477 107.166 116.916 107.298 117.268C107.649 118.058 108.659 118.409 109.494 118.102ZM108.616 116.609C108.659 116.565 108.747 116.521 108.791 116.477C108.835 116.389 108.879 116.345 108.923 116.257C108.923 116.213 108.967 116.213 108.967 116.169C109.055 116.038 109.099 115.862 109.055 115.73C109.055 115.686 109.055 115.686 109.099 115.642C109.099 115.599 109.143 115.555 109.143 115.511C109.143 115.511 109.143 115.467 109.187 115.467L109.23 115.423C109.274 115.423 109.274 115.379 109.318 115.379C109.362 115.379 109.362 115.379 109.406 115.335H109.45C109.494 115.423 109.494 115.467 109.494 115.555C109.494 115.686 109.494 115.774 109.494 115.906C109.45 116.038 109.45 116.126 109.406 116.257C109.362 116.301 109.362 116.345 109.318 116.389C109.274 116.433 109.274 116.477 109.23 116.521C109.23 116.521 109.23 116.477 109.274 116.477C109.274 116.477 109.274 116.477 109.23 116.521C109.186 116.565 109.187 116.565 109.143 116.609C109.099 116.653 109.055 116.653 109.011 116.653C108.967 116.653 108.923 116.697 108.835 116.697C108.791 116.697 108.747 116.697 108.703 116.697C108.659 116.697 108.659 116.697 108.616 116.653H108.572C108.616 116.653 108.616 116.653 108.616 116.609ZM112.305 51.914C112.656 51.8262 112.92 51.387 112.832 51.0356C112.7 50.6403 112.349 50.4646 111.954 50.5086C111.822 50.5525 111.69 50.5525 111.558 50.5964C111.47 50.5964 111.426 50.6403 111.339 50.6403C111.339 50.6403 111.295 50.6403 111.251 50.6403C110.987 50.6842 110.724 50.6843 110.46 50.7282C109.933 50.7721 109.362 50.7282 108.835 50.6842C108.44 50.6403 108.088 51.0356 108.132 51.387C108.132 51.8262 108.44 52.0897 108.835 52.0897C109.977 52.2215 111.163 52.1336 112.305 51.914ZM109.67 56.0865C109.45 55.779 109.055 55.6033 108.659 55.8229C108.352 55.9986 108.132 56.4817 108.396 56.8331C109.362 58.1068 110.328 59.3366 111.251 60.6103C111.47 60.9177 111.866 61.0934 112.261 60.8738C112.568 60.6981 112.788 60.215 112.524 59.8636C111.602 58.5899 110.636 57.3601 109.67 56.0865ZM115.555 57.2723C114.589 56.1743 113.622 55.0763 112.612 54.0222C112.349 53.7587 111.822 53.7587 111.602 54.0222C111.339 54.3296 111.339 54.7249 111.602 55.0324C112.568 56.1304 113.535 57.2284 114.545 58.2825C114.808 58.546 115.335 58.546 115.555 58.2825C115.818 57.975 115.818 57.5797 115.555 57.2723ZM106.068 52.0458C105.673 52.1775 105.497 52.5289 105.541 52.9242C105.673 53.8465 105.849 54.8128 105.629 55.6912C105.453 56.3939 105.102 56.9209 104.443 57.2284C104.092 57.4041 104.004 57.8872 104.18 58.2385C104.399 58.5899 104.794 58.6778 105.19 58.5021C106.112 58.0629 106.727 57.1405 106.99 56.1743C107.298 54.9884 107.122 53.7587 106.947 52.5728C106.859 52.1336 106.376 51.914 106.068 52.0458Z" fill="black"/>
<path d="M91.4875 17.6999C91.7071 18.0073 91.5314 18.5344 91.2239 18.7101C90.8726 18.9297 90.4773 18.754 90.2138 18.4465C88.2813 15.9431 89.9942 12.0781 92.0584 10.1895C93.1125 9.22327 94.6058 8.43271 96.0991 8.91583C96.8018 9.13543 97.2849 9.66247 97.812 10.1456C98.4269 10.7166 98.9539 10.8483 99.7006 10.4091C100.843 9.75032 101.677 8.60839 102.819 7.90566C104.005 7.15902 105.322 6.71981 106.728 6.54413C109.363 6.19277 112.086 7.07117 113.887 9.04759C115.512 10.8922 116.39 13.4835 115.775 15.9431C115.117 18.6661 112.789 20.6865 110.241 21.6088C108.748 22.1359 107.079 22.3555 105.498 22.2676C104.707 22.2237 103.917 22.048 103.17 22.0919C102.38 22.1359 101.984 22.619 101.633 23.2339C100.93 24.4197 100.359 25.6495 99.4371 26.7036C98.5148 27.7577 97.285 28.5043 95.9235 28.7239C94.4302 28.9435 92.9368 28.5043 91.6192 27.8894C90.8287 27.5381 90.126 27.0989 89.3793 26.6157C88.8083 26.2644 88.2373 25.913 87.7542 25.4299C86.6562 24.3319 86.7441 22.9703 87.4029 21.6088C88.1495 20.0716 89.1158 18.6661 90.1698 17.3046C90.3894 16.9972 90.7847 16.8215 91.18 17.0411C91.4875 17.2168 91.6631 17.6999 91.4435 18.0513C90.4334 19.3689 89.5111 20.7743 88.7205 22.2676C88.3691 22.9264 88.1056 23.5852 88.6326 24.244C89.0279 24.7711 89.6428 25.0785 90.2138 25.4299C91.5314 26.2644 92.9807 27.0989 94.5619 27.3185C96.0112 27.4941 97.2849 26.9232 98.2512 25.913C99.0418 25.0785 99.6127 24.0244 100.184 23.0143C100.755 21.9163 101.501 20.8622 102.819 20.6865C103.522 20.5986 104.224 20.7304 104.971 20.7743C105.674 20.8182 106.376 20.8182 107.079 20.7743C108.397 20.6865 109.758 20.379 110.944 19.7202C113.008 18.6222 114.633 16.6458 114.633 14.2302C114.633 12.0781 113.404 9.96992 111.603 8.87191C109.583 7.59822 107.035 7.64214 104.883 8.52055C103.785 9.00367 102.863 9.7064 101.984 10.497C101.15 11.2875 100.14 12.1659 98.91 12.122C98.2951 12.122 97.7681 11.8585 97.285 11.5071C96.8458 11.1558 96.4944 10.6287 95.9674 10.3652C94.9572 9.83816 93.7714 10.6287 93.0686 11.3315C91.4436 12.8247 89.9942 15.7674 91.4875 17.6999ZM136.198 30.876C137.823 29.8658 139.844 31.1395 140.107 32.8963C140.239 33.9504 139.888 34.8727 139.317 35.7072C138.79 36.4978 138.79 37.4201 139.58 37.9911C140.195 38.4303 141.205 38.4742 141.513 39.3087C141.82 40.0993 141.513 41.0216 141.03 41.6365C140.019 42.9102 138.131 43.4811 136.638 42.8663C134.749 42.1196 133.695 39.8797 133.958 37.9033C134.002 37.508 133.783 36.937 133.256 36.9809C132.377 37.0688 131.455 37.0688 130.577 36.937C130.006 36.8492 128.776 36.7613 128.468 36.1464C128.205 35.6194 128.381 34.6092 128.468 34.0383C128.6 33.3355 128.776 32.5889 129.127 31.9301C129.742 30.7442 130.708 29.778 132.026 29.5145C133.212 29.251 134.442 29.5584 135.232 30.5246C135.803 31.2274 136.857 30.2172 136.242 29.5145C135.188 28.1969 133.387 27.8016 131.762 28.109C129.962 28.4604 128.512 29.778 127.766 31.403C127.37 32.2815 127.107 33.2038 126.975 34.17C126.887 35.0484 126.756 36.1904 127.239 36.9809C127.766 37.8593 128.82 38.1229 129.742 38.2985C130.884 38.5181 132.07 38.606 133.212 38.4742C132.992 38.1668 132.729 37.8593 132.509 37.5519C132.202 39.8797 133.08 42.2514 135.013 43.6568C136.857 44.9744 139.405 44.7988 141.161 43.4811C142.786 42.2514 143.972 39.3087 142.04 37.7276C141.645 37.4201 141.161 37.2444 140.722 37.0248C140.634 36.9809 140.327 36.8052 140.327 36.8052C140.283 36.6296 140.722 36.1464 140.81 36.0147C141.425 35.0045 141.645 33.7308 141.469 32.545C140.986 29.8658 137.867 28.1969 135.452 29.6462C134.661 30.1294 135.408 31.3591 136.198 30.876ZM94.4741 22.048C94.3423 22.048 94.2544 22.048 94.1227 22.048C94.0348 22.048 93.947 22.048 93.8592 22.0919C93.7713 22.1359 93.6835 22.1798 93.6396 22.2237C93.5517 22.2676 93.5078 22.3555 93.5078 22.4433C93.4639 22.5311 93.4199 22.619 93.4639 22.7068C93.4639 22.7507 93.4639 22.8386 93.5078 22.8825C93.5518 23.0143 93.5956 23.1021 93.6835 23.1899C93.7274 23.2339 93.7713 23.2778 93.8153 23.3217C93.947 23.3656 94.0349 23.4095 94.1666 23.4095C94.2984 23.4095 94.3862 23.4095 94.518 23.4095C94.6058 23.4095 94.6936 23.4095 94.7815 23.3656C94.8693 23.3217 94.9572 23.2778 95.0011 23.2339C95.0889 23.1899 95.1329 23.1021 95.1329 23.0143C95.1768 22.9264 95.2207 22.8386 95.1768 22.7507C95.1768 22.7068 95.1768 22.619 95.1329 22.5751C95.0889 22.4433 95.045 22.3555 94.9572 22.2676C94.9132 22.2237 94.8694 22.1798 94.8254 22.1359C94.7376 22.0919 94.6058 22.048 94.4741 22.048ZM106.245 12.2977C106.113 12.4295 106.025 12.5173 105.893 12.6491C105.806 12.693 105.762 12.7808 105.762 12.8687C105.718 12.9565 105.674 13.0443 105.718 13.1322C105.718 13.22 105.718 13.3079 105.762 13.3957C105.805 13.4835 105.849 13.5714 105.893 13.6153C105.937 13.6592 105.981 13.7031 106.025 13.7471C106.157 13.791 106.245 13.8349 106.376 13.8349C106.42 13.8349 106.508 13.8349 106.552 13.791C106.684 13.7471 106.772 13.7031 106.86 13.6153C106.991 13.4835 107.079 13.3957 107.211 13.2639C107.299 13.22 107.343 13.1322 107.343 13.0443C107.387 12.9565 107.431 12.8687 107.387 12.7808C107.387 12.693 107.387 12.6051 107.343 12.5173C107.299 12.4295 107.255 12.3416 107.211 12.2977C107.167 12.2538 107.123 12.2099 107.079 12.1659C106.947 12.122 106.86 12.0781 106.728 12.0781C106.684 12.0781 106.596 12.0781 106.552 12.122C106.42 12.1659 106.333 12.2099 106.245 12.2977ZM99.6127 15.987C99.7445 15.8552 99.8323 15.7674 99.9641 15.6356C100.052 15.5917 100.096 15.5039 100.096 15.416C100.14 15.3282 100.184 15.2404 100.14 15.1525C100.14 15.0647 100.14 14.9768 100.096 14.889C100.052 14.8012 100.008 14.7133 99.9641 14.6694C99.9202 14.6255 99.8762 14.5816 99.8323 14.5376C99.7006 14.4937 99.6127 14.4498 99.481 14.4498C99.4371 14.4498 99.3492 14.4498 99.3053 14.4937C99.1735 14.5376 99.0857 14.5816 98.9979 14.6694C98.8661 14.8012 98.7783 14.889 98.6465 15.0208C98.5586 15.0647 98.5147 15.1525 98.5147 15.2404C98.4708 15.3282 98.4269 15.416 98.4708 15.5039C98.4708 15.5917 98.4708 15.6796 98.5147 15.7674C98.5586 15.8552 98.6026 15.9431 98.6465 15.987C98.6904 16.0309 98.7344 16.0748 98.7783 16.1188C98.91 16.1627 98.9978 16.2066 99.1296 16.2066C99.1735 16.2066 99.2614 16.2066 99.3053 16.1627C99.4371 16.1627 99.5249 16.0748 99.6127 15.987ZM138.702 50.728C138.834 50.5962 138.921 50.5084 139.053 50.3766C139.141 50.3327 139.185 50.2449 139.185 50.157C139.229 50.0692 139.273 49.9813 139.229 49.8935C139.229 49.8057 139.229 49.7178 139.185 49.63C139.141 49.5422 139.097 49.4543 139.053 49.4104C139.009 49.3665 138.965 49.3225 138.921 49.2786C138.79 49.2347 138.702 49.1908 138.57 49.1908C138.526 49.1908 138.438 49.1908 138.394 49.2347C138.263 49.2786 138.175 49.3225 138.087 49.4104C137.955 49.5422 137.867 49.63 137.736 49.7617C137.648 49.8057 137.604 49.8935 137.604 49.9813C137.56 50.0692 137.516 50.157 137.56 50.2449C137.56 50.3327 137.56 50.4206 137.604 50.5084C137.648 50.5962 137.692 50.6841 137.736 50.728C137.78 50.7719 137.823 50.8158 137.867 50.8598C137.999 50.9037 138.087 50.9476 138.219 50.9476C138.263 50.9476 138.35 50.9476 138.394 50.9037C138.526 50.9037 138.614 50.8158 138.702 50.728ZM95.7917 1.53721C95.9234 1.40545 96.0113 1.31761 96.1431 1.18585C96.2309 1.14193 96.2748 1.05409 96.2748 0.96625C96.3187 0.878409 96.3626 0.790566 96.3187 0.702725C96.3187 0.614884 96.3187 0.527044 96.2748 0.439203C96.2309 0.351363 96.187 0.263522 96.1431 0.219602C96.0991 0.175681 96.0552 0.131763 96.0113 0.0878427C95.8795 0.0439224 95.7916 0 95.6599 0C95.616 0 95.5282 -6.70826e-07 95.4842 0.0439197C95.3525 0.08784 95.2646 0.131761 95.1768 0.219602C95.045 0.351363 94.9572 0.439205 94.8254 0.570966C94.7376 0.614886 94.6937 0.702727 94.6937 0.790568C94.6497 0.878408 94.6058 0.966248 94.6497 1.05409C94.6497 1.14193 94.6497 1.22977 94.6937 1.31761C94.7376 1.40545 94.7815 1.49329 94.8254 1.53721C94.8694 1.58113 94.9132 1.62505 94.9572 1.66897C95.0889 1.71289 95.1768 1.75681 95.3086 1.75681C95.3525 1.75681 95.4403 1.75681 95.4842 1.71289C95.5721 1.66897 95.7038 1.62505 95.7917 1.53721ZM134.661 32.545C134.661 32.5011 134.661 32.5011 134.661 32.4571C134.661 32.5011 134.661 32.5889 134.705 32.6328C134.661 32.5889 134.661 32.5889 134.661 32.545C134.661 32.5889 134.661 32.6328 134.661 32.7207C134.661 32.6767 134.661 32.6328 134.661 32.545C134.661 32.6328 134.617 32.6767 134.617 32.7646C134.617 32.7207 134.661 32.6767 134.705 32.6328C134.661 32.6767 134.617 32.7207 134.573 32.7646C134.617 32.7207 134.617 32.7207 134.661 32.6767C134.617 32.7207 134.573 32.7646 134.529 32.8085C134.573 32.7646 134.617 32.7646 134.617 32.7646C134.573 32.8085 134.485 32.8085 134.442 32.8524H134.486C134.573 32.8085 134.661 32.8085 134.749 32.7207C134.837 32.6767 134.881 32.5889 134.925 32.5011C134.969 32.4132 135.013 32.3254 135.013 32.2375C135.013 32.1497 135.013 32.0619 135.013 31.9301C134.969 31.8862 134.969 31.7983 134.925 31.7544C134.881 31.6666 134.793 31.5787 134.661 31.4909C134.617 31.447 134.529 31.447 134.486 31.403C134.354 31.3591 134.222 31.3591 134.09 31.403C134.002 31.447 133.915 31.447 133.827 31.5348C133.827 31.5348 133.783 31.5348 133.783 31.5787C133.739 31.6226 133.651 31.6666 133.607 31.7105C133.563 31.7544 133.563 31.7544 133.519 31.7983C133.475 31.8862 133.387 31.9301 133.344 32.0179C133.3 32.1058 133.3 32.1497 133.256 32.2375V32.2815C133.212 32.3693 133.212 32.4571 133.212 32.5889C133.212 32.6328 133.212 32.6767 133.212 32.6767C133.212 32.7646 133.212 32.8524 133.256 32.8963V32.9403C133.3 33.0281 133.3 33.1159 133.388 33.2038C133.431 33.2916 133.519 33.3355 133.607 33.3795C133.695 33.4234 133.783 33.4673 133.871 33.4673C133.958 33.4673 134.046 33.4673 134.178 33.4673C134.222 33.4234 134.31 33.4234 134.354 33.3795C134.442 33.3355 134.529 33.2477 134.617 33.1159C134.661 33.072 134.661 32.9842 134.705 32.9403C134.705 32.8085 134.705 32.6767 134.661 32.545ZM144.587 27.8016C144.719 27.8016 144.807 27.8016 144.938 27.8016C145.026 27.8016 145.114 27.8016 145.202 27.7577C145.29 27.7137 145.378 27.6698 145.422 27.6259C145.509 27.582 145.553 27.4941 145.553 27.4063C145.597 27.3185 145.641 27.2306 145.597 27.1428C145.597 27.0989 145.597 27.011 145.553 26.9671C145.51 26.8353 145.466 26.7475 145.378 26.6597C145.334 26.6157 145.29 26.5718 145.246 26.5279C145.114 26.484 145.026 26.44 144.895 26.44C144.763 26.44 144.675 26.44 144.543 26.44C144.455 26.44 144.368 26.44 144.28 26.484C144.192 26.5279 144.104 26.5718 144.06 26.6157C143.972 26.6596 143.928 26.7475 143.928 26.8353C143.884 26.9232 143.841 27.011 143.884 27.0989C143.884 27.1428 143.884 27.2306 143.928 27.2745C143.972 27.4063 144.016 27.4941 144.104 27.582C144.148 27.6259 144.192 27.6698 144.236 27.7137C144.324 27.8016 144.455 27.8016 144.587 27.8016Z" fill="black"/>
</svg>
