<svg width="172" height="167" viewBox="0 0 172 167" fill="none" xmlns="http://www.w3.org/2000/svg">
<path d="M118.817 99.6128C125.34 107.133 138.469 93.8792 146.654 88.1873C154.839 82.4953 162.276 73.1056 159.908 63.4251C156.999 51.5426 140.879 45.5182 140.38 33.3033C140.173 27.7775 143.372 22.7919 145.075 17.5569C146.779 12.3219 146.239 5.21737 141.211 2.97382C139.716 2.30907 138.012 2.18442 136.35 2.05978C128.622 1.56121 120.895 1.02109 113.167 0.522522C102.988 -0.142234 92.4764 -0.765453 82.879 2.64142C69.2515 7.50245 59.6956 19.6343 47.6469 27.736C45.985 28.8578 44.1985 29.938 42.2043 30.0211C36.2215 30.2704 33.604 22.3348 28.369 19.385C23.2587 16.4767 16.2371 19.3019 13.2457 24.3707C10.2543 29.4394 10.5452 35.8792 12.4564 41.4466C14.3676 47.0139 17.6914 51.958 20.5997 57.0683C23.508 62.1787 26.0423 67.746 26.167 73.6042C26.2916 79.9609 23.5079 86.0268 20.5165 91.6357C17.5251 97.2446 102.614 80.9165 118.817 99.6128Z" fill="#F4F6F9"/>
<path d="M162.982 154.788C160.822 149.179 165.059 142.407 162.4 137.047C160.198 132.602 154.465 131.438 150.643 128.281C148.067 126.12 146.405 123.129 144.452 120.387C142.499 117.645 139.923 115.069 136.6 114.487L136.641 114.238C134.148 110.083 130.534 106.219 128.706 102.854C127.293 100.319 138.677 94.5444 138.677 94.5444C130.243 86.1934 110.84 70.904 99.6639 66.8739C99.2485 61.0573 98.7084 46.765 98.7084 46.765C103.154 45.6433 112.128 43.2751 112.128 43.2751C106.893 36.7937 101.201 29.3152 95.3015 21.9613C93.3488 19.51 90.7313 17.3496 87.7399 16.5186L78.2256 14.5659L74.1124 32.0158C71.7857 30.9355 68.7529 31.3926 66.9248 33.2206C64.7643 35.3396 64.515 39.1204 66.3431 41.5301C67.5064 43.0674 69.3761 43.8983 71.2872 43.9814L71.2457 44.1476C68.0465 51.7092 65.1382 57.9828 61.8975 64.5473L61.8559 64.3811C51.2614 69.0759 41.3316 73.1476 31.6511 79.629C22.0121 86.0688 13.3288 94.3782 8.09381 104.765C8.09381 104.765 14.6998 102.771 20.8488 105.264C20.3918 105.762 20.0178 106.302 19.6855 106.884C18.2313 109.418 17.9821 112.451 17.1511 115.235C14.1182 125.289 3.64827 131.729 0.532227 141.784C0.532227 141.784 5.43476 152.752 39.5451 158.236C40.6668 158.403 40.6669 156.284 40.9161 155.245C41.1239 154.206 40.9577 153.085 40.1683 152.295C39.8359 151.963 39.4204 151.755 38.9219 151.589C39.7113 150.841 40.4591 150.052 41.0408 149.179C42.4119 147.309 43.1182 145.066 42.4119 143.03C41.9549 141.742 40.9992 140.662 40.1683 139.54C35.5565 133.266 44.4477 131.438 48.9348 127.658C50.1812 126.577 51.2614 125.206 52.0092 123.794C54.0035 126.203 56.5379 128.198 59.3631 129.569C61.8144 131.48 64.3904 132.436 66.4677 132.809C66.8001 132.934 67.1741 133.059 67.548 133.142L67.3817 132.934C67.5064 132.934 67.6726 132.976 67.7972 132.976L70.4563 117.395C70.4563 117.395 85.2886 118.019 86.3688 102.148C86.535 99.5716 86.2857 97.4527 85.7456 95.6246C90.3574 95.043 94.3874 95.2092 98.0021 95.5831C98.9161 96.2894 99.8717 97.245 100.661 98.4499C100.703 98.7822 100.869 99.1146 101.118 99.4054C101.201 99.4885 101.243 99.5301 101.326 99.6132C102.697 102.355 103.362 106.219 102.074 111.703C100.952 116.523 98.9162 120.096 96.6311 122.797C96.548 122.755 96.5064 122.672 96.4233 122.63L96.5064 122.963C91.3961 128.904 85.164 130.275 85.164 130.275L82.8373 146.852L119.648 138.543L114.787 119.307C116.034 119.14 117.28 118.808 118.526 118.434C118.402 119.223 118.402 120.054 118.485 120.885C118.734 122.797 119.565 124.625 120.853 126.037H121.185C121.393 135.967 122.515 145.897 124.592 155.577C125.423 159.483 126.587 163.679 129.827 166.006C129.827 166.006 135.976 154.082 150.102 159.898C164.228 165.715 171.042 159.898 171.042 159.898C167.552 160.189 164.187 157.987 162.982 154.788ZM110.383 102.148L109.386 98.2006C109.552 98.159 109.76 98.0759 109.926 98.0344C111.879 97.5774 114.247 97.8682 115.369 99.5301C115.41 99.6132 115.452 99.6963 115.493 99.7794C113.707 100.403 112.004 101.192 110.383 102.148ZM113.208 113.365C115.535 112.41 117.986 111.62 120.354 110.956C118.402 111.662 115.701 112.991 113.458 114.404L113.208 113.365Z" fill="white"/>
<path d="M75.1522 86.2753L76.4818 73.0217C76.4818 73.0217 66.095 74.7252 58.3672 82.6607C58.9073 82.7853 59.489 82.9515 60.0291 83.1177C61.5663 83.5747 63.2698 84.0318 64.5993 85.0289C65.7211 85.9014 66.469 87.3555 66.095 88.8097C65.6796 90.2638 64.1839 90.887 62.7712 90.804C61.1094 90.7209 59.5306 89.9315 57.9933 89.3498C56.7053 88.8512 55.3758 88.4358 53.9631 88.5604C53.6723 89.1005 53.3815 89.5991 53.1322 90.1807C53.5892 90.3885 54.0463 90.5962 54.5033 90.804C56.7053 91.9257 58.7827 93.3383 60.6523 95.0418C62.148 96.4128 65.2225 99.0719 62.979 101.108C62.4804 101.523 61.9402 101.772 61.3586 101.856C62.1064 102.728 62.7712 103.808 62.5219 105.013C62.2726 106.26 61.0678 106.966 59.8629 106.924C58.4503 106.883 57.1208 106.01 55.8744 105.387C55.1681 105.055 54.4617 104.722 53.7554 104.431C53.8801 104.515 54.0462 104.598 54.1709 104.722C54.9187 105.221 55.6251 105.761 56.2898 106.384C56.7469 106.841 57.2454 107.34 57.4116 107.963C57.9932 109.916 55.2096 110.165 54.0047 110.207C52.7583 110.248 51.5534 110.123 50.3486 109.874C50.4732 111.287 49.9746 112.949 50.8471 113.904C51.5534 114.694 52.883 115.192 53.2154 116.356C53.5893 117.685 52.5506 120.219 53.0491 121.341C56.913 130.108 63.8099 132.974 67.9231 133.182L70.582 117.602C70.582 117.602 85.4144 118.225 86.4947 102.354C87.4503 87.9372 75.1522 86.2753 75.1522 86.2753Z" fill="#CB730B"/>
<path d="M49.0186 109.874C49.0186 109.75 49.0186 109.625 48.977 109.459H48.9355C48.9771 109.584 48.9771 109.708 49.0186 109.874Z" fill="#DCDCDC"/>
<path d="M52.9658 81.5808C57.1621 76.8444 62.6463 73.3129 68.7122 71.4433C68.8368 71.4018 68.92 71.3602 68.9615 71.2771C70.9558 71.5264 72.95 71.9834 74.8612 72.6066C68.4629 74.7671 62.5217 78.0909 57.3283 82.3702C57.8268 82.4949 58.3669 82.6195 58.8655 82.7442C64.1005 78.5479 70.1248 75.3488 76.5647 73.396C76.7309 73.3545 76.814 73.2714 76.8971 73.1883C77.3541 73.0221 77.4787 72.1912 76.8555 71.9834C74.238 71.0694 71.579 70.3631 68.7954 70.0723C68.5876 70.0307 68.4213 70.1553 68.2967 70.3215C61.8984 72.3158 56.1234 76.0966 51.761 81.1654C51.6779 81.2485 51.6363 81.3731 51.5947 81.4562C52.0102 81.4562 52.5088 81.4977 52.9658 81.5808Z" fill="black"/>
<path d="M69.9588 119.721C68.2554 119.014 67.1336 117.435 66.1365 115.981C65.5964 115.233 65.0978 114.444 64.5162 113.738C63.9761 113.031 63.3113 112.242 62.5635 111.785C61.7325 111.286 60.5691 111.203 59.9875 112.159C59.4473 113.031 59.8213 114.195 59.9875 115.109C60.4445 117.269 61.1093 119.388 62.0233 121.424C63.062 123.792 64.4331 125.953 66.0534 127.988C66.552 128.612 67.4245 127.739 66.9259 127.116C64.35 123.917 62.5219 120.178 61.5248 116.231C61.2755 115.317 60.9847 114.278 60.9847 113.322C60.9431 112.117 62.0649 112.865 62.5219 113.322C63.7268 114.486 64.5992 115.981 65.5963 117.311C66.6766 118.806 67.923 120.178 69.668 120.884C70.0004 121.009 70.3328 120.759 70.4159 120.468C70.499 120.136 70.2496 119.845 69.9588 119.721Z" fill="#DCDCDC"/>
<path d="M77.1043 97.3272C76.3149 96.2885 75.6086 95.2082 74.9023 94.0865C71.8278 89.0593 69.792 83.4504 68.878 77.6337C68.7533 76.8443 67.5484 77.1767 67.673 77.9661C68.4209 82.9103 70.0413 87.6882 72.3264 92.0922C73.4897 94.2942 74.8192 96.4131 76.3149 98.4074C76.9381 99.1968 77.8937 100.36 77.3536 101.44C77.1874 101.773 76.855 102.105 76.4395 102.022C75.941 101.939 75.6502 101.316 75.4425 100.9C74.7361 99.6538 74.0713 98.4074 73.4066 97.2025C72.8249 96.1223 72.2849 94.9174 71.4955 93.9618C70.8723 93.1724 69.9166 92.5492 68.878 92.7985C67.8393 93.0478 67.2161 94.0449 67.133 95.0421C67.0084 96.2469 67.6316 97.3687 68.1717 98.4074C68.7949 99.6122 69.3765 100.817 69.9166 102.064C70.9969 104.556 71.8694 107.132 72.5341 109.75C72.6588 110.248 72.825 110.747 72.7419 111.287C72.6588 111.952 72.1602 111.702 71.7447 111.37C70.706 110.456 69.7919 109.376 68.9195 108.296C67.1329 106.094 65.6788 103.642 64.557 101.066C64.2246 100.319 63.1444 100.983 63.4768 101.69C64.5571 104.058 65.8865 106.343 67.4653 108.42C68.2547 109.459 69.1273 110.498 70.0413 111.453C70.7892 112.243 71.8693 113.489 73.1158 112.824C74.0298 112.326 74.0713 111.204 73.9051 110.29C73.6974 108.96 73.2404 107.631 72.825 106.384C71.9525 103.684 70.8722 101.025 69.5842 98.4905C69.0857 97.4518 68.0886 96.1638 68.3794 94.959C68.4625 94.5435 68.7533 94.128 69.1688 94.0449C69.7089 93.9618 70.166 94.4189 70.4568 94.7928C70.7892 95.2083 71.0384 95.6653 71.2877 96.1223C71.6617 96.8286 72.077 97.5349 72.451 98.2412C73.1157 99.4876 73.7805 100.776 74.5283 101.98C75.0684 102.894 76.0241 103.642 77.1458 103.227C78.1014 102.853 78.7662 101.773 78.6831 100.734C78.7246 99.363 77.8522 98.3243 77.1043 97.3272Z" fill="#DCDCDC"/>
<path d="M51.4284 113.115C51.3038 112.076 51.2622 110.996 51.3037 109.957C50.8883 109.916 50.4728 109.833 50.0573 109.75C50.0158 110.747 50.0573 111.744 50.1404 112.741" fill="#DCDCDC"/>
<path d="M52.7578 122.879C59.4054 132.019 65.222 132.767 67.424 133.432C68.2134 133.639 68.5458 132.434 67.7564 132.227C61.3166 130.357 55.9985 125.662 53.2979 119.638" fill="#DCDCDC"/>
<path d="M100.121 97.6596C100.204 97.0364 100.454 96.4131 100.828 95.9146C101.908 94.502 103.777 93.9203 105.398 93.4217C106.312 93.1309 107.226 92.8816 108.14 92.6739L104.151 76.9275L97.5038 78.5894L93.8477 93.5048C93.8477 93.5048 97.4623 94.2942 100.121 97.6596Z" fill="#006C8F"/>
<path d="M103.487 107.174C104.318 106.218 105.232 105.304 106.187 104.473C107.475 103.393 108.846 102.396 110.342 101.565L109.636 98.8228C108.306 99.1967 107.018 99.8614 105.73 100.277C104.525 100.692 103.03 101.025 101.783 100.568C102.573 102.562 102.988 105.138 102.656 108.379C102.905 108.005 103.196 107.548 103.487 107.174Z" fill="#006C8F"/>
<path d="M110.965 120.053C110.259 119.97 109.428 119.763 109.012 119.139C108.68 118.641 108.805 118.018 109.054 117.519C109.76 116.231 111.215 115.275 112.461 114.486C111.505 114.902 110.55 115.317 109.636 115.816C108.431 116.439 107.143 117.145 105.73 116.854C104.442 116.605 103.611 115.483 103.736 114.195C103.819 113.323 104.318 112.575 104.899 111.869C104.068 111.744 103.362 111.37 102.822 110.539C102.656 110.29 102.573 110.041 102.531 109.791C102.448 110.414 102.323 111.079 102.157 111.744C98.501 127.324 85.2475 130.316 85.2475 130.316L82.9209 146.893L119.732 138.584L115.037 119.97C113.666 120.22 112.336 120.261 110.965 120.053Z" fill="#006C8F"/>
<path d="M81.7576 127.366C81.5499 127.075 81.716 126.701 81.9653 126.493C82.2562 126.285 82.63 126.452 82.8378 126.701C83.6272 127.906 84.4581 129.069 85.2475 130.274C85.4553 130.565 85.2891 130.939 85.0398 131.146C84.749 131.354 84.3751 131.188 84.1674 130.939C83.378 129.734 82.5885 128.57 81.7576 127.366ZM102.323 128.321C103.321 129.692 105.606 132.393 103.736 133.972C102.905 134.678 101.7 134.346 100.994 133.598C100.205 132.767 99.706 131.645 98.9997 130.731C98.335 129.858 97.5456 128.903 96.6315 128.28C96.2992 128.03 95.6343 127.698 95.2189 128.113C94.8865 128.487 95.2605 129.111 95.4682 129.443C96.0914 130.523 96.8393 131.562 97.5456 132.642C98.2934 133.764 99.0412 134.927 99.7891 136.049C100.246 136.714 99.1659 137.337 98.7089 136.672C97.878 135.426 97.0885 134.179 96.2576 132.933C95.8421 132.31 95.4266 131.686 95.0111 131.063C94.6372 130.523 94.2633 129.983 94.014 129.36C93.6817 128.404 93.8893 127.324 94.8865 126.909C95.8836 126.452 96.8808 126.909 97.6702 127.532C98.5843 128.28 99.3736 129.194 100.08 130.108C100.454 130.606 100.786 131.063 101.119 131.603C101.409 132.06 101.659 132.642 102.074 132.974C102.448 133.265 102.947 133.307 103.113 132.808C103.279 132.351 103.071 131.894 102.822 131.479C102.282 130.482 101.576 129.526 100.869 128.57C99.4983 126.701 97.961 124.997 96.2576 123.419C93.5985 126.701 90.1917 129.36 86.3278 131.063C85.4969 136.464 84.6659 141.866 83.835 147.267C83.7103 148.015 82.6716 147.765 82.63 147.059C82.5469 147.017 82.4638 146.934 82.4223 146.851C81.4252 145.314 80.3034 143.901 79.0154 142.572C78.8077 142.364 78.8077 142.115 78.8908 141.949C79.7633 136.755 80.6774 131.562 81.5499 126.327C81.633 125.953 81.9238 125.828 82.1731 125.911C85.8292 125.288 89.2776 123.876 92.3106 121.715C95.9252 119.139 98.9166 115.441 100.579 111.245C100.662 110.871 100.703 110.497 100.745 110.123C100.786 109.957 100.911 109.791 101.077 109.708C101.368 108.835 101.576 107.963 101.7 107.049C102.157 104.224 101.783 101.274 100.288 98.8226C98.8335 96.4959 96.3406 94.9172 93.6401 94.5017C93.4739 94.5432 93.2662 94.5432 93.1 94.4601C92.9338 94.4601 92.7676 94.4186 92.643 94.4186C92.0613 94.4186 91.8951 93.7538 92.1444 93.4214C91.3135 92.549 90.4825 91.6765 89.61 90.804C89.1945 90.8455 88.7791 90.5547 88.9037 90.0561C90.5656 84.7796 91.6458 79.3369 92.1444 73.8112C91.9782 73.4372 92.186 72.9386 92.6845 72.9386C92.7676 72.8971 92.8923 72.8971 92.9754 72.9386C94.5957 72.8971 96.1745 72.6063 97.7117 72.0662C97.8363 71.9415 98.0441 71.8584 98.2103 71.9C98.4595 71.8584 98.7504 72.0662 98.8335 72.2739C100.454 73.645 102.116 75.016 103.736 76.3455C103.736 76.3455 103.736 76.3871 103.778 76.3871C103.861 76.3871 103.944 76.3871 104.027 76.3871C104.359 76.4286 104.65 76.6363 104.65 77.0103C104.65 77.3011 104.359 77.675 104.027 77.6335C102.116 77.4257 100.205 77.7581 98.5012 78.6722C98.2103 78.8384 97.961 78.7553 97.7948 78.5475C97.7532 78.5891 97.7117 78.6306 97.6286 78.6722C96.6315 83.6163 95.4682 88.5189 94.1387 93.3799C97.2963 93.9616 100.08 95.9558 101.617 98.8226C103.736 102.77 103.279 107.381 101.659 111.453C101.368 113.156 100.869 114.818 100.205 116.439C99.332 118.558 98.2103 120.552 96.8393 122.38C98.9997 124.166 100.745 126.161 102.323 128.321ZM102.074 76.3871C100.786 75.3068 99.5398 74.2682 98.2518 73.1879C96.8392 73.6865 95.3851 73.9773 93.931 74.0604C95.2605 75.2653 96.6315 76.4286 97.961 77.6335C98.0026 77.5919 98.0441 77.592 98.0857 77.5504C99.2906 76.8857 100.662 76.5117 102.074 76.3871ZM90.5656 89.8484C91.4381 90.7624 92.3521 91.6765 93.2246 92.5905C94.5125 87.8126 95.6344 83.0346 96.6315 78.1736C96.6315 78.1321 96.6315 78.1321 96.673 78.0905C95.5928 77.1349 94.5125 76.1793 93.4323 75.2237C92.8922 80.1263 91.8951 84.9874 90.4825 89.7238C90.4825 89.7653 90.524 89.8068 90.5656 89.8484ZM98.792 116.937C94.9696 122.214 89.1115 125.87 82.7132 126.992C81.8823 131.936 81.0097 136.921 80.1788 141.866C81.1759 142.904 82.09 144.026 82.9209 145.231C83.6272 140.661 84.3335 136.09 85.0398 131.52C84.2919 131.811 83.9595 130.606 84.7074 130.315C84.9151 130.232 85.1229 130.149 85.2891 130.066C85.4138 129.817 85.663 129.775 85.8707 129.817C87.2833 129.194 88.6544 128.404 89.9424 127.532C93.8063 124.873 96.8808 121.175 98.792 116.937ZM96.2576 137.005C96.0914 136.714 95.6759 136.589 95.3851 136.797C95.0943 136.963 94.9696 137.337 95.1774 137.669C95.8837 138.791 96.59 139.954 97.3378 141.076C97.504 141.367 97.9194 141.492 98.2103 141.284C98.5011 141.118 98.6257 140.744 98.418 140.411C97.7117 139.29 97.0054 138.126 96.2576 137.005ZM105.896 87.9788C105.024 86.5662 104.027 85.2782 102.905 84.0733C102.323 83.4501 101.7 82.8684 101.077 82.2868C100.495 81.7882 99.8722 81.165 99.1659 80.9573C98.4596 80.7911 97.7117 81.1235 97.504 81.8713C97.2962 82.5776 97.587 83.4086 97.7948 84.1149C98.2518 85.7768 98.8335 87.3971 99.5813 88.9759C100.412 90.7209 101.368 92.4243 102.49 94.0031C102.947 94.6679 104.027 94.0447 103.57 93.3799C101.409 90.3885 99.8307 87.0232 98.9166 83.4501C98.8335 83.2008 98.5843 82.5776 98.7089 82.2868C98.8751 81.996 99.3737 82.453 99.5398 82.6192C100.246 83.1593 100.869 83.7825 101.493 84.4057C102.781 85.6937 103.861 87.1063 104.816 88.6435C105.232 89.3083 106.312 88.6851 105.896 87.9788Z" fill="black"/>
<path d="M123.055 116.356C123.803 116.107 124.135 117.312 123.388 117.561C119.441 118.89 115.203 120.677 110.965 120.054C110.259 119.971 109.428 119.763 109.012 119.14C108.68 118.641 108.804 118.018 109.054 117.519C109.802 116.107 111.422 115.11 112.751 114.279C114.496 113.157 116.366 112.16 118.277 111.287C119.607 110.706 121.102 109.916 122.598 109.833C123.388 109.792 123.388 111.038 122.598 111.08C122.557 111.08 122.39 111.121 122.474 111.08C122.557 111.08 122.349 111.08 122.349 111.121C122.224 111.163 122.058 111.163 121.933 111.204C121.601 111.287 121.227 111.412 120.895 111.537C120.022 111.827 119.191 112.201 118.402 112.617C116.615 113.448 114.912 114.403 113.25 115.442C112.585 115.899 111.92 116.356 111.297 116.896C110.799 117.312 110.425 117.686 110.134 118.184C110.051 118.309 110.092 118.267 110.092 118.226C110.092 118.267 110.051 118.309 110.051 118.35C109.968 118.558 110.051 118.392 110.051 118.35C110.051 118.392 110.051 118.433 110.051 118.475C110.051 118.433 110.051 118.475 110.051 118.475C109.968 118.392 110.175 118.558 110.051 118.517C110.092 118.558 110.134 118.6 110.217 118.6C110.3 118.641 110.259 118.641 110.259 118.641C110.383 118.683 110.508 118.724 110.674 118.766C111.38 118.932 112.087 118.974 112.793 118.932C116.366 118.89 119.773 117.478 123.055 116.356ZM85.8703 27.8604C86.2858 28.816 86.7429 29.7716 87.1583 30.7272C87.283 31.018 87.74 31.1011 88.0308 30.9349C88.3216 30.7272 88.4047 30.3948 88.2385 30.0624C87.823 29.1068 87.3661 28.1513 86.9506 27.1957C86.826 26.9048 86.3689 26.8218 86.0781 26.9879C85.7872 27.1957 85.7457 27.528 85.8703 27.8604ZM88.9449 27.0295C88.7787 26.7386 88.9034 26.3647 89.1526 26.157C89.4435 25.9908 89.8589 26.1154 90.0251 26.3647C90.6898 27.4865 91.1468 28.7745 91.3546 30.0624C91.3961 30.3948 91.2715 30.7272 90.9391 30.8103C90.6483 30.8934 90.2329 30.6857 90.1913 30.3948C90.1082 29.7716 89.942 29.1899 89.7343 28.6083C89.6927 28.4421 89.6097 28.3174 89.5681 28.1513C89.6097 28.2344 89.5265 28.0682 89.5265 28.0682C89.485 27.9851 89.4434 27.902 89.4019 27.8189C89.2772 27.5696 89.1111 27.2788 88.9449 27.0295ZM83.0036 25.4092C82.8374 25.7 82.4635 25.7831 82.1311 25.6169C81.8403 25.4507 81.7572 25.0352 81.9234 24.7444C82.4219 23.8719 83.1282 23.1656 84.0007 22.6255C84.2915 22.4593 84.6655 22.5839 84.8732 22.8332C85.0394 23.124 84.9148 23.498 84.6655 23.7057C84.4993 23.7888 84.3746 23.9134 84.2085 24.0381C84.25 23.9965 84.2916 23.955 84.3331 23.955C83.9592 24.2458 83.6269 24.5782 83.336 24.9521C83.3776 24.9106 83.4191 24.869 83.4191 24.8275C83.2529 25.0352 83.1283 25.243 83.0036 25.4092ZM88.4463 21.6699C88.5294 22.0023 88.3632 22.3346 88.0308 22.4177C87.74 22.5008 87.3246 22.2931 87.283 22.0023C87.1584 21.4622 87.5738 21.0882 88.0724 21.0882C88.3216 21.0882 88.6125 21.1298 88.9033 21.1713C89.485 21.2544 90.1082 21.3375 90.6899 21.4622C91.0222 21.5453 91.1884 21.9192 91.1053 22.21C91.0222 22.5424 90.6483 22.7086 90.3575 22.6255C89.942 22.5424 89.5265 22.4593 89.0695 22.3762C89.0279 22.3762 89.028 22.3762 89.111 22.3762C89.0695 22.3762 89.028 22.3762 89.028 22.3762C88.9864 22.3762 88.9448 22.3762 88.8617 22.3762C88.7786 22.3762 88.654 22.3346 88.5709 22.3346C88.4463 22.3346 88.3632 22.3347 88.2385 22.2931C88.197 22.2931 88.1555 22.2931 88.114 22.2931C88.0724 22.2931 88.1139 22.2931 88.197 22.2931C88.3632 22.2516 88.4463 22.1269 88.5294 21.9607C88.4463 21.8361 88.4463 21.753 88.4463 21.6699C88.4463 21.6283 88.4463 21.6283 88.4463 21.6699ZM171.125 160.687C168.84 160.77 166.638 159.898 164.893 158.402C163.148 156.865 162.151 154.746 161.902 152.461C161.445 148.264 163.231 144.151 162.733 139.997C162.484 138.044 161.611 136.382 160.157 135.052C158.786 133.764 157.082 132.892 155.462 131.978C153.759 131.064 152.055 130.15 150.518 128.945C148.731 127.532 147.36 125.663 146.072 123.752C143.787 120.386 141.336 116.356 137.181 115.276C136.6 116.481 135.893 117.644 135.062 118.724C131.863 122.921 127.127 125.787 121.933 126.66C122.016 129.734 122.183 132.85 122.432 135.925C122.889 141.7 123.72 147.433 124.8 153.125C125.631 157.446 126.42 162.764 130.243 165.59C130.866 166.047 130.243 167.127 129.62 166.67C127.501 165.133 126.213 162.848 125.34 160.438C124.468 158.028 124.011 155.494 123.554 153.001C122.972 150.051 122.515 147.101 122.1 144.151C121.31 138.418 120.853 132.643 120.729 126.868C120.521 126.826 120.438 126.66 120.396 126.452C119.856 125.829 119.399 125.206 119.025 124.458C118.111 122.671 117.737 120.677 117.986 118.724C118.402 118.6 118.859 118.475 119.274 118.35C118.817 120.885 119.565 123.585 121.269 125.58C121.269 125.58 121.269 125.58 121.31 125.58C122.681 125.372 124.052 125.039 125.34 124.582C130.035 122.837 133.982 119.264 136.143 114.736C136.143 114.653 136.143 114.611 136.143 114.528C135.852 114.029 135.519 113.531 135.187 113.032C133.483 110.498 131.655 108.047 129.91 105.554C129.121 104.432 128.332 103.31 127.584 102.147C126.878 101.025 126.254 99.8203 125.465 98.7401C123.678 96.2472 121.102 93.9206 118.153 93.0065C116.74 92.5495 115.12 92.7573 113.666 92.9235C112.045 93.1312 110.466 93.4636 108.888 93.8375C107.101 94.253 105.231 94.71 103.528 95.4994C102.822 95.8317 102.115 96.2888 101.7 96.9535C101.368 97.5352 101.201 98.4077 101.658 98.9893C102.614 100.319 104.941 99.4048 106.104 98.9478C107.724 98.3246 109.262 97.5767 110.965 97.369C112.378 97.2028 113.956 97.4105 115.12 98.283C115.452 98.5323 115.743 98.8232 115.951 99.1555C117.28 98.7401 118.61 98.4077 119.981 98.1999C120.77 98.0753 121.102 99.2802 120.313 99.4048C117.779 99.7787 115.286 100.568 112.959 101.648C110.923 102.646 108.971 103.85 107.267 105.346C106.395 106.094 105.564 106.883 104.816 107.714C104.11 108.462 103.279 109.584 104.442 110.373C104.982 110.747 105.605 110.747 106.229 110.623C110.092 106.883 115.078 104.266 120.396 103.31C121.186 103.144 121.518 104.349 120.729 104.515C117.986 105.014 115.369 105.928 112.918 107.257C110.757 108.421 108.763 109.875 106.976 111.62C106.187 112.368 104.899 113.448 105.065 114.694C105.273 116.065 107.059 115.733 107.932 115.317C109.137 114.777 110.3 114.154 111.505 113.614C112.751 113.074 113.956 112.575 115.244 112.118C117.82 111.163 120.438 110.415 123.138 109.833C123.928 109.667 124.26 110.872 123.471 111.038C120.188 111.744 116.948 112.741 113.832 113.988C112.461 114.528 111.09 115.151 109.76 115.816C108.555 116.439 107.267 117.146 105.855 116.855C104.567 116.605 103.736 115.484 103.86 114.196C103.943 113.323 104.442 112.575 105.024 111.869C104.193 111.744 103.486 111.37 102.946 110.539C102.198 109.376 102.822 108.13 103.653 107.174C104.484 106.219 105.398 105.305 106.353 104.474C108.846 102.355 111.713 100.651 114.787 99.5295C113.873 98.5739 112.336 98.4077 111.048 98.5739C109.261 98.7816 107.6 99.7372 105.896 100.319C104.4 100.817 102.489 101.233 101.118 100.153C99.8302 99.114 99.9964 97.1613 100.952 95.9148C102.032 94.5022 103.902 93.9206 105.522 93.422C107.35 92.8403 109.22 92.4249 111.09 92.0509C112.71 91.7601 114.33 91.4693 115.992 91.4277C117.571 91.3862 118.984 91.7601 120.396 92.4664C123.388 93.9621 125.797 96.4965 127.542 99.3633C128.996 101.815 130.575 104.1 132.237 106.385C133.982 108.836 135.81 111.246 137.347 113.822C137.431 113.863 137.514 113.946 137.597 114.071C142.375 115.234 145.075 119.888 147.693 123.668C148.939 125.497 150.352 127.2 152.138 128.488C153.717 129.61 155.462 130.441 157.165 131.396C158.786 132.31 160.448 133.266 161.736 134.637C163.107 136.091 163.896 137.878 164.145 139.83C164.686 143.985 162.982 148.015 163.315 152.128C163.481 154.164 164.312 156.034 165.849 157.405C167.345 158.734 169.297 159.482 171.292 159.399C171.915 159.441 171.915 160.687 171.125 160.687ZM120.978 80.2931C122.847 81.9134 124.634 83.6169 126.379 85.3618C126.961 85.9435 127.833 85.0295 127.251 84.4893C121.186 78.465 114.58 73.0639 106.893 69.2831C104.774 68.2444 102.572 67.3303 100.37 66.4994C99.9549 60.5581 99.7471 54.6169 99.4979 48.7172C99.4979 48.2601 99.4563 47.8031 99.4563 47.3461C103.362 46.349 107.309 45.3103 111.214 44.3132C111.588 44.2301 112.004 44.1054 112.378 44.0223C112.876 43.8977 112.918 43.316 112.668 42.9836C109.594 39.1613 106.602 35.3389 103.57 31.475C101.949 29.4392 100.37 27.4034 98.75 25.3676C97.2543 23.498 95.8417 21.4622 94.0967 19.8003C92.9749 18.72 91.7701 17.806 90.3991 17.0581C91.3131 16.8504 92.3102 16.518 93.3074 15.9364C95.9664 14.3576 98.7085 7.7931 95.3431 3.2229C89.4019 11.5739 84.0423 5.46646 75.4835 9.53809C68.8775 12.6541 69.1268 24.9521 71.9936 30.9765C69.9993 30.8518 67.9635 31.5166 66.5509 32.9292C64.1827 35.2974 63.8918 39.369 65.9277 42.0281C67.0079 43.4822 68.7113 44.3547 70.4979 44.6455C67.7557 51.1684 64.7643 57.6083 61.6483 63.965C61.6483 63.965 61.6483 63.965 61.6068 63.965C52.965 67.7874 44.24 71.4435 36.0967 76.263C28.5766 80.7085 21.5136 86.1097 15.7385 92.7157C12.581 96.3303 9.83887 100.277 7.67841 104.557C7.30449 105.263 8.38476 105.886 8.75868 105.18C12.581 97.5768 18.273 91.1369 24.7544 85.6942C31.7343 79.8776 39.6283 75.3905 47.8131 71.4851C52.4249 69.2831 57.1197 67.2888 61.8145 65.2114C61.8145 65.2114 61.8145 65.2114 61.856 65.2114C61.7729 65.4607 61.8561 65.71 62.1469 65.8346C71.3289 69.7816 81.5495 71.1111 91.4377 69.657C94.2214 69.2415 96.9635 68.6183 99.6225 67.7874C99.7056 67.7458 99.7887 67.7042 99.8303 67.6627C103.736 69.1169 107.558 70.8618 111.131 73.0223C114.621 75.0997 117.903 77.5925 120.978 80.2931ZM70.5809 67.3719C67.9219 66.7071 65.3045 65.8346 62.7701 64.7544C62.7286 64.7544 62.687 64.7129 62.6455 64.7129C65.8861 58.1068 68.9606 51.4593 71.7859 44.6871C72.8661 44.6455 73.9047 44.3962 74.8603 43.8561C75.1511 43.6899 75.2758 43.316 75.1096 43.0252C74.9435 42.7343 74.5695 42.6097 74.2787 42.7759C71.952 44.1054 68.5867 43.3991 66.9249 41.2802C65.3045 39.1197 65.5122 35.7129 67.4234 33.8017C69.3346 31.8905 72.7414 31.6828 74.9019 33.3031C75.1927 33.5109 75.5666 33.4693 75.7743 33.1785C75.9821 32.8876 75.9406 32.5137 75.6498 32.306C75.4836 32.1813 75.3174 32.0983 75.1927 31.9736L76.2314 32.0152C80.5523 29.3561 79.846 25.1183 80.9677 21.9607C82.5881 17.4321 84.9979 17.5152 87.9062 17.3074C92.2271 18.6369 94.9276 22.4593 97.5866 25.8246C100.703 29.7301 103.736 33.677 106.852 37.624C108.264 39.4106 109.677 41.1971 111.09 42.9836C108.098 43.773 105.065 44.5624 102.074 45.3518C100.91 45.6427 99.7472 45.9335 98.5838 46.2243C98.3346 46.3074 98.1268 46.5567 98.1268 46.806C98.3345 51.8748 98.5423 56.9435 98.7916 62.0123C98.8747 63.508 98.9577 65.0452 99.0408 66.5409C89.9004 69.4492 79.9291 69.7401 70.5809 67.3719ZM75.9821 37.8318C76.1898 38.0811 76.2314 38.455 75.9821 38.7043C75.7743 38.912 75.3174 38.9536 75.1096 38.7043C73.8217 37.0839 71.8273 36.1283 69.75 36.1699C68.9606 36.1699 68.9606 34.9235 69.75 34.9235C72.1182 34.8819 74.4448 35.9621 75.9821 37.8318ZM82.6712 55.3232C82.2558 55.9464 81.591 56.3619 80.8432 56.4865C79.4306 56.6942 78.0179 56.0295 77.2285 54.8246C76.3145 53.4535 76.2314 51.667 76.1898 50.0467C76.1898 49.2573 77.4362 49.2573 77.4362 50.0467C77.4778 51.6255 77.4778 53.5366 78.6826 54.6584C79.0566 55.0323 79.7629 55.2401 80.2615 55.2816C80.3446 55.2816 80.3861 55.2816 80.4692 55.2816C80.5107 55.2816 80.5523 55.2816 80.5939 55.2816C80.677 55.2816 80.7601 55.2401 80.8432 55.2401L81.0093 55.1985C81.3002 55.0739 81.4248 54.9492 81.5495 54.7415C81.7157 54.4507 82.0895 54.326 82.4219 54.5338C82.7127 54.6584 82.8374 55.0324 82.6712 55.3232ZM64.5982 84.9879C63.3102 83.9908 61.5652 83.5338 60.028 83.0768C58.4076 82.5782 56.7458 82.2458 55.0839 81.955C53.6297 81.6641 52.1339 81.4148 50.6382 81.3733C49.2256 81.3317 47.9377 81.5395 46.6498 82.1212C45.3203 82.7028 44.1154 83.4922 42.9936 84.4478C41.8303 85.4449 40.7916 86.6083 39.8775 87.8547C39.0051 89.0596 38.3403 90.3891 37.5509 91.6355C35.7643 94.4191 33.8116 97.1197 31.9836 99.8618C31.6096 100.443 31.2357 101.025 30.9033 101.607C29.8231 101.274 28.5767 101.274 27.4964 101.399C25.0451 101.69 22.6769 102.77 20.9319 104.515C18.8546 106.551 18.0652 109.335 17.442 112.118C16.8604 114.777 16.071 117.27 14.7414 119.638C13.495 121.84 11.9994 123.876 10.4206 125.87C7.26298 129.859 3.73142 133.64 1.44632 138.252C0.90621 139.373 0.407684 140.537 0.0337585 141.7C-0.215525 142.448 0.989305 142.78 1.23859 142.032C4.27154 132.393 13.5782 126.452 17.2759 117.146C18.3146 114.528 18.6053 111.703 19.5194 109.044C20.3919 106.634 22.0122 104.723 24.2973 103.56C25.3775 103.019 26.5409 102.687 27.7458 102.562C28.4936 102.479 29.4492 102.479 30.197 102.646C29.3245 104.266 28.9506 106.094 29.6569 107.88C30.3632 109.625 31.7758 110.955 33.3546 111.869C34.975 112.825 36.7615 113.406 38.6311 113.739C40.6254 114.113 42.6613 114.32 44.6971 114.029C46.2759 113.822 47.9792 113.282 48.7686 111.911C49.0179 112.035 49.2257 112.201 49.4334 112.368C51.3861 114.029 52.7572 116.481 52.7572 119.098C52.7156 121.633 51.4692 124.167 49.8073 126.037C48.3947 127.657 46.5251 128.737 44.6971 129.817C42.038 131.355 37.7587 133.39 38.3403 137.13C38.7558 139.623 41.1655 141.077 41.9133 143.445C42.8274 146.312 40.7084 149.054 38.7973 150.965C37.6755 150.716 36.346 150.882 35.4735 151.754C34.6425 152.585 34.4349 153.998 35.432 154.787C35.7228 155.037 36.0136 155.037 36.3044 154.787C37.2185 154.039 38.2156 153.25 39.1297 152.419C39.1712 152.461 39.2544 152.461 39.2959 152.502C41.4979 153.749 40.0022 156.449 39.0882 158.028C38.6727 158.734 39.7529 159.358 40.1684 158.651C40.9578 157.322 41.8302 155.868 41.7056 154.247C41.6225 153.084 40.9993 152.128 40.0853 151.505C41.0824 150.508 41.9549 149.386 42.5781 148.14C43.2013 146.852 43.5752 145.398 43.3675 143.943C43.1597 142.448 42.2873 141.284 41.4148 140.121C40.3761 138.75 39.0466 137.005 39.8775 135.26C40.6254 133.723 42.3288 132.767 43.6999 131.895C45.4449 130.856 47.2314 129.942 48.8518 128.696C50.9707 127.075 52.591 124.873 53.4635 122.38C54.336 119.888 54.2114 117.229 53.0065 114.86C52.3833 113.614 51.4692 112.534 50.4305 111.62C50.1397 111.37 49.8489 111.08 49.475 110.913C49.3088 110.83 49.1841 110.747 49.0179 110.706C49.0595 110.29 49.018 109.875 48.9349 109.501C50.5968 109.916 52.2586 110.207 53.962 110.124C55.1669 110.082 57.9922 109.833 57.369 107.88C57.1612 107.257 56.7041 106.717 56.2471 106.302C55.5824 105.678 54.8761 105.138 54.1283 104.64C54.0036 104.557 53.8374 104.474 53.7128 104.349C54.4191 104.64 55.1253 104.972 55.8316 105.305C57.0781 105.886 58.3661 106.8 59.8202 106.842C61.0251 106.883 62.2299 106.177 62.4792 104.931C62.7285 103.726 62.1054 102.646 61.316 101.773C61.8976 101.69 62.4793 101.482 62.9363 101.025C65.1798 98.9894 62.1053 96.3303 60.6096 94.9593C58.7815 93.2974 56.7042 91.8432 54.4607 90.7214C53.5051 90.2644 52.5494 89.8489 51.5938 89.475C52.0924 88.9349 52.7988 88.6441 53.6297 88.5194C55.1254 88.3117 56.5795 88.7687 57.9506 89.3088C59.4879 89.8905 61.0251 90.6799 62.7285 90.763C64.1411 90.8461 65.6368 90.2644 66.0523 88.7687C66.5093 87.3146 65.7199 85.8604 64.5982 84.9879ZM36.0967 153.416C36.0552 153.042 36.346 152.627 36.7199 152.419C36.9692 152.253 37.3016 152.17 37.5924 152.128C37.0939 152.585 36.5953 153.001 36.0967 153.416ZM61.7729 89.3088C60.1941 88.8934 58.6985 88.1455 57.1612 87.6469C54.9177 86.9406 51.8431 86.9822 50.3474 89.018C49.0595 88.6025 47.6885 88.2702 46.359 88.0624C45.5696 87.9378 45.2372 89.1426 46.0266 89.2673C50.5552 89.9736 54.8761 91.8432 58.4492 94.6684C59.3216 95.3747 60.1942 96.1226 60.9836 96.9535C61.6068 97.5767 62.9778 98.7401 62.3961 99.7372C61.9391 100.568 60.9835 100.61 60.111 100.485C58.4492 98.8647 56.538 97.4521 54.5022 96.2888C51.8431 94.7931 48.9349 93.7128 45.9435 93.1727C45.1541 93.0065 44.8217 94.2114 45.6111 94.3776C50.4721 95.2916 55.0423 97.5352 58.6569 100.859C59.1139 101.274 59.5294 101.69 59.9449 102.105C60.4019 102.604 60.942 103.103 61.1497 103.767C61.6067 105.014 60.5265 105.762 59.3632 105.554C58.6984 105.429 58.1168 105.097 57.5351 104.806C56.9535 104.515 56.3302 104.224 55.7486 103.933C54.5022 103.352 53.2558 102.812 51.9678 102.355C49.9736 101.565 47.8962 100.901 45.8188 100.36C45.7773 100.36 45.7357 100.319 45.6526 100.319C44.9878 100.07 44.3231 99.8618 43.6168 99.7788C43.5752 99.7788 43.4922 99.7788 43.4506 99.7788C43.3676 99.7788 43.2844 99.7372 43.2013 99.6957C42.4119 99.5295 42.0795 100.734 42.8689 100.901C43.7414 101.067 44.5723 101.274 45.4448 101.524C46.0265 101.731 46.6497 101.981 47.2314 102.272C48.9764 103.061 50.7214 103.975 52.3417 105.014C53.0896 105.471 53.7959 105.969 54.5022 106.509C54.793 106.717 55.0838 106.966 55.3331 107.216C55.4993 107.382 55.8317 107.714 55.8732 107.797C55.9563 107.88 55.9979 108.005 56.081 108.088C56.081 108.088 56.1226 108.13 56.1226 108.171C56.1226 108.213 56.1641 108.254 56.1641 108.296C56.1641 108.296 56.1641 108.296 56.1641 108.337C56.1641 108.337 56.1641 108.379 56.1641 108.421L56.1226 108.462C56.081 108.504 55.9563 108.545 55.9563 108.545C55.5408 108.711 55.0838 108.753 54.6268 108.794C50.6798 109.168 46.8159 107.507 43.2013 106.26C42.4535 106.011 42.1211 107.216 42.8689 107.465C44.4062 108.005 45.985 108.545 47.5638 109.044C47.6053 109.127 47.6053 109.21 47.6469 109.293C47.813 109.916 47.8961 110.581 47.6469 111.204C47.6053 111.329 47.6054 111.412 47.6054 111.495C46.9822 112.326 45.6941 112.658 44.7386 112.783C42.9936 113.032 41.2071 112.908 39.4621 112.617C36.3876 112.118 32.8145 110.913 31.1526 108.047C30.0724 106.177 30.5709 104.183 31.7342 102.521C33.4377 99.7372 35.3489 97.0782 37.177 94.3776C37.9664 93.2143 38.7558 92.0094 39.4621 90.763C40.2099 89.475 40.9993 88.2286 41.9549 87.1068C42.9105 86.0266 43.9492 85.071 45.154 84.2816C46.2758 83.5753 47.5223 82.8275 48.8518 82.6197C50.2229 82.412 51.677 82.5782 53.0065 82.7859C54.4607 82.9937 55.8732 83.2845 57.3274 83.6169C58.9893 83.9908 60.6512 84.4478 62.23 85.071C63.4764 85.5696 64.9305 86.4421 64.889 87.9793C64.9305 89.6828 62.9363 89.6412 61.7729 89.3088Z" fill="black"/>
<path d="M25.5023 43.5652C24.8791 43.1081 25.5023 42.0279 26.1255 42.4849C30.5295 45.7672 34.9336 49.0909 39.3791 52.3732C40.0023 52.8302 39.3791 53.9104 38.7559 53.4534C34.3519 50.1296 29.9063 46.8474 25.5023 43.5652ZM39.0883 44.0222C41.4565 46.2242 43.8247 48.4262 46.2344 50.6282C46.8161 51.1683 47.6885 50.2958 47.1069 49.7557C44.7387 47.5537 42.3705 45.3517 39.9607 43.1497C39.3791 42.6096 38.5067 43.4821 39.0883 44.0222ZM132.777 60.0594C136.766 57.1096 140.796 54.1597 144.785 51.2099C145.408 50.7528 144.785 49.6726 144.161 50.1296C140.173 53.0795 136.143 56.0293 132.154 58.9792C131.489 59.4778 132.113 60.558 132.777 60.0594ZM137.057 64.3803C138.968 63.5079 140.879 62.6769 142.79 61.8044C143.081 61.6798 143.164 61.2228 142.998 60.9319C142.832 60.5996 142.458 60.558 142.126 60.7242C140.214 61.5967 138.303 62.4276 136.392 63.3001C136.101 63.4247 136.018 63.8818 136.184 64.1726C136.392 64.4634 136.766 64.505 137.057 64.3803ZM30.4049 56.6525C31.3605 57.1096 32.3161 57.6081 33.2717 58.0652C33.5625 58.2313 33.9779 58.1483 34.1441 57.8574C34.3103 57.5666 34.2272 57.1511 33.9364 56.9849C32.9808 56.5279 32.0253 56.0293 31.0697 55.5723C30.7788 55.4061 30.3633 55.4892 30.1971 55.7801C30.031 56.0709 30.0725 56.4864 30.4049 56.6525Z" fill="#DCDCDC"/>
</svg>
